<svg width="25" height="25" viewBox="0 0 25 25" fill="none" xmlns="http://www.w3.org/2000/svg">
<path d="M19.761 11.3068L17.3556 9.86399C16.2899 9.22458 15.3896 8.32239 14.7515 7.25364L13.3116 4.84332C12.8915 4.13947 11.7539 4.13947 11.333 4.84332L9.89307 7.25364C9.25498 8.32155 8.35463 9.22375 7.28807 9.86315L4.88269 11.306C4.5319 11.5177 4.32227 11.8885 4.32227 12.2986C4.32227 12.7087 4.5319 13.0794 4.88269 13.2903L7.28807 14.7332C8.35463 15.3726 9.25498 16.2756 9.89307 17.3427L11.333 19.753C11.5426 20.1054 11.9126 20.3154 12.3218 20.3154C12.7311 20.3154 13.1011 20.1054 13.3116 19.753L14.7515 17.3427C15.3887 16.2756 16.2891 15.3726 17.3565 14.7332L19.7618 13.2903C20.1126 13.0794 20.3223 12.7087 20.3223 12.2986C20.3223 11.8885 20.1118 11.5177 19.761 11.3068ZM16.5831 13.4393C15.3044 14.2059 14.2244 15.2881 13.4602 16.5685L12.3218 18.4759L11.1835 16.5694C10.4193 15.2889 9.33933 14.2068 8.06064 13.4401L6.15804 12.2986L8.06064 11.1579C9.33933 10.3912 10.4193 9.30995 11.1835 8.02863L12.3218 6.12213L13.4602 8.02863C14.2253 9.30995 15.3044 10.3921 16.5831 11.1579L18.4857 12.2986L16.5831 13.4393Z" fill="#26364d "/>
<path d="M12.3222 3.53763C12.695 3.53763 12.9972 3.23537 12.9972 2.86263V1.81562C12.9972 1.44287 12.695 1.14062 12.3222 1.14062C11.9495 1.14062 11.6472 1.44287 11.6472 1.81562V2.86263C11.6472 3.23537 11.9495 3.53763 12.3222 3.53763Z" fill="#26364d"/>
<path d="M12.3222 21.0938C11.9495 21.0938 11.6472 21.396 11.6472 21.7687V22.8157C11.6472 23.1885 11.9495 23.4907 12.3222 23.4907C12.695 23.4907 12.9972 23.1885 12.9972 22.8157V21.7687C12.9972 21.396 12.695 21.0938 12.3222 21.0938Z" fill="#26364d"/>
<path d="M22.8221 11.6406H21.7751C21.4023 11.6406 21.1001 11.9429 21.1001 12.3156C21.1001 12.6884 21.4023 12.9906 21.7751 12.9906H22.8221C23.1948 12.9906 23.4971 12.6884 23.4971 12.3156C23.4971 11.9429 23.1948 11.6406 22.8221 11.6406Z" fill="#26364d"/>
<path d="M2.86922 11.6406H1.82222C1.44947 11.6406 1.14722 11.9429 1.14722 12.3156C1.14722 12.6884 1.44947 12.9906 1.82222 12.9906H2.86922C3.24197 12.9906 3.54422 12.6884 3.54422 12.3156C3.54422 11.9429 3.24197 11.6406 2.86922 11.6406Z" fill="#26364d"/>
<path d="M6.71742 7.66534C6.84942 7.79734 7.02192 7.86334 7.19442 7.86334C7.36692 7.86334 7.54017 7.79734 7.67217 7.66534C7.93617 7.40209 7.93617 6.97459 7.67217 6.71134L6.29067 5.32984C6.02667 5.06584 5.59992 5.06584 5.33667 5.32984C5.07267 5.59309 5.07267 6.02059 5.33667 6.28384L6.71742 7.66534Z" fill="#26364d"/>
<path d="M17.9269 16.9646C17.6629 16.7006 17.2361 16.7006 16.9729 16.9646C16.7096 17.2286 16.7089 17.6561 16.9729 17.9194L18.3544 19.3009C18.4864 19.4329 18.6589 19.4989 18.8314 19.4989C19.0039 19.4989 19.1764 19.4329 19.3084 19.3009C19.5724 19.0369 19.5724 18.6094 19.3084 18.3461L17.9269 16.9646Z" fill="#26364d"/>
<path d="M18.3537 5.32993L16.9722 6.71068C16.7082 6.97393 16.7082 7.40143 16.9722 7.66468C17.1042 7.79668 17.2767 7.86268 17.4492 7.86268C17.6217 7.86268 17.7942 7.79668 17.9262 7.66468L19.3077 6.28318C19.5717 6.01993 19.5717 5.59243 19.3077 5.32918C19.0444 5.06593 18.6177 5.06593 18.3537 5.32993Z" fill="#26364d"/>
<path d="M6.71744 16.9646L5.33594 18.3461C5.07194 18.6101 5.07194 19.0376 5.33594 19.3009C5.46794 19.4329 5.64044 19.4989 5.81294 19.4989C5.98544 19.4989 6.15794 19.4329 6.28994 19.3009L7.67219 17.9201C7.93619 17.6561 7.93619 17.2286 7.67219 16.9654C7.40819 16.7021 6.98144 16.7014 6.71744 16.9646Z" fill="#26364d"/>
</svg>
