<svg width="21" height="21" viewBox="0 0 21 21" fill="none" xmlns="http://www.w3.org/2000/svg">
<path d="M16.1761 19.3538H5.34277C4.51424 19.353 3.7199 19.0234 3.13404 18.4376C2.54818 17.8517 2.21866 17.0574 2.21777 16.2288V7.89551C2.21866 7.06698 2.54818 6.27263 3.13404 5.68677C3.7199 5.10091 4.51424 4.77139 5.34277 4.77051H16.1761C17.0046 4.77139 17.799 5.10091 18.3848 5.68677C18.9707 6.27263 19.3002 7.06698 19.3011 7.89551V16.2288C19.3002 17.0574 18.9707 17.8517 18.3848 18.4376C17.799 19.0234 17.0046 19.353 16.1761 19.3538ZM5.34277 6.02051C4.84563 6.02095 4.36897 6.21863 4.01744 6.57017C3.6659 6.92171 3.46821 7.39836 3.46777 7.89551V16.2288C3.46821 16.726 3.6659 17.2026 4.01744 17.5542C4.36897 17.9057 4.84563 18.1034 5.34277 18.1038H16.1761C16.6733 18.1034 17.1499 17.9057 17.5014 17.5542C17.853 17.2026 18.0507 16.726 18.0511 16.2288V7.89551C18.0507 7.39836 17.853 6.92171 17.5014 6.57017C17.1499 6.21863 16.6733 6.02095 16.1761 6.02051H5.34277Z" fill="#26364d"/>
<path d="M9.92611 14.9846C9.7345 14.9847 9.54474 14.947 9.36771 14.8737C9.19067 14.8004 9.02982 14.6929 8.89437 14.5574C8.75892 14.4219 8.65152 14.261 8.57832 14.0839C8.50512 13.9068 8.46756 13.717 8.46777 13.5254V10.5979C8.46778 10.3493 8.53135 10.1048 8.65243 9.88772C8.77351 9.67059 8.94809 9.48802 9.15959 9.35734C9.37108 9.22667 9.61247 9.15224 9.86083 9.14111C10.1092 9.12998 10.3563 9.18253 10.5786 9.29377L13.0878 10.5488C13.3162 10.663 13.5107 10.8351 13.6517 11.0481C13.7927 11.261 13.8753 11.5073 13.8913 11.7622C13.9072 12.0171 13.8559 12.2717 13.7426 12.5006C13.6292 12.7294 13.4577 12.9245 13.2453 13.0663L10.7353 14.7388C10.4958 14.8989 10.2142 14.9844 9.92611 14.9846ZM9.92611 10.3888C9.88748 10.389 9.84967 10.3999 9.81694 10.4204C9.78629 10.4387 9.76099 10.4647 9.74358 10.4959C9.72617 10.5271 9.71727 10.5622 9.71777 10.5979V13.5254C9.71683 13.5634 9.72666 13.6008 9.74613 13.6334C9.76559 13.666 9.79391 13.6924 9.82777 13.7096C9.86072 13.7286 9.89846 13.7377 9.93646 13.7358C9.97445 13.7339 10.0111 13.721 10.0419 13.6988L12.5511 12.0263C12.5814 12.0059 12.6058 11.9781 12.6219 11.9454C12.6381 11.9128 12.6455 11.8764 12.6433 11.8401C12.6411 11.8037 12.6294 11.7685 12.6095 11.738C12.5895 11.7076 12.5619 11.6828 12.5294 11.6663L10.0194 10.4121C9.99054 10.3972 9.9586 10.3892 9.92611 10.3888Z" fill="#26364d"/>
<path d="M10.7596 6.02087C10.6775 6.02107 10.5962 6.00497 10.5204 5.9735C10.4446 5.94203 10.3758 5.89581 10.318 5.83754L6.98464 2.5042C6.87424 2.38572 6.81414 2.22902 6.81699 2.0671C6.81985 1.90518 6.88544 1.75069 6.99995 1.63618C7.11446 1.52167 7.26895 1.45608 7.43087 1.45322C7.59279 1.45037 7.74949 1.51047 7.86797 1.62087L10.7596 4.5117L13.6513 1.62087C13.7698 1.51047 13.9265 1.45037 14.0884 1.45322C14.2503 1.45608 14.4048 1.52167 14.5193 1.63618C14.6338 1.75069 14.6994 1.90518 14.7023 2.0671C14.7051 2.22902 14.645 2.38572 14.5346 2.5042L11.2013 5.83754C11.1435 5.89581 11.0747 5.94203 10.9989 5.9735C10.923 6.00497 10.8417 6.02107 10.7596 6.02087Z" fill="#26364d"/>
</svg>
