<svg width="25" height="25" viewBox="0 0 25 25" fill="none" xmlns="http://www.w3.org/2000/svg">
<path d="M12.3223 22.6007C6.66519 22.6007 2.03662 17.9722 2.03662 12.315C2.03662 6.65787 6.66519 2.0293 12.3223 2.0293C17.9795 2.0293 22.608 6.65787 22.608 12.315C22.608 17.9722 17.9795 22.6007 12.3223 22.6007ZM12.3223 3.74358C7.60805 3.74358 3.75091 7.60073 3.75091 12.315C3.75091 17.0293 7.60805 20.8864 12.3223 20.8864C17.0366 20.8864 20.8938 17.0293 20.8938 12.315C20.8938 7.60073 17.0366 3.74358 12.3223 3.74358ZM12.3223 19.1722C11.8081 19.1722 11.4652 18.8293 11.4652 18.315V18.2293C10.0938 17.8864 8.97948 16.7722 8.89376 14.9722C8.89376 14.4579 9.23662 14.115 9.75091 14.115C10.2652 14.115 10.608 14.4579 10.608 14.9722C10.608 16.2579 11.5509 16.6864 12.3223 16.6864C13.0938 16.6864 14.0366 16.2579 14.0366 14.9722C14.0366 14.0293 13.2652 13.2579 12.3223 13.2579C10.4366 13.2579 8.89376 11.715 8.89376 9.8293C8.97948 7.94358 10.0938 6.8293 11.4652 6.48644V6.31501C11.4652 5.80073 11.8081 5.45787 12.3223 5.45787C12.8366 5.45787 13.1795 5.80073 13.1795 6.31501V6.40073C14.5509 6.74358 15.6652 7.85787 15.7509 9.65787C15.7509 10.1722 15.408 10.515 14.8938 10.515C14.4652 10.515 14.0366 10.1722 14.0366 9.65787C14.0366 8.37215 13.0938 7.94358 12.3223 7.94358C11.5509 7.94358 10.608 8.37215 10.608 9.65787C10.608 10.6007 11.3795 11.3722 12.3223 11.3722C14.208 11.3722 15.7509 12.915 15.7509 14.8007C15.6652 16.6864 14.5509 17.8007 13.1795 18.1436V18.315C13.1795 18.8293 12.8366 19.1722 12.3223 19.1722Z" fill="#26364d"/>
</svg>
