<svg width="25" height="25" viewBox="0 0 25 25" fill="none" xmlns="http://www.w3.org/2000/svg">
<path d="M22.0262 18.6114C21.6076 17.7741 20.7695 17.253 19.8356 17.2442V10.3409H20.6031C21.6417 10.3409 22.4866 9.49644 22.4866 8.45786C22.4866 7.75547 22.0999 7.11607 21.4777 6.79014L13.707 2.71787C13.0068 2.35093 12.1656 2.34068 11.457 2.69297L3.19934 6.79087C2.55701 7.10874 2.1582 7.75181 2.1582 8.46885C2.1582 9.50083 2.99829 10.3409 4.03101 10.3409H4.8092V17.2442C3.87523 17.253 3.03715 17.7741 2.61853 18.6114L1.99341 19.8631C1.74182 20.3663 1.76855 20.953 2.06482 21.432C2.36072 21.911 2.87341 22.1966 3.43628 22.1966H21.2085C21.7714 22.1966 22.2841 21.911 22.58 21.432C22.8762 20.953 22.903 20.3663 22.6514 19.8624L22.0262 18.6114ZM3.34033 20.6432C3.31836 20.6073 3.31653 20.5699 3.3352 20.5333L3.96033 19.2823C4.12659 18.9491 4.4613 18.7425 4.83301 18.7425H19.8118C20.1835 18.7425 20.5182 18.9491 20.6844 19.2823L21.3096 20.5326C21.3282 20.5699 21.3264 20.6073 21.3044 20.6432C21.2711 20.6966 21.2239 20.6966 21.2085 20.6966H3.43628C3.4209 20.6966 3.37366 20.6966 3.34033 20.6432ZM18.3356 17.2425H13.0724V10.3409H18.3356V17.2425ZM3.6582 8.46885C3.6582 8.32603 3.7373 8.19859 3.86511 8.13487L12.1239 4.03623C12.2601 3.96885 12.4084 3.93516 12.5568 3.93516C12.7128 3.93516 12.8688 3.97251 13.0101 4.04649L20.7811 8.11875C20.9078 8.1854 20.9866 8.31504 20.9866 8.45786C20.9866 8.6688 20.8145 8.84092 20.6031 8.84092H4.03101C3.82556 8.84092 3.6582 8.67393 3.6582 8.46885ZM11.5724 10.3409V17.2425H6.3092V10.3409H11.5724Z" fill="#26364d"/>
</svg>
