<svg width="25" height="25" viewBox="0 0 25 25" fill="none" xmlns="http://www.w3.org/2000/svg">
<g clip-path="url(#clip0_14742_5807)">
<path d="M22.4918 6.82477L22.4913 6.8019C22.48 6.20356 22.4693 5.63842 22.4693 5.09469C22.4693 4.27101 21.7992 3.60092 20.9755 3.60092C17.7885 3.60092 15.3697 2.69227 13.3632 0.741388C12.7793 0.173475 11.8644 0.173428 11.2805 0.741341C9.27414 2.69227 6.85555 3.60092 3.66901 3.60092C2.84534 3.60092 2.17525 4.27101 2.17525 5.09469C2.17525 5.65004 2.16433 6.22081 2.15275 6.82524C2.09885 9.64681 2.03178 13.1583 3.21021 16.3458C3.85818 18.0985 4.83929 19.6217 6.12632 20.873C7.59215 22.2981 9.51205 23.4286 11.8325 24.233C11.9903 24.2877 12.1549 24.3154 12.3218 24.3154C12.4889 24.3154 12.6536 24.2876 12.811 24.233C15.1318 23.4286 17.0518 22.2981 18.5178 20.8729C19.8049 19.6215 20.7862 18.0983 21.4342 16.3456C22.6127 13.1579 22.5457 9.64634 22.4918 6.82477ZM20.1153 15.858C18.8725 19.2193 16.3326 21.5242 12.3501 22.9046C12.3319 22.9109 12.3119 22.9111 12.2931 22.9045C8.31121 21.5243 5.77156 19.2195 4.52897 15.8583C3.44264 12.9198 3.50418 9.69621 3.5585 6.85209C3.57021 6.24087 3.58127 5.66354 3.58127 5.09469C3.58127 5.04637 3.6206 5.007 3.66897 5.007C7.24504 5.007 9.97512 3.97189 12.2607 1.74936C12.2778 1.73272 12.2998 1.72437 12.3218 1.72437C12.3437 1.72437 12.3658 1.73276 12.3829 1.7494C14.6686 3.97189 17.399 5.007 20.9754 5.007C21.0238 5.007 21.0631 5.04637 21.0631 5.09469C21.0631 5.65177 21.074 6.22339 21.0855 6.82856L21.0859 6.85153V6.85158C21.1403 9.69574 21.2018 12.9193 20.1153 15.858Z" fill="#26364d"/>
<path d="M16.6907 9.9762H14.4285V7.71378C14.4285 7.32552 14.1137 7.01074 13.7255 7.01074H10.9196C10.5313 7.01074 10.2166 7.32552 10.2166 7.71378V9.9762H7.95401C7.56575 9.9762 7.25098 10.291 7.25098 10.6792V13.4851C7.25098 13.8734 7.56575 14.1881 7.95401 14.1881H10.2166V16.4505C10.2166 16.8388 10.5313 17.1536 10.9196 17.1536H13.7255C14.1137 17.1536 14.4285 16.8388 14.4285 16.4505V14.1881H16.6907C17.079 14.1881 17.3937 13.8734 17.3937 13.4851V10.6792C17.3937 10.2909 17.0789 9.9762 16.6907 9.9762ZM15.9876 12.7821H13.7255C13.3372 12.7821 13.0224 13.0968 13.0224 13.4851V15.7475H11.6226V13.4851C11.6226 13.0968 11.3079 12.7821 10.9196 12.7821H8.65705V11.3823H10.9196C11.3079 11.3823 11.6226 11.0675 11.6226 10.6792V8.41682H13.0224V10.6792C13.0224 11.0675 13.3372 11.3823 13.7255 11.3823H15.9877V12.7821H15.9876Z" fill="#26364d"/>
</g>
<defs>
<clipPath id="clip0_14742_5807">
<rect width="24" height="24" fill="white" transform="translate(0.322266 0.31543)"/>
</clipPath>
</defs>
</svg>
