<svg width="25" height="25" viewBox="0 0 25 25" fill="none" xmlns="http://www.w3.org/2000/svg">
<g clip-path="url(#clip0_14742_5786)">
<path d="M24.1583 14.6314L20.6005 7.52042H22.6864C23.0146 7.52042 23.3192 7.29542 23.3755 6.97199C23.4411 6.55949 23.1271 6.19855 22.7239 6.19855H17.5536C16.5177 6.19855 15.5192 5.93136 14.6239 5.4298C14.7271 5.15792 14.7833 4.8673 14.7833 4.56261C14.7833 3.43292 14.0192 2.48136 12.9833 2.19074V1.10792C12.9833 0.779798 12.7583 0.475111 12.4349 0.418861C12.0224 0.353236 11.6614 0.667298 11.6614 1.07042V2.19074C10.6255 2.48136 9.85674 3.43292 9.85674 4.56261C9.85674 4.8673 9.91299 5.15792 10.0161 5.4298C9.1208 5.93136 8.12236 6.19855 7.08643 6.19855H1.96299C1.63486 6.19855 1.33018 6.42355 1.27393 6.74699C1.2083 7.15949 1.52236 7.52042 1.92549 7.52042H4.04424L0.486426 14.6314C0.434863 14.7345 0.411426 14.847 0.416113 14.9642C0.434863 17.5376 2.53486 19.6282 5.11299 19.6282C7.69111 19.6282 9.79111 17.5376 9.80986 14.9642C9.81924 14.8564 9.7958 14.7439 9.73955 14.6314L6.18174 7.52042H7.08643C8.40361 7.52042 9.67861 7.16886 10.8083 6.50324C11.0567 6.70011 11.3474 6.84542 11.6614 6.93449V20.1439C9.93174 20.4017 8.47393 21.6579 7.9958 23.3829C7.87861 23.8048 8.19736 24.222 8.6333 24.222H16.0161C16.4521 24.222 16.7708 23.8048 16.6536 23.3829C16.1755 21.6626 14.7177 20.4064 12.988 20.1439V6.9298C13.3021 6.84074 13.588 6.69542 13.8364 6.49855C14.9614 7.16417 16.2364 7.51574 17.5583 7.51574H18.463L14.9005 14.6314C14.8489 14.7251 14.8255 14.8376 14.8302 14.9642C14.8489 17.5376 16.9489 19.6282 19.5271 19.6282C22.1052 19.6282 24.2052 17.5376 24.2239 14.9642C24.2333 14.8423 24.2099 14.7298 24.1583 14.6314ZM5.11768 18.3017C3.48174 18.3017 2.11299 17.1345 1.80361 15.5876H8.42705C8.11768 17.1345 6.75361 18.3017 5.11768 18.3017ZM8.08486 14.2657H2.15049L5.11768 8.33605L8.08486 14.2657ZM15.0036 22.9001H9.64111C10.213 21.9954 11.2161 21.4189 12.3224 21.4189C13.4286 21.4189 14.4317 21.9954 15.0036 22.9001ZM12.3224 5.70167C11.6942 5.70167 11.1833 5.19074 11.1833 4.56261C11.1833 3.93449 11.6942 3.42355 12.3224 3.42355H12.3271H12.3317C12.9599 3.42355 13.4661 3.93449 13.4661 4.56261C13.4614 5.19074 12.9505 5.70167 12.3224 5.70167ZM19.5271 8.33605L22.4942 14.2657H16.5599L19.5271 8.33605ZM19.5271 18.3017C17.8911 18.3017 16.5224 17.1345 16.2177 15.5876H22.8411C22.5317 17.1345 21.163 18.3017 19.5271 18.3017Z" fill="#26364d"/>
</g>
<defs>
<clipPath id="clip0_14742_5786">
<rect width="24" height="24" fill="white" transform="translate(0.322266 0.31543)"/>
</clipPath>
</defs>
</svg>
