<svg width="19" height="19" viewBox="0 0 19 19" fill="none" xmlns="http://www.w3.org/2000/svg">
<path d="M9.44556 16.9316C13.5877 16.9316 16.9456 13.5738 16.9456 9.43164C16.9456 5.28951 13.5877 1.93164 9.44556 1.93164C5.30342 1.93164 1.94556 5.28951 1.94556 9.43164C1.94556 13.5738 5.30342 16.9316 9.44556 16.9316Z" stroke="#090F1D" stroke-linecap="round" stroke-linejoin="round"/>
<path d="M6.44556 2.68164H7.19556C5.73306 7.06164 5.73306 11.8016 7.19556 16.1816H6.44556" stroke="#090F1D" stroke-linecap="round" stroke-linejoin="round"/>
<path d="M11.6956 2.68164C13.1581 7.06164 13.1581 11.8016 11.6956 16.1816" stroke="#090F1D" stroke-linecap="round" stroke-linejoin="round"/>
<path d="M2.69556 12.4316V11.6816C7.07556 13.1441 11.8156 13.1441 16.1956 11.6816V12.4316" stroke="#090F1D" stroke-linecap="round" stroke-linejoin="round"/>
<path d="M2.69556 7.18184C7.07556 5.71934 11.8156 5.71934 16.1956 7.18184" stroke="#090F1D" stroke-linecap="round" stroke-linejoin="round"/>
</svg>
