<svg width="19" height="19" viewBox="0 0 19 19" fill="none" xmlns="http://www.w3.org/2000/svg">
<path d="M16.9231 14.1791C16.9231 14.4491 16.8631 14.7266 16.7356 14.9966C16.6081 15.2666 16.4431 15.5216 16.2256 15.7616C15.8581 16.1666 15.4531 16.4591 14.9956 16.6466C14.5456 16.8341 14.0581 16.9316 13.5331 16.9316C12.7681 16.9316 11.9506 16.7516 11.0881 16.3841C10.2256 16.0166 9.36306 15.5216 8.50806 14.8991C7.64556 14.2691 6.82806 13.5716 6.04806 12.7991C5.27556 12.0191 4.57806 11.2016 3.95556 10.3466C3.34056 9.49164 2.84556 8.63664 2.48556 7.78914C2.12556 6.93414 1.94556 6.11664 1.94556 5.33664C1.94556 4.82664 2.03556 4.33914 2.21556 3.88914C2.39556 3.43164 2.68056 3.01164 3.07806 2.63664C3.55806 2.16414 4.08306 1.93164 4.63806 1.93164C4.84806 1.93164 5.05806 1.97664 5.24556 2.06664C5.44056 2.15664 5.61306 2.29164 5.74806 2.48664L7.48806 4.93914C7.62306 5.12664 7.72056 5.29914 7.78806 5.46414C7.85556 5.62164 7.89306 5.77914 7.89306 5.92164C7.89306 6.10164 7.84056 6.28164 7.73556 6.45414C7.63806 6.62664 7.49556 6.80664 7.31556 6.98664L6.74556 7.57914C6.66306 7.66164 6.62556 7.75914 6.62556 7.87914C6.62556 7.93914 6.63306 7.99164 6.64806 8.05164C6.67056 8.11164 6.69306 8.15664 6.70806 8.20164C6.84306 8.44914 7.07556 8.77164 7.40556 9.16164C7.74306 9.55164 8.10306 9.94914 8.49306 10.3466C8.89806 10.7441 9.28806 11.1116 9.68556 11.4491C10.0756 11.7791 10.3981 12.0041 10.6531 12.1391C10.6906 12.1541 10.7356 12.1766 10.7881 12.1991C10.8481 12.2216 10.9081 12.2291 10.9756 12.2291C11.1031 12.2291 11.2006 12.1841 11.2831 12.1016L11.8531 11.5391C12.0406 11.3516 12.2206 11.2091 12.3931 11.1191C12.5656 11.0141 12.7381 10.9616 12.9256 10.9616C13.0681 10.9616 13.2181 10.9916 13.3831 11.0591C13.5481 11.1266 13.7206 11.2241 13.9081 11.3516L16.3906 13.1141C16.5856 13.2491 16.7206 13.4066 16.8031 13.5941C16.8781 13.7816 16.9231 13.9691 16.9231 14.1791Z" stroke="#090F1D" stroke-width="1.5" stroke-miterlimit="10"/>
<path d="M14.3206 7.18164C14.3206 6.73164 13.9681 6.04164 13.4431 5.47914C12.9631 4.96164 12.3256 4.55664 11.6956 4.55664" stroke="#090F1D" stroke-width="1.5" stroke-linecap="round" stroke-linejoin="round"/>
<path d="M16.9456 7.18164C16.9456 4.27914 14.5981 1.93164 11.6956 1.93164" stroke="#090F1D" stroke-width="1.5" stroke-linecap="round" stroke-linejoin="round"/>
</svg>
