<svg width="25" height="25" viewBox="0 0 25 25" fill="none" xmlns="http://www.w3.org/2000/svg">
<path d="M12.4723 8.30321C12.2122 8.10951 11.8966 8.00488 11.5723 8.00488C11.248 8.00488 10.9323 8.10951 10.6723 8.30321L8.42227 9.98996C8.2364 10.1301 8.08551 10.3113 7.98141 10.5195C7.87732 10.7277 7.82284 10.9572 7.82227 11.19V15.315C7.82227 15.7128 7.9803 16.0943 8.26161 16.3756C8.54291 16.6569 8.92444 16.815 9.32227 16.815H13.8223C14.2201 16.815 14.6016 16.6569 14.8829 16.3756C15.1642 16.0943 15.3223 15.7128 15.3223 15.315V11.19C15.3218 10.9572 15.2674 10.7277 15.1633 10.5195C15.0592 10.3112 14.9082 10.13 14.7223 9.98996L12.4723 8.30321ZM12.3223 15.315V13.815C12.3223 13.616 12.2432 13.4253 12.1026 13.2846C11.9619 13.144 11.7712 13.065 11.5723 13.065C11.3734 13.065 11.1826 13.144 11.0419 13.2846C10.9013 13.4253 10.8223 13.616 10.8223 13.815V15.315H9.32227V11.19L11.5723 9.50246L13.8223 11.19V15.315H12.3223Z" fill="#26364d"/>
<path d="M22.6145 10.2969C22.5465 10.2257 22.4651 10.1685 22.3749 10.1288C22.2848 10.089 22.1877 10.0674 22.0893 10.0652C21.9908 10.063 21.8928 10.0802 21.801 10.1158C21.7092 10.1514 21.6252 10.2048 21.554 10.2729L21.1685 10.6419C20.7758 8.4091 19.6162 6.38339 17.8896 4.91413C16.1631 3.44487 13.978 2.6242 11.7112 2.59366C9.44431 2.56312 7.23786 3.32462 5.4724 4.74683C3.70694 6.16904 2.49315 8.16278 2.04039 10.3842C1.58763 12.6056 1.92428 14.9153 2.99229 16.915C4.0603 18.9148 5.7927 20.4791 7.89067 21.3382C9.98865 22.1973 12.3207 22.2973 14.4845 21.6209C16.6483 20.9446 18.5083 19.5343 19.7435 17.6334C19.8024 17.551 19.844 17.4576 19.8658 17.3588C19.8876 17.26 19.8892 17.1577 19.8705 17.0583C19.8517 16.9588 19.8131 16.8642 19.7568 16.7801C19.7005 16.6959 19.6278 16.6241 19.543 16.5688C19.4582 16.5136 19.3631 16.476 19.2634 16.4585C19.1637 16.441 19.0615 16.4438 18.9629 16.4668C18.8644 16.4898 18.7715 16.5325 18.6899 16.5924C18.6082 16.6523 18.5396 16.728 18.488 16.8151C17.4577 18.4068 15.9113 19.5957 14.1082 20.1822C12.3052 20.7687 10.3552 20.7171 8.58567 20.0361C6.81614 19.3551 5.33471 18.0861 4.39002 16.4421C3.44534 14.7982 3.0949 12.8793 3.39752 11.0075C3.70014 9.13579 4.6374 7.4251 6.05199 6.16258C7.46659 4.90007 9.27242 4.16257 11.1664 4.07387C13.0604 3.98517 14.9272 4.55067 16.4536 5.67546C17.98 6.80024 19.0731 8.41585 19.5493 10.2511C19.4102 10.1311 19.2316 10.0668 19.0479 10.0708C18.8642 10.0749 18.6885 10.1468 18.5548 10.2729C18.411 10.4101 18.3275 10.5988 18.3227 10.7975C18.318 10.9962 18.3922 11.1887 18.5293 11.3326L19.9618 12.8326C20.0297 12.904 20.1111 12.9612 20.2012 13.0011C20.2912 13.041 20.3883 13.0628 20.4868 13.0651H20.5033C20.6966 13.0654 20.8825 12.9909 21.0223 12.8574L22.5898 11.3574C22.6611 11.2894 22.7182 11.208 22.758 11.1179C22.7979 11.0278 22.8195 10.9307 22.8218 10.8323C22.8241 10.7338 22.807 10.6358 22.7714 10.5439C22.7359 10.4521 22.6826 10.3681 22.6145 10.2969Z" fill="#26364d"/>
</svg>
