<svg width="25" height="25" viewBox="0 0 25 25" fill="none" xmlns="http://www.w3.org/2000/svg">
<path d="M6.44424 17.0029H5.54199C5.12874 17.0029 4.79199 16.6662 4.79199 16.2529V13.2529C4.79199 12.8389 4.45599 12.5029 4.04199 12.5029C3.62799 12.5029 3.29199 12.8389 3.29199 13.2529V16.2529C3.29199 17.4934 4.30149 18.5029 5.54199 18.5029H6.44424C6.76974 19.5829 7.76199 20.3779 8.94699 20.3779C10.132 20.3779 11.1242 19.5829 11.4497 18.5029H14.572H16.1942C16.5197 19.5829 17.512 20.3779 18.697 20.3779C19.882 20.3779 20.8742 19.5829 21.1997 18.5029H22.822C23.236 18.5029 23.572 18.1669 23.572 17.7529V14.0029C23.572 13.4457 23.3387 12.6762 23.0297 12.2127L20.8615 8.96068C20.491 8.40568 19.738 8.00293 19.0712 8.00293H16.9682V6.50293C16.9682 5.26243 15.9587 4.25293 14.7182 4.25293H12.322C11.908 4.25293 11.572 4.58893 11.572 5.00293C11.572 5.41693 11.908 5.75293 12.322 5.75293H14.719C15.1322 5.75293 15.469 6.08968 15.469 6.50293V17.0029H14.572H11.4497C11.1242 15.9229 10.132 15.1279 8.94699 15.1279C7.76199 15.1279 6.76974 15.9229 6.44424 17.0029ZM18.697 18.8779C18.0767 18.8779 17.572 18.3732 17.572 17.7529C17.572 17.1327 18.0767 16.6279 18.697 16.6279C19.3172 16.6279 19.822 17.1327 19.822 17.7529C19.822 18.3732 19.3172 18.8779 18.697 18.8779ZM16.969 9.50293H19.072C19.2347 9.50293 19.5235 9.65743 19.6142 9.79318L20.9207 11.7529H16.969V9.50293ZM16.969 13.2529H21.8897C21.9917 13.4907 22.072 13.8057 22.072 14.0029V17.0029H21.1997C20.8742 15.9229 19.882 15.1279 18.697 15.1279C18.0325 15.1279 17.4317 15.3837 16.969 15.7924V13.2529ZM10.072 17.7529C10.072 18.3732 9.56724 18.8779 8.94699 18.8779C8.32674 18.8779 7.82199 18.3732 7.82199 17.7529C7.82199 17.1327 8.32674 16.6279 8.94699 16.6279C9.56724 16.6279 10.072 17.1327 10.072 17.7529Z" fill="#26364d"/>
<path d="M10.822 5.00293C10.822 4.58893 10.486 4.25293 10.072 4.25293H1.82202C1.40802 4.25293 1.07202 4.58893 1.07202 5.00293C1.07202 5.41693 1.40802 5.75293 1.82202 5.75293H10.072C10.486 5.75293 10.822 5.41693 10.822 5.00293Z" fill="#26364d"/>
<path d="M8.57202 8.75293C8.98602 8.75293 9.32202 8.41693 9.32202 8.00293C9.32202 7.58893 8.98602 7.25293 8.57202 7.25293H3.32202C2.90802 7.25293 2.57202 7.58893 2.57202 8.00293C2.57202 8.41693 2.90802 8.75293 3.32202 8.75293H8.57202Z" fill="#26364d"/>
<path d="M7.07202 11.7529C7.48602 11.7529 7.82202 11.4169 7.82202 11.0029C7.82202 10.5889 7.48602 10.2529 7.07202 10.2529H4.82202C4.40802 10.2529 4.07202 10.5889 4.07202 11.0029C4.07202 11.4169 4.40802 11.7529 4.82202 11.7529H7.07202Z" fill="#26364d"/>
</svg>
