<svg width="21" height="21" viewBox="0 0 21 21" fill="none" xmlns="http://www.w3.org/2000/svg">
<g clip-path="url(#clip0_14742_4413)">
<path d="M19.7726 4.89677C19.735 4.89547 18.9626 4.8694 17.8287 4.89445V2.56967C17.8287 2.22696 17.5361 1.95516 17.1915 1.98347C14.9306 2.17222 12.0542 3.17124 10.3403 4.9934C8.62645 3.17124 5.75002 2.17222 3.48916 1.98347C3.14523 1.95547 2.85198 2.22606 2.85198 2.56967V4.95732C2.20774 4.933 1.59837 4.91587 0.946018 4.89669C0.616999 4.8863 0.340332 5.15132 0.340332 5.48465V16.1972C0.340332 16.5068 0.580214 16.7634 0.889077 16.7841C3.229 16.9416 7.14857 16.9593 10.1096 18.2222C10.3735 18.3349 10.6104 18.2055 10.5712 18.2222C13.5321 16.9594 17.451 16.9417 19.7917 16.7841C20.1005 16.7634 20.3404 16.5068 20.3404 16.1972V5.48465C20.3403 5.16775 20.0893 4.90783 19.7726 4.89677ZM16.6522 3.23128V13.3132C14.9559 13.6926 12.8061 14.5023 10.9286 16.2192C10.9286 15.7014 10.9286 6.38806 10.9286 6.10798C12.2156 4.5021 14.6531 3.53418 16.6522 3.23128ZM4.02845 3.23128C6.02755 3.53418 8.46504 4.5021 9.7521 6.10798V16.2192C7.87453 14.5023 5.72476 13.6926 4.02845 13.3132V3.23128ZM1.5168 15.6437V6.09045C1.93802 6.10292 2.38853 6.117 2.85198 6.13469V13.7926C2.85198 14.0756 3.05355 14.3185 3.3317 14.3707C4.67488 14.6228 6.42155 15.1701 8.04947 16.3483C5.72692 15.8274 3.29586 15.7437 1.5168 15.6437ZM19.1639 15.6437C17.3877 15.7436 14.9546 15.8272 12.6312 16.3483C14.2591 15.1701 16.0058 14.6228 17.3489 14.3707C17.6271 14.3185 17.8286 14.0756 17.8286 13.7926V6.07132C18.3701 6.0592 18.8312 6.05904 19.1638 6.06206V15.6437H19.1639Z" fill="#ffffff"/>
<path d="M8.22707 7.46251C7.77146 7.14509 6.98601 6.75549 6.14778 6.61384C5.82758 6.55949 5.5239 6.77553 5.46974 7.09584C5.41562 7.41615 5.63142 7.71972 5.95178 7.77384C6.59895 7.88321 7.21966 8.19447 7.55456 8.4278C7.82103 8.61345 8.1877 8.54804 8.37346 8.28141C8.55915 8.01486 8.49362 7.64819 8.22707 7.46251Z" fill="#ffffff"/>
<path d="M8.16817 10.7752C7.74899 10.5193 6.92911 10.0701 6.14778 9.93804C5.82758 9.88377 5.5239 10.0997 5.46974 10.42C5.41562 10.7404 5.63142 11.0439 5.95178 11.098C6.56044 11.2009 7.2757 11.6087 7.55495 11.7793C7.83256 11.9487 8.19444 11.8608 8.36358 11.5838C8.53292 11.3066 8.44542 10.9446 8.16817 10.7752Z" fill="#ffffff"/>
<path d="M13.1262 8.42783C13.4611 8.1945 14.0818 7.88324 14.729 7.77387C15.0493 7.71975 15.2651 7.41618 15.211 7.09587C15.1569 6.77552 14.8532 6.5594 14.533 6.61387C13.6947 6.75548 12.9093 7.14513 12.4537 7.46254C12.1871 7.64822 12.1216 8.01489 12.3073 8.28144C12.4931 8.54815 12.8599 8.6134 13.1262 8.42783Z" fill="#ffffff"/>
<path d="M14.5331 9.93809C13.7517 10.0701 12.9319 10.5193 12.5127 10.7753C12.2354 10.9446 12.1479 11.3066 12.3173 11.5839C12.4866 11.8611 12.8486 11.9486 13.1259 11.7793C13.4051 11.6087 14.1204 11.201 14.7291 11.0981C15.0494 11.044 15.2652 10.7404 15.2111 10.4201C15.157 10.0997 14.8533 9.88362 14.5331 9.93809Z" fill="#ffffff"/>
</g>
<defs>
<clipPath id="clip0_14742_4413">
<rect width="20" height="20" fill="white" transform="translate(0.340332 0.125)"/>
</clipPath>
</defs>
</svg>
