<svg width="123" height="116" viewBox="0 0 123 116" fill="none" xmlns="http://www.w3.org/2000/svg">
<g clip-path="url(#clip0_17058_2184)">
<path d="M29.03 100.46L49.82 75.2503L59.33 87.3803L41 110.69C33.98 119.61 20.99 110.21 29.03 100.46ZM53.31 43.0503C55.29 36.5903 54.38 31.0703 46.94 22.8703L28.76 1.00031C26.18 -2.02969 20.1 2.42031 22.64 6.09031L37.18 24.0003C39.93 27.3403 34.82 31.7603 31.98 28.3203L16.94 9.80031C14.14 6.59031 8.34999 10.8303 11.28 14.5003C15.52 19.6003 22.08 27.9303 26.32 33.0303C29.26 36.0203 24.79 40.4503 21.89 36.7203L6.95999 18.3203C4.76999 15.9403 1.18999 17.4203 0.239986 20.2003C-0.780014 23.1703 1.72999 25.3403 3.43999 27.5403L20.1 49.0603C25.27 55.0503 31.05 58.6003 37.77 56.5903C38.8 56.2803 40.06 55.6503 41.41 54.8203L86.17 112.6C88.58 115.71 93.23 116.04 96.25 113.53L96.94 112.96C100.34 110.13 100.89 104.96 97.98 101.62L50.58 47.1603C51.96 45.6203 52.97 44.1603 53.31 43.0503ZM65.98 55.6503L73.35 46.7103C63.87 23.2103 99 -8.10969 116.03 6.29031C136.72 23.8003 105.97 66.0003 84.36 55.5703L75.63 66.6603L65.98 55.6503Z" fill="white"/>
</g>
<defs>
<clipPath id="clip0_17058_2184">
<rect width="122.88" height="115.21" fill="white"/>
</clipPath>
</defs>
</svg>
