<svg width="25" height="25" viewBox="0 0 25 25" fill="none" xmlns="http://www.w3.org/2000/svg">
<g clip-path="url(#clip0_14742_5768)">
<path d="M7.39966 15.8779V19.6279C7.39966 20.0162 7.71447 20.3311 8.10278 20.3311H17.4778C17.8661 20.3311 18.1809 20.0162 18.1809 19.6279V15.8779C18.1809 15.4896 17.8661 15.1748 17.4778 15.1748H8.10278C7.71442 15.1748 7.39966 15.4896 7.39966 15.8779ZM8.80591 16.5811H16.7747V18.9248H8.80591V16.5811Z" fill="white"/>
<path d="M22.5858 9.83002C22.5247 9.78446 22.4576 9.74991 22.3874 9.72652C22.3955 9.63685 22.3997 9.54662 22.3997 9.45605C22.3997 8.86627 22.2268 8.29684 21.9145 7.81201C22.779 7.26943 23.3372 6.31126 23.3372 5.2373C23.3372 3.55726 21.9704 2.19043 20.2903 2.19043C20.1344 2.19043 19.9794 2.20262 19.8261 2.2268C19.3748 1.09604 18.2763 0.31543 17.0091 0.31543C15.7583 0.31543 14.6636 1.07359 14.2007 2.19043H14.1966C12.5766 2.19043 11.2483 3.46145 11.1554 5.05852C10.4631 5.16938 9.80574 5.44346 9.2385 5.85605L7.86666 3.47996C6.89743 1.80123 4.74305 1.22396 3.06422 2.19315C1.38544 3.16243 0.808177 5.31676 1.77746 6.99559L3.33601 9.69512C3.21427 9.70895 3.09615 9.75437 2.99461 9.83016C2.79554 9.9788 2.68969 10.2215 2.71618 10.4685C2.95041 12.6547 3.18858 14.9015 3.41893 17.0743C3.60863 18.8638 3.79833 20.6532 3.98804 22.4302C4.10279 23.5049 5.00447 24.3154 6.08551 24.3154H19.4945C20.5759 24.3154 21.4777 23.5045 21.5921 22.4292L22.8646 10.4679C22.8908 10.221 22.7849 9.97852 22.5858 9.83002ZM14.1966 3.59668C14.3085 3.59668 14.4253 3.6106 14.5538 3.6392C14.7409 3.68082 14.9371 3.64421 15.0968 3.5378C15.2564 3.43135 15.3656 3.26429 15.399 3.07538C15.5378 2.29102 16.2149 1.72168 17.0091 1.72168C17.8401 1.72168 18.5361 2.34976 18.6281 3.18268C18.6529 3.40651 18.7833 3.60498 18.979 3.71645C19.1747 3.82791 19.412 3.83888 19.6171 3.74598C19.8358 3.64693 20.0623 3.59668 20.2904 3.59668C21.195 3.59668 21.931 4.33266 21.931 5.2373C21.931 6.03245 21.3607 6.70965 20.575 6.8476C20.2951 6.89677 20.0722 7.10968 20.0103 7.38713C19.9485 7.66459 20.0597 7.95198 20.2923 8.11543C20.7314 8.42396 20.9935 8.92515 20.9935 9.4561C20.9935 9.69887 20.9377 9.93784 20.8318 10.1581C19.22 10.7414 17.5621 11.1446 15.8723 11.3655C15.9715 11.1572 16.0541 10.9413 16.12 10.72C17.9241 8.0701 18.1688 5.41027 18.1784 5.29693C18.2113 4.91002 17.9243 4.56966 17.5374 4.53676C17.1505 4.50451 16.8101 4.79087 16.7772 5.17782C16.7758 5.19484 16.6655 6.39193 16.0339 7.92301C15.487 6.43604 14.1681 5.31924 12.5656 5.0603C12.6543 4.23859 13.3518 3.59668 14.1966 3.59668ZM11.8529 6.40918C13.5329 6.40918 14.8997 7.77601 14.8997 9.45605C14.8997 10.2381 14.6096 10.9658 14.0793 11.5304C13.6513 11.5535 13.2216 11.5654 12.7904 11.5654C12.7048 11.5654 12.6194 11.5648 12.5339 11.5639L9.94749 7.08404C10.4856 6.65096 11.1577 6.40918 11.8529 6.40918ZM2.78457 4.69182C2.9304 4.1476 3.27943 3.69273 3.76735 3.41096C4.7746 2.82948 6.06722 3.17579 6.6488 4.18309L7.25185 5.2276L5.24865 5.34784C4.86099 5.37109 4.56563 5.70418 4.58888 6.09179C4.61129 6.4651 4.92099 6.75282 5.29008 6.75282C5.30429 6.75282 5.31854 6.7524 5.33288 6.75155L8.03794 6.58923L8.6581 7.66337L6.6549 7.7836C6.26729 7.80685 5.97193 8.13999 5.99518 8.52755C6.01758 8.90087 6.32733 9.18859 6.69638 9.18859C6.71058 9.18859 6.72483 9.18816 6.73918 9.18732L9.44419 9.02495L10.8661 11.4878C8.98496 11.3359 7.13888 10.9608 5.3469 10.3657L2.99532 6.29246C2.71355 5.80454 2.63874 5.23609 2.78457 4.69182ZM20.1937 22.2804C20.1556 22.6389 19.855 22.9092 19.4945 22.9092H6.08551C5.72513 22.9092 5.42457 22.639 5.38632 22.2809C5.19666 20.5043 5.00701 18.7152 4.81735 16.9261C4.62718 15.1322 4.43166 13.2879 4.23741 11.4686C6.98255 12.4665 9.85425 12.9717 12.7904 12.9717C15.7268 12.9717 18.5985 12.4665 21.3439 11.4684L20.1937 22.2804Z" fill="white"/>
</g>
<defs>
<clipPath id="clip0_14742_5768">
<rect width="24" height="24" fill="white" transform="translate(0.322266 0.31543)"/>
</clipPath>
</defs>
</svg>
