<svg width="23" height="23" viewBox="0 0 23 23" fill="none" xmlns="http://www.w3.org/2000/svg">
<path d="M11.4456 13.9208C9.49306 13.9208 7.89806 12.335 7.89806 10.3733C7.89806 8.41163 9.49306 6.83496 11.4456 6.83496C13.3981 6.83496 14.9931 8.42079 14.9931 10.3825C14.9931 12.3441 13.3981 13.9208 11.4456 13.9208ZM11.4456 8.20996C10.2539 8.20996 9.27306 9.18163 9.27306 10.3825C9.27306 11.5833 10.2447 12.555 11.4456 12.555C12.6464 12.555 13.6181 11.5833 13.6181 10.3825C13.6181 9.18163 12.6372 8.20996 11.4456 8.20996Z" fill="#61676F"/>
<path d="M11.4456 21.7946C10.0889 21.7946 8.72306 21.2813 7.65972 20.2638C4.95556 17.6605 1.96722 13.508 3.09472 8.56715C4.11222 4.08465 8.02639 2.07715 11.4456 2.07715C11.4456 2.07715 11.4456 2.07715 11.4547 2.07715C14.8739 2.07715 18.7881 4.08465 19.8056 8.57631C20.9239 13.5171 17.9356 17.6605 15.2314 20.2638C14.1681 21.2813 12.8022 21.7946 11.4456 21.7946ZM11.4456 3.45215C8.77806 3.45215 5.34972 4.87298 4.44222 8.86965C3.45222 13.1871 6.16556 16.9088 8.62222 19.2646C10.2081 20.7955 12.6922 20.7955 14.2781 19.2646C16.7256 16.9088 19.4389 13.1871 18.4672 8.86965C17.5506 4.87298 14.1131 3.45215 11.4456 3.45215Z" fill="#61676F"/>
</svg>
