<svg width="18" height="18" viewBox="0 0 18 18" fill="none" xmlns="http://www.w3.org/2000/svg">
<g clip-path="url(#clip0_14752_8261)">
<path d="M14.1293 16.4881C14.0484 16.4881 13.9711 16.467 13.8973 16.4213L12.3047 15.4229C12.1008 15.2963 12.0375 15.0256 12.1676 14.8217C12.2941 14.6178 12.5648 14.5545 12.7688 14.6846L14.0695 15.5002L15.4301 14.1396L14.625 12.86C14.5371 12.7193 14.5371 12.5436 14.6215 12.4029C14.9449 11.865 15.1875 11.2885 15.3422 10.6873C15.3844 10.5291 15.5074 10.4061 15.6656 10.3709L17.1316 10.0334V8.11035L15.6656 7.77285C15.5074 7.7377 15.3809 7.61465 15.3422 7.45645C15.1875 6.85527 14.9449 6.2752 14.6215 5.74082C14.5371 5.6002 14.5371 5.42441 14.625 5.28379L15.4266 4.00059L14.066 2.64004L12.7652 3.45566C12.6281 3.54004 12.4559 3.54355 12.3152 3.4627C11.7844 3.15332 11.2148 2.92129 10.6242 2.77363C10.466 2.73496 10.343 2.6084 10.3043 2.4502L9.95625 0.941992H8.0332L7.67812 2.48184C7.64297 2.64004 7.52344 2.76309 7.36523 2.80527C6.79219 2.95996 6.24375 3.19199 5.73047 3.49785C5.58984 3.58223 5.41406 3.57871 5.27695 3.49434L3.92344 2.64707L2.56289 4.00762L3.43477 5.37871C3.51914 5.51582 3.52266 5.68809 3.4418 5.82871C3.14648 6.33496 2.925 6.87637 2.77734 7.43535C2.73516 7.59355 2.61211 7.71309 2.45391 7.74824L0.871875 8.11035V10.0334L2.45391 10.3955C2.61211 10.4307 2.73867 10.5537 2.77734 10.7084C2.92148 11.2674 3.14648 11.8053 3.4418 12.315C3.52266 12.4557 3.51914 12.6279 3.43477 12.765L2.57344 14.1396L3.93398 15.5002L5.2875 14.6529C5.49141 14.5264 5.75859 14.5861 5.88867 14.79C6.01523 14.9939 5.95547 15.2611 5.75156 15.3912L4.10273 16.4248C3.93047 16.5338 3.70547 16.5057 3.56484 16.365L1.71562 14.5158C1.57148 14.3717 1.54688 14.1502 1.65586 13.9779L2.56289 12.5295C2.33438 12.1006 2.14805 11.6541 2.01094 11.1936L0.3375 10.8068C0.140625 10.7611 0 10.5854 0 10.3814V7.76582C0 7.56191 0.140625 7.38613 0.3375 7.34043L2.00742 6.95723C2.14453 6.49668 2.33086 6.0502 2.55938 5.62129L1.65234 4.17285C1.54336 4.00059 1.57148 3.77559 1.71211 3.63496L3.56133 1.78574C3.70547 1.6416 3.92695 1.61699 4.09922 1.72598L5.52656 2.61895C5.9625 2.37988 6.41953 2.18652 6.89414 2.04238L7.2668 0.414648C7.3125 0.217773 7.48828 0.0771484 7.69219 0.0771484H10.3078C10.5117 0.0771484 10.6875 0.217773 10.7332 0.414648L11.0988 2.00371C11.591 2.14785 12.0691 2.34121 12.5227 2.5873L13.9008 1.72246C14.073 1.61348 14.298 1.6416 14.4387 1.78223L16.2879 3.63145C16.432 3.77559 16.4566 3.99707 16.3477 4.16934L15.5004 5.52285C15.757 5.98691 15.9609 6.47559 16.1121 6.98184L17.6625 7.33691C17.8594 7.38262 18 7.5584 18 7.7623V10.3779C18 10.5818 17.8594 10.7576 17.6625 10.8033L16.1121 11.1584C15.9609 11.6646 15.757 12.1533 15.5004 12.6174L16.3477 13.9709C16.4566 14.1432 16.4285 14.3682 16.2879 14.5088L14.4387 16.358C14.3543 16.4459 14.2418 16.4881 14.1293 16.4881Z" fill="white"/>
<path d="M10.3324 17.9261C10.0934 17.9261 9.89648 17.7328 9.89648 17.4902V12.7757C9.89648 12.3433 10.1285 11.9425 10.5047 11.7351C11.4785 11.1937 12.0867 10.1671 12.0867 9.05267C12.0867 8.02963 11.5875 7.09799 10.7684 6.53197V8.54642C10.7684 9.06674 10.3465 9.48861 9.82617 9.48861H8.20898C7.68867 9.48861 7.2668 9.06674 7.2668 8.54642V6.53197C6.45117 7.09799 5.94844 8.02963 5.94844 9.05267C5.94844 10.1671 6.55312 11.1937 7.53047 11.7351C7.90664 11.9425 8.13867 12.3398 8.13867 12.7757V17.4902C8.13867 17.7292 7.94531 17.9261 7.70273 17.9261C7.46016 17.9261 7.2668 17.7328 7.2668 17.4902V12.7757C7.2668 12.6597 7.20703 12.5507 7.10859 12.498C5.85703 11.8019 5.08008 10.4835 5.08008 9.05267C5.08008 7.439 6.04688 6.00814 7.54102 5.39994C7.67461 5.34369 7.8293 5.36127 7.94883 5.44213C8.06836 5.52299 8.14219 5.66009 8.14219 5.80424V8.54642C8.14219 8.58509 8.17383 8.61674 8.2125 8.61674H9.82969C9.86836 8.61674 9.9 8.58509 9.9 8.54642V5.80424C9.9 5.66009 9.97031 5.52299 10.0934 5.44213C10.2129 5.36127 10.3676 5.34369 10.5012 5.39994C11.9953 6.00463 12.9621 7.439 12.9621 9.05267C12.9621 10.4835 12.1852 11.8019 10.9336 12.498C10.8352 12.5507 10.7754 12.6597 10.7754 12.7757V17.4902C10.7684 17.7328 10.575 17.9261 10.3324 17.9261Z" fill="white"/>
</g>
<defs>
<clipPath id="clip0_14752_8261">
<rect width="18" height="18" fill="white"/>
</clipPath>
</defs>
</svg>
