<svg width="25" height="25" viewBox="0 0 25 25" fill="none" xmlns="http://www.w3.org/2000/svg">
<path d="M16.2513 3.11392C11.8599 1.2551 6.79467 2.73207 4.1136 6.60458L3.25802 5.96309C2.87868 5.67634 2.3208 5.94629 2.3208 6.4319V12.292C2.3208 12.7233 2.77281 13.0097 3.16895 12.8163L7.85702 10.4722C8.24418 10.2781 8.29536 9.74129 7.9461 9.47915L6.94597 8.72866C8.85324 5.83143 12.4336 5.31653 14.882 6.35181C20.1252 8.57278 20.1174 16.0679 14.8812 18.2838C11.5268 19.7039 7.72353 18.1136 6.34278 14.8529C5.96499 13.9579 4.93479 13.5394 4.03976 13.918C3.14317 14.2958 2.72632 15.3291 3.10449 16.2206C5.22428 21.2455 11.1292 23.6915 16.2502 21.5217C24.3531 18.1005 24.3417 6.53152 16.2513 3.11392Z" fill="white"/>
</svg>
