<svg width="50" height="51" viewBox="0 0 50 51" fill="none" xmlns="http://www.w3.org/2000/svg">
<g clip-path="url(#clip0_17032_2234)">
<path d="M44.4188 19.4998C44.4188 35.0492 26.865 49.45 26.865 49.45C25.8393 50.2915 24.1607 50.2915 23.135 49.45C23.135 49.45 5.58116 35.0492 5.58116 19.4998C5.58136 8.77512 14.2754 0.0810547 25 0.0810547C35.7247 0.0810547 44.4188 8.77512 44.4188 19.4998Z" fill="url(#paint0_linear_17032_2234)"/>
<path d="M25 29.27C19.6129 29.27 15.2304 24.8872 15.2304 19.5003C15.2304 14.1134 19.6131 9.73047 25 9.73047C30.387 9.73047 34.7697 14.1132 34.7697 19.5001C34.7697 24.887 30.3872 29.27 25 29.27Z" fill="#FFE1D6"/>
<circle cx="25" cy="19" r="13.5" fill="white"/>
<g clip-path="url(#clip1_17032_2234)">
<path d="M31.199 18.1592L29.1945 16.9568C28.3064 16.424 27.5561 15.6721 27.0243 14.7815L25.8244 12.7729C25.4743 12.1864 24.5264 12.1864 24.1756 12.7729L22.9757 14.7815C22.4439 15.6714 21.6936 16.4233 20.8049 16.9561L18.8004 18.1585C18.508 18.3349 18.3333 18.6439 18.3333 18.9856C18.3333 19.3274 18.508 19.6363 18.8004 19.8121L20.8049 21.0145C21.6936 21.5473 22.4439 22.2998 22.9757 23.1891L24.1756 25.1977C24.3503 25.4913 24.6586 25.6663 24.9997 25.6663C25.3407 25.6663 25.649 25.4913 25.8244 25.1977L27.0243 23.1891C27.5554 22.2998 28.3057 21.5473 29.1952 21.0145L31.1997 19.8121C31.492 19.6363 31.6667 19.3274 31.6667 18.9856C31.6667 18.6439 31.4913 18.3349 31.199 18.1592ZM28.5507 19.9362C27.4851 20.5751 26.5852 21.4769 25.9483 22.5439L24.9997 24.1334L24.051 22.5446C23.4142 21.4776 22.5142 20.5758 21.4487 19.9369L19.8632 18.9856L21.4487 18.035C22.5142 17.3962 23.4142 16.4951 24.051 15.4273L24.9997 13.8386L25.9483 15.4273C26.5859 16.4951 27.4851 17.3969 28.5507 18.035L30.1362 18.9856L28.5507 19.9362Z" fill="#AC3984"/>
<path d="M25 11.685C25.3106 11.685 25.5625 11.4331 25.5625 11.1225V10.25C25.5625 9.93937 25.3106 9.6875 25 9.6875C24.6894 9.6875 24.4375 9.93937 24.4375 10.25V11.1225C24.4375 11.4331 24.6894 11.685 25 11.685Z" fill="#AC3984"/>
<path d="M25 26.3154C24.6894 26.3154 24.4375 26.5673 24.4375 26.8779V27.7504C24.4375 28.0611 24.6894 28.3129 25 28.3129C25.3106 28.3129 25.5625 28.0611 25.5625 27.7504V26.8779C25.5625 26.5673 25.3106 26.3154 25 26.3154Z" fill="#AC3984"/>
<path d="M33.75 18.4375H32.8775C32.5669 18.4375 32.315 18.6894 32.315 19C32.315 19.3106 32.5669 19.5625 32.8775 19.5625H33.75C34.0606 19.5625 34.3125 19.3106 34.3125 19C34.3125 18.6894 34.0606 18.4375 33.75 18.4375Z" fill="#AC3984"/>
<path d="M17.1225 18.4375H16.25C15.9394 18.4375 15.6875 18.6894 15.6875 19C15.6875 19.3106 15.9394 19.5625 16.25 19.5625H17.1225C17.4331 19.5625 17.685 19.3106 17.685 19C17.685 18.6894 17.4331 18.4375 17.1225 18.4375Z" fill="#AC3984"/>
<path d="M20.3294 15.1249C20.4394 15.2349 20.5831 15.2899 20.7269 15.2899C20.8706 15.2899 21.015 15.2349 21.125 15.1249C21.345 14.9055 21.345 14.5493 21.125 14.3299L19.9738 13.1787C19.7538 12.9587 19.3981 12.9587 19.1788 13.1787C18.9588 13.398 18.9588 13.7543 19.1788 13.9737L20.3294 15.1249Z" fill="#AC3984"/>
<path d="M29.6706 22.874C29.4506 22.654 29.095 22.654 28.8756 22.874C28.6563 23.094 28.6556 23.4502 28.8756 23.6696L30.0269 24.8209C30.1369 24.9309 30.2806 24.9859 30.4244 24.9859C30.5681 24.9859 30.7119 24.9309 30.8219 24.8209C31.0419 24.6009 31.0419 24.2446 30.8219 24.0252L29.6706 22.874Z" fill="#AC3984"/>
<path d="M30.0263 13.1788L28.875 14.3294C28.655 14.5488 28.655 14.905 28.875 15.1244C28.985 15.2344 29.1288 15.2894 29.2725 15.2894C29.4163 15.2894 29.56 15.2344 29.67 15.1244L30.8213 13.9731C31.0413 13.7538 31.0413 13.3975 30.8213 13.1781C30.6019 12.9588 30.2463 12.9588 30.0263 13.1788Z" fill="#AC3984"/>
<path d="M20.3294 22.8742L19.1781 24.0254C18.9581 24.2454 18.9581 24.6017 19.1781 24.8211C19.2881 24.9311 19.4319 24.9861 19.5756 24.9861C19.7194 24.9861 19.8631 24.9311 19.9731 24.8211L21.125 23.6704C21.345 23.4504 21.345 23.0942 21.125 22.8748C20.905 22.6554 20.5494 22.6548 20.3294 22.8742Z" fill="#AC3984"/>
</g>
</g>
<defs>
<linearGradient id="paint0_linear_17032_2234" x1="25" y1="0.0810547" x2="25" y2="50.0811" gradientUnits="userSpaceOnUse">
<stop stop-color="#DD81FF"/>
<stop offset="1" stop-color="#FF0929"/>
</linearGradient>
<clipPath id="clip0_17032_2234">
<rect width="50" height="50" fill="white" transform="translate(0 0.0810547)"/>
</clipPath>
<clipPath id="clip1_17032_2234">
<rect width="20" height="20" fill="white" transform="translate(15 9)"/>
</clipPath>
</defs>
</svg>
