<svg width="39" height="50" viewBox="0 0 39 50" fill="none" xmlns="http://www.w3.org/2000/svg">
<path d="M38.8377 19.4188C38.8377 34.9681 21.2838 49.3689 21.2838 49.3689C20.2581 50.2104 18.5795 50.2104 17.5538 49.3689C17.5538 49.3689 0 34.9681 0 19.4188C0.000195313 8.69406 8.69426 0 19.4189 0C30.1435 0 38.8377 8.69406 38.8377 19.4188Z" fill="url(#paint0_linear_17006_2267)"/>
<path d="M19.4189 29.1889C14.0318 29.1889 9.64923 24.8062 9.64923 19.4193C9.64923 14.0323 14.032 9.64941 19.4189 9.64941C24.8058 9.64941 29.1885 14.0321 29.1885 19.4191C29.1885 24.806 24.806 29.1889 19.4189 29.1889Z" fill="#FFE1D6"/>
<circle cx="19.4188" cy="18.9189" r="13.5" fill="white"/>
<path d="M29.75 18H27.71C27.35 14.19 24.31 11.14 20.5 10.79V8.75C20.5 8.34 20.16 8 19.75 8C19.34 8 19 8.34 19 8.75V10.79C15.19 11.15 12.14 14.19 11.79 18H9.75C9.34 18 9 18.34 9 18.75C9 19.16 9.34 19.5 9.75 19.5H11.79C12.15 23.31 15.19 26.36 19 26.71V28.75C19 29.16 19.34 29.5 19.75 29.5C20.16 29.5 20.5 29.16 20.5 28.75V26.71C24.31 26.35 27.36 23.31 27.71 19.5H29.75C30.16 19.5 30.5 19.16 30.5 18.75C30.5 18.34 30.16 18 29.75 18ZM19.75 21.87C18.03 21.87 16.63 20.47 16.63 18.75C16.63 17.03 18.03 15.63 19.75 15.63C21.47 15.63 22.87 17.03 22.87 18.75C22.87 20.47 21.47 21.87 19.75 21.87Z" fill="url(#paint1_linear_17006_2267)"/>
<defs>
<linearGradient id="paint0_linear_17006_2267" x1="19.4188" y1="0" x2="19.4188" y2="50.0001" gradientUnits="userSpaceOnUse">
<stop stop-color="#1500FF"/>
<stop offset="0.405" stop-color="#298EED"/>
</linearGradient>
<linearGradient id="paint1_linear_17006_2267" x1="19.75" y1="8" x2="19.75" y2="29.5" gradientUnits="userSpaceOnUse">
<stop stop-color="#0A0AFF"/>
<stop offset="1" stop-color="#78BCFD"/>
</linearGradient>
</defs>
</svg>
