<svg width="51" height="51" viewBox="0 0 51 51" fill="none" xmlns="http://www.w3.org/2000/svg">
<g clip-path="url(#clip0_14742_5878)">
<path d="M44.5388 20.0037C44.5388 35.5531 26.985 49.9539 26.985 49.9539C25.9593 50.7954 24.2807 50.7954 23.255 49.9539C23.255 49.9539 5.70117 35.5531 5.70117 20.0037C5.70137 9.27902 14.3954 0.584961 25.1201 0.584961C35.8447 0.584961 44.5388 9.27902 44.5388 20.0037Z" fill="url(#paint0_linear_14742_5878)"/>
<path d="M25.1202 29.7739C19.7331 29.7739 15.3506 25.3911 15.3506 20.0042C15.3506 14.6173 19.7333 10.2344 25.1202 10.2344C30.5072 10.2344 34.8899 14.6171 34.8899 20.004C34.8899 25.3909 30.5074 29.7739 25.1202 29.7739Z" fill="#FFE1D6"/>
<circle cx="25.1201" cy="19.5039" r="13.5" fill="white"/>
<g clip-path="url(#clip1_14742_5878)">
<path d="M34.5524 14.2757C34.5148 14.2744 33.7424 14.2483 32.6085 14.2734V11.9486C32.6085 11.6059 32.3158 11.3341 31.9713 11.3624C29.7104 11.5511 26.834 12.5501 25.1201 14.3723C23.4062 12.5501 20.5298 11.5511 18.2689 11.3624C17.925 11.3344 17.6318 11.605 17.6318 11.9486V14.3362C16.9875 14.3119 16.3782 14.2948 15.7258 14.2756C15.3968 14.2652 15.1201 14.5302 15.1201 14.8636V25.5761C15.1201 25.8857 15.36 26.1423 15.6689 26.163C18.0088 26.3205 21.9284 26.3382 24.8894 27.6011C25.1533 27.7138 25.3902 27.5844 25.3509 27.6011C28.3119 26.3383 32.2307 26.3206 34.5715 26.163C34.8803 26.1423 35.1202 25.8857 35.1202 25.5761V14.8636C35.1201 14.5467 34.8691 14.2867 34.5524 14.2757ZM31.432 12.6102V22.6921C29.7357 23.0715 27.5859 23.8812 25.7084 25.5981C25.7084 25.0803 25.7084 15.767 25.7084 15.4869C26.9954 13.881 29.4329 12.9131 31.432 12.6102ZM18.8082 12.6102C20.8073 12.9131 23.2448 13.881 24.5319 15.4869V25.5981C22.6543 23.8812 20.5045 23.0715 18.8082 22.6921V12.6102ZM16.2966 25.0226V15.4694C16.7178 15.4818 17.1683 15.4959 17.6318 15.5136V23.1715C17.6318 23.4545 17.8333 23.6974 18.1115 23.7496C19.4547 24.0018 21.2013 24.549 22.8293 25.7272C20.5067 25.2063 18.0756 25.1226 16.2966 25.0226ZM33.9436 25.0226C32.1675 25.1225 29.7344 25.2061 27.4109 25.7272C29.0389 24.549 30.7856 24.0018 32.1287 23.7496C32.4069 23.6974 32.6084 23.4545 32.6084 23.1715V15.4502C33.1498 15.4381 33.611 15.4379 33.9436 15.441V25.0226H33.9436Z" fill="#8A36A9"/>
<path d="M23.0066 16.8414C22.551 16.524 21.7656 16.1344 20.9273 15.9927C20.6071 15.9384 20.3034 16.1544 20.2493 16.4747C20.1952 16.7951 20.411 17.0986 20.7313 17.1527C21.3785 17.2621 21.9992 17.5734 22.3341 17.8067C22.6006 17.9924 22.9672 17.9269 23.153 17.6603C23.3387 17.3938 23.2732 17.0271 23.0066 16.8414Z" fill="#8A36A9"/>
<path d="M22.9477 20.1541C22.5285 19.8982 21.7087 19.449 20.9273 19.3169C20.6071 19.2627 20.3034 19.4786 20.2493 19.7989C20.1952 20.1193 20.411 20.4228 20.7313 20.4769C21.34 20.5798 22.0552 20.9876 22.3345 21.1582C22.6121 21.3276 22.974 21.2397 23.1431 20.9628C23.3125 20.6855 23.225 20.3235 22.9477 20.1541Z" fill="#8A36A9"/>
<path d="M27.906 17.8067C28.2409 17.5734 28.8616 17.2621 29.5088 17.1528C29.8291 17.0987 30.0449 16.7951 29.9908 16.4748C29.9367 16.1544 29.633 15.9383 29.3128 15.9928C28.4745 16.1344 27.6891 16.524 27.2335 16.8414C26.9669 17.0271 26.9014 17.3938 27.0871 17.6603C27.2729 17.9271 27.6397 17.9923 27.906 17.8067Z" fill="#8A36A9"/>
<path d="M29.3129 19.317C28.5315 19.449 27.7116 19.8982 27.2925 20.1542C27.0152 20.3235 26.9277 20.6855 27.0971 20.9628C27.2664 21.24 27.6284 21.3275 27.9057 21.1582C28.1849 20.9876 28.9002 20.5799 29.5089 20.477C29.8292 20.4229 30.045 20.1193 29.9909 19.799C29.9367 19.4786 29.6331 19.2625 29.3129 19.317Z" fill="#8A36A9"/>
</g>
</g>
<defs>
<linearGradient id="paint0_linear_14742_5878" x1="25.12" y1="0.584961" x2="25.12" y2="50.585" gradientUnits="userSpaceOnUse">
<stop stop-color="#C46CE4"/>
<stop offset="1" stop-color="#8632A5"/>
</linearGradient>
<clipPath id="clip0_14742_5878">
<rect width="50" height="50" fill="white" transform="translate(0.120117 0.584961)"/>
</clipPath>
<clipPath id="clip1_14742_5878">
<rect width="20" height="20" fill="white" transform="translate(15.1201 9.50391)"/>
</clipPath>
</defs>
</svg>
