<svg width="50" height="51" viewBox="0 0 50 51" fill="none" xmlns="http://www.w3.org/2000/svg">
<g clip-path="url(#clip0_16802_2330)">
<path d="M44.4187 19.4998C44.4187 35.0492 26.8649 49.45 26.8649 49.45C25.8392 50.2915 24.1606 50.2915 23.1349 49.45C23.1349 49.45 5.58105 35.0492 5.58105 19.4998C5.58125 8.77512 14.2753 0.0810547 24.9999 0.0810547C35.7246 0.0810547 44.4187 8.77512 44.4187 19.4998Z" fill="url(#paint0_linear_16802_2330)"/>
<path d="M25.0001 29.27C19.613 29.27 15.2305 24.8872 15.2305 19.5003C15.2305 14.1134 19.6132 9.73047 25.0001 9.73047C30.387 9.73047 34.7698 14.1132 34.7698 19.5001C34.7698 24.887 30.3872 29.27 25.0001 29.27Z" fill="#FFE1D6"/>
<circle cx="25" cy="19" r="13.5" fill="white"/>
<path d="M30.4166 27.9583H19.5833C18.7547 27.9575 17.9604 27.6279 17.3745 27.0421C16.7887 26.4562 16.4591 25.6619 16.4583 24.8333V16.5C16.4591 15.6715 16.7887 14.8771 17.3745 14.2913C17.9604 13.7054 18.7547 13.3759 19.5833 13.375H30.4166C31.2451 13.3759 32.0395 13.7054 32.6253 14.2913C33.2112 14.8771 33.5407 15.6715 33.5416 16.5V24.8333C33.5407 25.6619 33.2112 26.4562 32.6253 27.0421C32.0395 27.6279 31.2451 27.9575 30.4166 27.9583ZM19.5833 14.625C19.0861 14.6254 18.6094 14.8231 18.2579 15.1747C17.9064 15.5262 17.7087 16.0029 17.7083 16.5V24.8333C17.7087 25.3305 17.9064 25.8071 18.2579 26.1587C18.6094 26.5102 19.0861 26.7079 19.5833 26.7083H30.4166C30.9137 26.7079 31.3904 26.5102 31.7419 26.1587C32.0935 25.8071 32.2911 25.3305 32.2916 24.8333V16.5C32.2911 16.0029 32.0935 15.5262 31.7419 15.1747C31.3904 14.8231 30.9137 14.6254 30.4166 14.625H19.5833Z" fill="#4B1248"/>
<path d="M24.1666 23.5891C23.975 23.5892 23.7852 23.5515 23.6082 23.4782C23.4311 23.4049 23.2703 23.2974 23.1348 23.1619C22.9994 23.0264 22.892 22.8655 22.8188 22.6884C22.7456 22.5113 22.708 22.3215 22.7083 22.1299V19.2024C22.7083 18.9538 22.7718 18.7093 22.8929 18.4922C23.014 18.2751 23.1886 18.0925 23.4001 17.9618C23.6116 17.8312 23.853 17.7567 24.1013 17.7456C24.3497 17.7345 24.5968 17.787 24.8191 17.8983L27.3283 19.1533C27.5567 19.2674 27.7512 19.4396 27.8922 19.6526C28.0332 19.8655 28.1158 20.1118 28.1317 20.3667C28.1477 20.6216 28.0964 20.8762 27.983 21.1051C27.8697 21.3339 27.6982 21.529 27.4858 21.6708L24.9758 23.3433C24.7363 23.5034 24.4547 23.5889 24.1666 23.5891ZM24.1666 18.9933C24.128 18.9934 24.0902 19.0044 24.0574 19.0249C24.0268 19.0432 24.0015 19.0692 23.9841 19.1004C23.9666 19.1315 23.9578 19.1667 23.9583 19.2024V22.1299C23.9573 22.1679 23.9671 22.2053 23.9866 22.2379C24.0061 22.2705 24.0344 22.2969 24.0683 22.3141C24.1012 22.3331 24.1389 22.3422 24.1769 22.3403C24.2149 22.3384 24.2516 22.3255 24.2824 22.3033L26.7916 20.6308C26.8218 20.6104 26.8463 20.5826 26.8624 20.5499C26.8786 20.5173 26.8859 20.4809 26.8837 20.4446C26.8816 20.4082 26.8699 20.373 26.8499 20.3425C26.83 20.312 26.8024 20.2873 26.7699 20.2708L24.2599 19.0166C24.231 19.0017 24.1991 18.9937 24.1666 18.9933Z" fill="#4B1248"/>
<path d="M24.9999 14.6254C24.9178 14.6256 24.8365 14.6095 24.7607 14.578C24.6848 14.5465 24.616 14.5003 24.5582 14.442L21.2249 11.1087C21.1145 10.9902 21.0544 10.8335 21.0572 10.6716C21.0601 10.5097 21.1257 10.3552 21.2402 10.2407C21.3547 10.1262 21.5092 10.0606 21.6711 10.0577C21.833 10.0549 21.9897 10.115 22.1082 10.2254L24.9999 13.1162L27.8915 10.2254C28.01 10.115 28.1667 10.0549 28.3286 10.0577C28.4906 10.0606 28.645 10.1262 28.7596 10.2407C28.8741 10.3552 28.9397 10.5097 28.9425 10.6716C28.9454 10.8335 28.8853 10.9902 28.7749 11.1087L25.4415 14.442C25.3837 14.5003 25.3149 14.5465 25.2391 14.578C25.1633 14.6095 25.082 14.6256 24.9999 14.6254Z" fill="#4B1248"/>
</g>
<defs>
<linearGradient id="paint0_linear_16802_2330" x1="24.9999" y1="0.0810547" x2="24.9999" y2="50.0811" gradientUnits="userSpaceOnUse">
<stop stop-color="#4B1248"/>
<stop offset="1" stop-color="#CC9E54"/>
</linearGradient>
<clipPath id="clip0_16802_2330">
<rect width="50" height="50" fill="white" transform="translate(0 0.0810547)"/>
</clipPath>
</defs>
</svg>
