<svg width="51" height="51" viewBox="0 0 51 51" fill="none" xmlns="http://www.w3.org/2000/svg">
<g clip-path="url(#clip0_14742_5915)">
<path d="M45.241 19.7342C45.241 35.2836 27.6872 49.6844 27.6872 49.6844C26.6615 50.5259 24.9828 50.5259 23.9572 49.6844C23.9572 49.6844 6.40332 35.2836 6.40332 19.7342C6.40352 9.00949 15.0976 0.31543 25.8222 0.31543C36.5468 0.31543 45.241 9.00949 45.241 19.7342Z" fill="url(#paint0_linear_14742_5915)"/>
<path d="M25.8224 29.5043C20.4353 29.5043 16.0527 25.1216 16.0527 19.7347C16.0527 14.3478 20.4355 9.96484 25.8224 9.96484C31.2093 9.96484 35.592 14.3476 35.592 19.7345C35.592 25.1214 31.2095 29.5043 25.8224 29.5043Z" fill="#FFE1D6"/>
<circle cx="25.8223" cy="19.2344" r="13.5" fill="white"/>
<path d="M25.4999 26.4491C21.2571 26.4491 17.7856 22.9777 17.7856 18.7348C17.7856 14.4919 21.2571 11.0205 25.4999 11.0205C29.7428 11.0205 33.2142 14.4919 33.2142 18.7348C33.2142 22.9777 29.7428 26.4491 25.4999 26.4491ZM25.4999 12.3062C21.9642 12.3062 19.0714 15.1991 19.0714 18.7348C19.0714 22.2705 21.9642 25.1634 25.4999 25.1634C29.0356 25.1634 31.9285 22.2705 31.9285 18.7348C31.9285 15.1991 29.0356 12.3062 25.4999 12.3062ZM25.4999 23.8777C25.1142 23.8777 24.8571 23.6205 24.8571 23.2348V23.1705C23.8285 22.9134 22.9928 22.0777 22.9285 20.7277C22.9285 20.3419 23.1856 20.0848 23.5714 20.0848C23.9571 20.0848 24.2142 20.3419 24.2142 20.7277C24.2142 21.6919 24.9214 22.0134 25.4999 22.0134C26.0785 22.0134 26.7856 21.6919 26.7856 20.7277C26.7856 20.0205 26.2071 19.4419 25.4999 19.4419C24.0856 19.4419 22.9285 18.2848 22.9285 16.8705C22.9928 15.4562 23.8285 14.6205 24.8571 14.3634V14.2348C24.8571 13.8491 25.1142 13.5919 25.4999 13.5919C25.8856 13.5919 26.1428 13.8491 26.1428 14.2348V14.2991C27.1714 14.5562 28.0071 15.3919 28.0714 16.7419C28.0714 17.1277 27.8142 17.3848 27.4285 17.3848C27.1071 17.3848 26.7856 17.1277 26.7856 16.7419C26.7856 15.7777 26.0785 15.4562 25.4999 15.4562C24.9214 15.4562 24.2142 15.7777 24.2142 16.7419C24.2142 17.4491 24.7928 18.0277 25.4999 18.0277C26.9142 18.0277 28.0714 19.1848 28.0714 20.5991C28.0071 22.0134 27.1714 22.8491 26.1428 23.1062V23.2348C26.1428 23.6205 25.8856 23.8777 25.4999 23.8777Z" fill="#FB6F12"/>
</g>
<defs>
<linearGradient id="paint0_linear_14742_5915" x1="25.8222" y1="0.31543" x2="25.8222" y2="50.3155" gradientUnits="userSpaceOnUse">
<stop stop-color="#FB6D13"/>
<stop offset="1" stop-color="#FF9D00"/>
</linearGradient>
<clipPath id="clip0_14742_5915">
<rect width="50" height="50" fill="white" transform="translate(0.822266 0.31543)"/>
</clipPath>
</defs>
</svg>
