<svg width="50" height="50" viewBox="0 0 50 50" fill="none" xmlns="http://www.w3.org/2000/svg">
<g clip-path="url(#clip0_17047_2240)">
<path d="M44.4188 19.4188C44.4188 34.9681 26.865 49.3689 26.865 49.3689C25.8393 50.2104 24.1607 50.2104 23.135 49.3689C23.135 49.3689 5.58116 34.9681 5.58116 19.4188C5.58136 8.69406 14.2754 0 25 0C35.7247 0 44.4188 8.69406 44.4188 19.4188Z" fill="url(#paint0_linear_17047_2240)"/>
<path d="M25.0001 29.1889C19.6129 29.1889 15.2304 24.8062 15.2304 19.4193C15.2304 14.0323 19.6131 9.64941 25.0001 9.64941C30.387 9.64941 34.7697 14.0321 34.7697 19.4191C34.7697 24.806 30.3872 29.1889 25.0001 29.1889Z" fill="#FFE1D6"/>
<circle cx="25" cy="18.9189" r="13.5" fill="white"/>
</g>
<path d="M19.1774 25.8035L22.8996 21.6458L24.6023 23.6463L21.3205 27.4907C20.0636 28.9619 17.7379 27.4116 19.1774 25.8035ZM23.5245 16.3351C23.879 15.2697 23.716 14.3593 22.384 13.0069L19.129 9.4C18.6671 8.90027 17.5785 9.63419 18.0333 10.2395L20.6365 13.1933C21.1289 13.7441 20.214 14.4731 19.7055 13.9058L17.0127 10.8513C16.5114 10.3219 15.4748 11.0212 15.9994 11.6265C16.7585 12.4676 17.933 13.8415 18.6922 14.6826C19.2185 15.1757 18.4182 15.9063 17.899 15.2912L15.2259 12.2565C14.8338 11.864 14.1929 12.1081 14.0228 12.5666C13.8401 13.0564 14.2895 13.4143 14.5957 13.7771L17.5785 17.3263C18.5042 18.3142 19.539 18.8997 20.7422 18.5682C20.9266 18.5171 21.1522 18.4132 21.3939 18.2763L29.4077 27.8057C29.8392 28.3187 30.6718 28.3731 31.2125 27.9591L31.336 27.8651C31.9448 27.3984 32.0432 26.5457 31.5222 25.9949L23.0357 17.013C23.2828 16.759 23.4636 16.5182 23.5245 16.3351ZM25.7929 18.4132L27.1124 16.9388C25.4151 13.063 31.7048 7.89752 34.7539 10.2725C38.4583 13.1603 32.9528 20.1202 29.0837 18.4L27.5207 20.229L25.7929 18.4132Z" fill="#3D0DAF"/>
<defs>
<linearGradient id="paint0_linear_17047_2240" x1="25" y1="0" x2="25" y2="50.0001" gradientUnits="userSpaceOnUse">
<stop stop-color="#3D0DAF"/>
<stop offset="1" stop-color="#0998A2"/>
</linearGradient>
<clipPath id="clip0_17047_2240">
<rect width="50" height="50" fill="white"/>
</clipPath>
</defs>
</svg>
