<svg width="39" height="50" viewBox="0 0 39 50" fill="none" xmlns="http://www.w3.org/2000/svg">
<path d="M38.3377 19.4188C38.3377 27.0201 34.0377 34.3953 29.6687 39.9145C27.4915 42.665 25.3131 44.9347 23.6789 46.5166C22.8621 47.3073 22.182 47.9254 21.707 48.3451C21.4695 48.5549 21.2834 48.7151 21.1572 48.8224C21.094 48.8761 21.0459 48.9165 21.0138 48.9433L20.9778 48.9732L20.9691 48.9804L20.9671 48.9821L20.9667 48.9824L21.2838 49.3689L20.9667 48.9824C20.1254 49.6726 18.7123 49.6726 17.871 48.9824L17.5538 49.3689L17.871 48.9824L17.8706 48.9821L17.8686 48.9804L17.8599 48.9732L17.8239 48.9433C17.7918 48.9165 17.7436 48.8761 17.6805 48.8224C17.5543 48.7151 17.3681 48.5549 17.1307 48.3451C16.6557 47.9254 15.9756 47.3073 15.1588 46.5166C13.5246 44.9347 11.3462 42.665 9.16896 39.9145C4.79999 34.3953 0.5 27.0201 0.5 19.4188C0.50019 8.9702 8.9704 0.5 19.4189 0.5C29.8674 0.5 38.3377 8.9702 38.3377 19.4188Z" fill="#22C55E" stroke="black"/>
<path d="M29.75 29.75L24.1202 24.1202M24.1202 24.1202C25.5906 22.6499 26.5 20.6187 26.5 18.375C26.5 13.8877 22.8623 10.25 18.375 10.25C13.8877 10.25 10.25 13.8877 10.25 18.375C10.25 22.8623 13.8877 26.5 18.375 26.5C20.6187 26.5 22.6499 25.5906 24.1202 24.1202Z" stroke="#FCFDFF" stroke-width="3" stroke-linecap="round" stroke-linejoin="round"/>
</svg>
