<svg width="51" height="51" viewBox="0 0 51 51" fill="none" xmlns="http://www.w3.org/2000/svg">
<g clip-path="url(#clip0_16667_2914)">
<path d="M44.4383 20.1844C44.4383 35.7338 26.8844 50.1346 26.8844 50.1346C25.8587 50.9761 24.1801 50.9761 23.1544 50.1346C23.1544 50.1346 5.60059 35.7338 5.60059 20.1844C5.60078 9.45969 14.2948 0.765625 25.0195 0.765625C35.7441 0.765625 44.4383 9.45969 44.4383 20.1844Z" fill="url(#paint0_linear_16667_2914)"/>
<path d="M25.0196 29.9545C19.6325 29.9545 15.25 25.5718 15.25 20.1849C15.25 14.798 19.6327 10.415 25.0196 10.415C30.4066 10.415 34.7893 14.7978 34.7893 20.1847C34.7893 25.5716 30.4068 29.9545 25.0196 29.9545Z" fill="#FFE1D6"/>
<circle cx="25.0195" cy="19.6846" r="13.5" fill="white"/>
<path d="M33.1059 24.9311C32.757 24.2333 32.0586 23.7991 31.2803 23.7917V18.039H31.92C32.7855 18.039 33.4895 17.3352 33.4895 16.4698C33.4895 15.8844 33.1672 15.3516 32.6487 15.08L26.1732 11.6864C25.5897 11.3807 24.8887 11.3721 24.2982 11.6657L17.4168 15.0806C16.8815 15.3455 16.5492 15.8814 16.5492 16.4789C16.5492 17.3389 17.2493 18.039 18.1099 18.039H18.7584V23.7917C17.98 23.7991 17.2817 24.2333 16.9328 24.9311L16.4119 25.9742C16.2022 26.3935 16.2245 26.8824 16.4714 27.2815C16.718 27.6807 17.1452 27.9187 17.6143 27.9187H32.4244C32.8935 27.9187 33.3207 27.6807 33.5673 27.2815C33.8142 26.8824 33.8365 26.3935 33.6268 25.9736L33.1059 24.9311ZM17.5343 26.6242C17.516 26.5943 17.5145 26.5632 17.53 26.5326L18.051 25.4902C18.1895 25.2124 18.4684 25.0403 18.7782 25.0403H31.2605C31.5703 25.0403 31.8492 25.2124 31.9877 25.4902L32.5087 26.532C32.5242 26.5632 32.5227 26.5943 32.5044 26.6242C32.4766 26.6687 32.4373 26.6687 32.4244 26.6687H17.6143C17.6014 26.6687 17.5621 26.6687 17.5343 26.6242ZM30.0303 23.7903H25.6443V18.039H30.0303V23.7903ZM17.7992 16.4789C17.7992 16.3599 17.8651 16.2537 17.9716 16.2006L24.8539 12.7851C24.9675 12.7289 25.0911 12.7008 25.2147 12.7008C25.3447 12.7008 25.4747 12.732 25.5925 12.7936L32.0683 16.1872C32.1739 16.2427 32.2395 16.3508 32.2395 16.4698C32.2395 16.6456 32.0961 16.789 31.92 16.789H18.1099C17.9387 16.789 17.7992 16.6498 17.7992 16.4789ZM24.3943 18.039V23.7903H20.0084V18.039H24.3943Z" fill="#128DA9"/>
</g>
<defs>
<linearGradient id="paint0_linear_16667_2914" x1="25.0194" y1="0.765625" x2="25.0194" y2="50.7657" gradientUnits="userSpaceOnUse">
<stop stop-color="#00B5D7"/>
<stop offset="1" stop-color="#0989A2"/>
</linearGradient>
<clipPath id="clip0_16667_2914">
<rect width="50" height="50" fill="white" transform="translate(0.0195312 0.765625)"/>
</clipPath>
</defs>
</svg>
