<svg width="51" height="51" viewBox="0 0 51 51" fill="none" xmlns="http://www.w3.org/2000/svg">
<g clip-path="url(#clip0_17047_2240)">
<path d="M44.4384 20.1844C44.4384 35.7338 26.8845 50.1346 26.8845 50.1346C25.8588 50.9761 24.1802 50.9761 23.1545 50.1346C23.1545 50.1346 5.60069 35.7338 5.60069 20.1844C5.60089 9.45969 14.2949 0.765625 25.0196 0.765625C35.7442 0.765625 44.4384 9.45969 44.4384 20.1844Z" fill="url(#paint0_linear_17047_2240)"/>
<path d="M25.0196 29.9545C19.6325 29.9545 15.2499 25.5718 15.2499 20.1849C15.2499 14.798 19.6327 10.415 25.0196 10.415C30.4065 10.415 34.7892 14.7978 34.7892 20.1847C34.7892 25.5716 30.4067 29.9545 25.0196 29.9545Z" fill="#FFE1D6"/>
<circle cx="25.0195" cy="19.6846" r="13.5" fill="white"/>
<path d="M33.1061 24.9311C32.7572 24.2333 32.0588 23.7991 31.2805 23.7917V18.039H31.9202C32.7856 18.039 33.4897 17.3352 33.4897 16.4698C33.4897 15.8844 33.1674 15.3516 32.6489 15.08L26.1734 11.6864C25.5899 11.3807 24.8889 11.3721 24.2984 11.6657L17.417 15.0806C16.8817 15.3455 16.5494 15.8814 16.5494 16.4789C16.5494 17.3389 17.2495 18.039 18.11 18.039H18.7585V23.7917C17.9802 23.7991 17.2818 24.2333 16.933 24.9311L16.412 25.9742C16.2024 26.3935 16.2247 26.8824 16.4716 27.2815C16.7181 27.6807 17.1454 27.9187 17.6144 27.9187H32.4246C32.8937 27.9187 33.3209 27.6807 33.5675 27.2815C33.8144 26.8824 33.8367 26.3935 33.627 25.9736L33.1061 24.9311ZM17.5345 26.6242C17.5162 26.5943 17.5146 26.5632 17.5302 26.5326L18.0511 25.4902C18.1897 25.2124 18.4686 25.0403 18.7784 25.0403H31.2607C31.5704 25.0403 31.8494 25.2124 31.9879 25.4902L32.5089 26.532C32.5244 26.5632 32.5229 26.5943 32.5046 26.6242C32.4768 26.6687 32.4374 26.6687 32.4246 26.6687H17.6144C17.6016 26.6687 17.5623 26.6687 17.5345 26.6242ZM30.0305 23.7903H25.6445V18.039H30.0305V23.7903ZM17.7994 16.4789C17.7994 16.3599 17.8653 16.2537 17.9718 16.2006L24.8541 12.7851C24.9677 12.7289 25.0912 12.7008 25.2148 12.7008C25.3448 12.7008 25.4749 12.732 25.5927 12.7936L32.0685 16.1872C32.1741 16.2427 32.2397 16.3508 32.2397 16.4698C32.2397 16.6456 32.0963 16.789 31.9202 16.789H18.11C17.9388 16.789 17.7994 16.6498 17.7994 16.4789ZM24.3945 18.039V23.7903H20.0085V18.039H24.3945Z" fill="#128DA9"/>
</g>
<defs>
<linearGradient id="paint0_linear_17047_2240" x1="25.0195" y1="0.765625" x2="25.0195" y2="50.7657" gradientUnits="userSpaceOnUse">
<stop stop-color="#00B5D7"/>
<stop offset="1" stop-color="#0989A2"/>
</linearGradient>
<clipPath id="clip0_17047_2240">
<rect width="50" height="50" fill="white" transform="translate(0.0195312 0.765625)"/>
</clipPath>
</defs>
</svg>
