<svg width="51" height="50" viewBox="0 0 51 50" fill="none" xmlns="http://www.w3.org/2000/svg">
<g clip-path="url(#clip0_16667_2992)">
<path d="M44.741 19.4188C44.741 34.9681 27.1872 49.3689 27.1872 49.3689C26.1615 50.2104 24.4828 50.2104 23.4572 49.3689C23.4572 49.3689 5.90332 34.9681 5.90332 19.4188C5.90352 8.69406 14.5976 0 25.3222 0C36.0468 0 44.741 8.69406 44.741 19.4188Z" fill="url(#paint0_linear_16667_2992)"/>
<path d="M25.3224 29.1889C19.9353 29.1889 15.5527 24.8062 15.5527 19.4193C15.5527 14.0323 19.9355 9.64941 25.3224 9.64941C30.7093 9.64941 35.092 14.0321 35.092 19.4191C35.092 24.806 30.7095 29.1889 25.3224 29.1889Z" fill="#FFE1D6"/>
<circle cx="25.3223" cy="18.9189" r="13.5" fill="white"/>
<g clip-path="url(#clip1_16667_2992)">
<path d="M21.6304 21.5908V24.4033C21.6304 24.6946 21.8665 24.9307 22.1577 24.9307H29.189C29.4802 24.9307 29.7163 24.6946 29.7163 24.4033V21.5908C29.7163 21.2996 29.4802 21.0635 29.189 21.0635H22.1577C21.8664 21.0635 21.6304 21.2996 21.6304 21.5908ZM22.6851 22.1182H28.6616V23.876H22.6851V22.1182Z" fill="#EA4666"/>
<path d="M33.02 17.0549C32.9742 17.0207 32.9239 16.9948 32.8712 16.9773C32.8773 16.91 32.8805 16.8423 32.8805 16.7744C32.8805 16.3321 32.7508 15.905 32.5166 15.5414C33.1649 15.1344 33.5836 14.4158 33.5836 13.6104C33.5836 12.3503 32.5585 11.3252 31.2984 11.3252C31.1815 11.3252 31.0652 11.3343 30.9502 11.3525C30.6118 10.5044 29.7879 9.91895 28.8375 9.91895C27.8994 9.91895 27.0784 10.4876 26.7312 11.3252H26.7281C25.5132 11.3252 24.5169 12.2785 24.4472 13.4763C23.928 13.5594 23.435 13.765 23.0096 14.0744L21.9807 12.2923C21.2538 11.0333 19.638 10.6003 18.3789 11.3272C17.1198 12.0542 16.6868 13.6699 17.4138 14.9291L18.5827 16.9537C18.4914 16.9641 18.4028 16.9981 18.3266 17.055C18.1773 17.1665 18.098 17.3485 18.1178 17.5337C18.2935 19.1734 18.4721 20.8585 18.6449 22.4881C18.7872 23.8302 18.9294 25.1723 19.0717 26.505C19.1578 27.3111 19.834 27.9189 20.6448 27.9189H30.7016C31.5126 27.9189 32.1889 27.3108 32.2748 26.5043L33.2291 17.5333C33.2488 17.3481 33.1693 17.1663 33.02 17.0549ZM26.7281 12.3799C26.8121 12.3799 26.8997 12.3903 26.996 12.4118C27.1364 12.443 27.2835 12.4155 27.4033 12.3357C27.523 12.2559 27.6049 12.1306 27.6299 11.9889C27.734 11.4006 28.2419 10.9736 28.8375 10.9736C29.4607 10.9736 29.9827 11.4447 30.0518 12.0694C30.0703 12.2373 30.1682 12.3861 30.3149 12.4697C30.4617 12.5533 30.6397 12.5615 30.7935 12.4919C30.9575 12.4176 31.1274 12.3799 31.2985 12.3799C31.9769 12.3799 32.5289 12.9319 32.5289 13.6104C32.5289 14.2067 32.1012 14.7146 31.512 14.8181C31.302 14.855 31.1348 15.0146 31.0884 15.2227C31.042 15.4308 31.1255 15.6464 31.2999 15.7689C31.6292 16.0003 31.8258 16.3762 31.8258 16.7744C31.8258 16.9565 31.7839 17.1357 31.7046 17.3009C30.4957 17.7384 29.2523 18.0408 27.9849 18.2065C28.0593 18.0503 28.1213 17.8883 28.1707 17.7224C29.5237 15.7349 29.7073 13.7401 29.7145 13.6551C29.7392 13.3649 29.5239 13.1096 29.2337 13.0849C28.9436 13.0608 28.6883 13.2755 28.6636 13.5657C28.6625 13.5785 28.5798 14.4763 28.1061 15.6246C27.6959 14.5094 26.7067 13.6718 25.5049 13.4776C25.5714 12.8613 26.0945 12.3799 26.7281 12.3799ZM24.9703 14.4893C26.2304 14.4893 27.2555 15.5144 27.2555 16.7744C27.2555 17.3609 27.0379 17.9067 26.6402 18.3302C26.3191 18.3475 25.9969 18.3564 25.6735 18.3564C25.6093 18.3564 25.5452 18.356 25.4811 18.3553L23.5413 14.9954C23.9449 14.6706 24.449 14.4893 24.9703 14.4893ZM18.1691 13.2012C18.2785 12.7931 18.5403 12.4519 18.9062 12.2406C19.6616 11.8045 20.6311 12.0642 21.0673 12.8197L21.5196 13.6031L20.0172 13.6933C19.7264 13.7107 19.5049 13.9605 19.5223 14.2512C19.5392 14.5312 19.7714 14.747 20.0483 14.747C20.0589 14.747 20.0696 14.7467 20.0803 14.746L22.1091 14.6243L22.5743 15.4299L21.0719 15.5201C20.7812 15.5375 20.5596 15.7874 20.5771 16.078C20.5939 16.358 20.8262 16.5738 21.103 16.5738C21.1136 16.5738 21.1243 16.5735 21.1351 16.5729L23.1638 16.4511L24.2303 18.2982C22.8194 18.1843 21.4348 17.903 20.0909 17.4567L18.3272 14.4017C18.1159 14.0358 18.0597 13.6094 18.1691 13.2012ZM31.226 26.3927C31.1974 26.6615 30.9719 26.8643 30.7016 26.8643H20.6448C20.3745 26.8643 20.1491 26.6617 20.1204 26.3931C19.9782 25.0606 19.8359 23.7188 19.6937 22.3769C19.5511 21.0315 19.4044 19.6483 19.2587 18.2838C21.3176 19.0323 23.4714 19.4111 25.6735 19.4111C27.8758 19.4111 30.0296 19.0323 32.0886 18.2836L31.226 26.3927Z" fill="#EA4666"/>
</g>
</g>
<defs>
<linearGradient id="paint0_linear_16667_2992" x1="25.3222" y1="0" x2="25.3222" y2="50.0001" gradientUnits="userSpaceOnUse">
<stop stop-color="#E94464"/>
<stop offset="1" stop-color="#F86187"/>
</linearGradient>
<clipPath id="clip0_16667_2992">
<rect width="50" height="50" fill="white" transform="translate(0.322266)"/>
</clipPath>
<clipPath id="clip1_16667_2992">
<rect width="18" height="18" fill="white" transform="translate(16.3223 9.91895)"/>
</clipPath>
</defs>
</svg>
