<svg width="51" height="51" viewBox="0 0 51 51" fill="none" xmlns="http://www.w3.org/2000/svg">
<g clip-path="url(#clip0_14742_5837)">
<path d="M44.741 19.7342C44.741 35.2836 27.1872 49.6844 27.1872 49.6844C26.1615 50.5259 24.4828 50.5259 23.4572 49.6844C23.4572 49.6844 5.90332 35.2836 5.90332 19.7342C5.90352 9.00949 14.5976 0.31543 25.3222 0.31543C36.0468 0.31543 44.741 9.00949 44.741 19.7342Z" fill="url(#paint0_linear_14742_5837)"/>
<path d="M25.3224 29.5043C19.9353 29.5043 15.5527 25.1216 15.5527 19.7347C15.5527 14.3478 19.9355 9.96484 25.3224 9.96484C30.7093 9.96484 35.092 14.3476 35.092 19.7345C35.092 25.1214 30.7095 29.5043 25.3224 29.5043Z" fill="#FFE1D6"/>
<circle cx="25.3223" cy="19.2344" r="13.5" fill="white"/>
<g clip-path="url(#clip1_14742_5837)">
<path d="M33.7969 14.6588L33.7965 14.6398C33.7871 14.1412 33.7781 13.6702 33.7781 13.2171C33.7781 12.5307 33.2197 11.9723 32.5333 11.9723C29.8775 11.9723 27.8618 11.2151 26.1898 9.58934C25.7032 9.11608 24.9407 9.11604 24.4541 9.5893C22.7822 11.2151 20.7667 11.9723 18.1113 11.9723C17.4249 11.9723 16.8665 12.5307 16.8665 13.2171C16.8665 13.6799 16.8574 14.1555 16.8477 14.6592C16.8028 17.0105 16.7469 19.9368 17.7289 22.593C18.2689 24.0536 19.0865 25.3229 20.159 26.3657C21.3805 27.5533 22.9805 28.4954 24.9142 29.1656C25.0457 29.2113 25.1828 29.2344 25.3219 29.2344C25.4612 29.2344 25.5984 29.2112 25.7296 29.1657C27.6636 28.4953 29.2636 27.5533 30.4853 26.3656C31.5579 25.3228 32.3756 24.0535 32.9156 22.5928C33.8977 19.9364 33.8418 17.0101 33.7969 14.6588ZM31.8165 22.1865C30.7809 24.9876 28.6643 26.9084 25.3455 28.0587C25.3303 28.0639 25.3137 28.0641 25.298 28.0586C21.9798 26.9084 19.8634 24.9877 18.8279 22.1867C17.9226 19.738 17.9739 17.0517 18.0192 14.6816C18.0289 14.1722 18.0381 13.6911 18.0381 13.2171C18.0381 13.1768 18.0709 13.144 18.1112 13.144C21.0913 13.144 23.3663 12.2814 25.271 10.4293C25.2852 10.4154 25.3036 10.4085 25.3219 10.4085C25.3402 10.4085 25.3586 10.4155 25.3729 10.4294C27.2776 12.2814 29.5529 13.144 32.5333 13.144C32.5736 13.144 32.6064 13.1768 32.6064 13.2171C32.6064 13.6813 32.6154 14.1577 32.625 14.662L32.6253 14.6811V14.6812C32.6707 17.0513 32.7219 19.7376 31.8165 22.1865Z" fill="#1D4ED8"/>
<path d="M28.9626 17.2847H27.0775V15.3993C27.0775 15.0758 26.8152 14.8135 26.4916 14.8135H24.1534C23.8298 14.8135 23.5675 15.0758 23.5675 15.3993V17.2847H21.6821C21.3585 17.2847 21.0962 17.547 21.0962 17.8706V20.2088C21.0962 20.5323 21.3585 20.7946 21.6821 20.7946H23.5675V22.68C23.5675 23.0035 23.8298 23.2658 24.1534 23.2658H26.4916C26.8152 23.2658 27.0775 23.0035 27.0775 22.68V20.7946H28.9626C29.2862 20.7946 29.5485 20.5323 29.5485 20.2088V17.8706C29.5485 17.547 29.2861 17.2847 28.9626 17.2847ZM28.3767 19.6229H26.4916C26.1681 19.6229 25.9057 19.8852 25.9057 20.2088V22.0941H24.7393V20.2088C24.7393 19.8852 24.4769 19.6229 24.1534 19.6229H22.2679V18.4564H24.1534C24.4769 18.4564 24.7393 18.1941 24.7393 17.8706V15.9852H25.9057V17.8706C25.9057 18.1941 26.1681 18.4564 26.4916 18.4564H28.3768V19.6229H28.3767Z" fill="#1D4ED8"/>
</g>
</g>
<defs>
<linearGradient id="paint0_linear_14742_5837" x1="25.3222" y1="0.31543" x2="25.3222" y2="50.3155" gradientUnits="userSpaceOnUse">
<stop stop-color="#78BCFD"/>
<stop offset="1" stop-color="#305DE6"/>
</linearGradient>
<clipPath id="clip0_14742_5837">
<rect width="50" height="50" fill="white" transform="translate(0.322266 0.31543)"/>
</clipPath>
<clipPath id="clip1_14742_5837">
<rect width="20" height="20" fill="white" transform="translate(15.3223 9.23438)"/>
</clipPath>
</defs>
</svg>
