<svg width="51" height="51" viewBox="0 0 51 51" fill="none" xmlns="http://www.w3.org/2000/svg">
<g clip-path="url(#clip0_14742_5892)">
<path d="M44.741 19.8153C44.741 35.3646 27.1872 49.7654 27.1872 49.7654C26.1615 50.6069 24.4828 50.6069 23.4572 49.7654C23.4572 49.7654 5.90332 35.3646 5.90332 19.8153C5.90352 9.09054 14.5976 0.396484 25.3222 0.396484C36.0468 0.396484 44.741 9.09054 44.741 19.8153Z" fill="url(#paint0_linear_14742_5892)"/>
<path d="M25.3224 29.5854C19.9353 29.5854 15.5527 25.2027 15.5527 19.8157C15.5527 14.4288 19.9355 10.0459 25.3224 10.0459C30.7093 10.0459 35.092 14.4286 35.092 19.8155C35.092 25.2025 30.7095 29.5854 25.3224 29.5854Z" fill="#FFE1D6"/>
<circle cx="25.3223" cy="19.3154" r="13.5" fill="white"/>
<g clip-path="url(#clip1_14742_5892)">
<path d="M35.1855 21.2455L32.2207 15.3198H33.959C34.2324 15.3198 34.4863 15.1323 34.5332 14.8627C34.5879 14.519 34.3262 14.2182 33.9902 14.2182H29.6816C28.8184 14.2182 27.9863 13.9955 27.2402 13.5776C27.3262 13.351 27.373 13.1088 27.373 12.8549C27.373 11.9135 26.7363 11.1205 25.873 10.8783V9.976C25.873 9.70257 25.6855 9.44866 25.416 9.40178C25.0723 9.3471 24.7715 9.60882 24.7715 9.94475V10.8783C23.9082 11.1205 23.2676 11.9135 23.2676 12.8549C23.2676 13.1088 23.3145 13.351 23.4004 13.5776C22.6543 13.9955 21.8223 14.2182 20.959 14.2182H16.6895C16.416 14.2182 16.1621 14.4057 16.1152 14.6752C16.0605 15.019 16.3223 15.3198 16.6582 15.3198H18.4238L15.459 21.2455C15.416 21.3315 15.3965 21.4252 15.4004 21.5229C15.416 23.6674 17.166 25.4096 19.3145 25.4096C21.4629 25.4096 23.2129 23.6674 23.2285 21.5229C23.2363 21.433 23.2168 21.3393 23.1699 21.2455L20.2051 15.3198H20.959C22.0566 15.3198 23.1191 15.0268 24.0605 14.4721C24.2676 14.6362 24.5098 14.7573 24.7715 14.8315V25.8393C23.3301 26.0541 22.1152 27.101 21.7168 28.5385C21.6191 28.8901 21.8848 29.2377 22.248 29.2377H28.4004C28.7637 29.2377 29.0293 28.8901 28.9316 28.5385C28.5332 27.1049 27.3184 26.058 25.877 25.8393V14.8276C26.1387 14.7533 26.377 14.6323 26.584 14.4682C27.5215 15.0229 28.584 15.3158 29.6855 15.3158H30.4395L27.4707 21.2455C27.4277 21.3237 27.4082 21.4174 27.4121 21.5229C27.4277 23.6674 29.1777 25.4096 31.3262 25.4096C33.4746 25.4096 35.2246 23.6674 35.2402 21.5229C35.248 21.4213 35.2285 21.3276 35.1855 21.2455ZM19.3184 24.3041C17.9551 24.3041 16.8145 23.3315 16.5566 22.0424H22.0762C21.8184 23.3315 20.6816 24.3041 19.3184 24.3041ZM21.791 20.9408H16.8457L19.3184 15.9994L21.791 20.9408ZM27.5566 28.1362H23.0879C23.5645 27.3823 24.4004 26.9018 25.3223 26.9018C26.2441 26.9018 27.0801 27.3823 27.5566 28.1362ZM25.3223 13.8041C24.7988 13.8041 24.373 13.3783 24.373 12.8549C24.373 12.3315 24.7988 11.9057 25.3223 11.9057H25.3262H25.3301C25.8535 11.9057 26.2754 12.3315 26.2754 12.8549C26.2715 13.3783 25.8457 13.8041 25.3223 13.8041ZM31.3262 15.9994L33.7988 20.9408H28.8535L31.3262 15.9994ZM31.3262 24.3041C29.9629 24.3041 28.8223 23.3315 28.5684 22.0424H34.0879C33.8301 23.3315 32.6895 24.3041 31.3262 24.3041Z" fill="#E1B330"/>
</g>
</g>
<defs>
<linearGradient id="paint0_linear_14742_5892" x1="25.3222" y1="0.396484" x2="25.3222" y2="50.3966" gradientUnits="userSpaceOnUse">
<stop stop-color="#ECC438"/>
<stop offset="1" stop-color="#CE9D16"/>
</linearGradient>
<clipPath id="clip0_14742_5892">
<rect width="50" height="50" fill="white" transform="translate(0.322266 0.396484)"/>
</clipPath>
<clipPath id="clip1_14742_5892">
<rect width="20" height="20" fill="white" transform="translate(15.3223 9.31543)"/>
</clipPath>
</defs>
</svg>
