<svg width="50" height="50" viewBox="0 0 50 50" fill="none" xmlns="http://www.w3.org/2000/svg">
<g clip-path="url(#clip0_16802_2249)">
<path d="M44.4188 19.4188C44.4188 34.9681 26.865 49.3689 26.865 49.3689C25.8393 50.2104 24.1607 50.2104 23.135 49.3689C23.135 49.3689 5.58116 34.9681 5.58116 19.4188C5.58136 8.69406 14.2754 0 25 0C35.7247 0 44.4188 8.69406 44.4188 19.4188Z" fill="url(#paint0_linear_16802_2249)"/>
<circle cx="25" cy="19" r="13.5" fill="white"/>
<path d="M30.1293 26.4881C30.0484 26.4881 29.9711 26.467 29.8973 26.4213L28.3047 25.4229C28.1008 25.2963 28.0375 25.0256 28.1676 24.8217C28.2941 24.6178 28.5648 24.5545 28.7688 24.6846L30.0695 25.5002L31.4301 24.1396L30.625 22.86C30.5371 22.7193 30.5371 22.5436 30.6215 22.4029C30.9449 21.865 31.1875 21.2885 31.3422 20.6873C31.3844 20.5291 31.5074 20.4061 31.6656 20.3709L33.1316 20.0334V18.1104L31.6656 17.7729C31.5074 17.7377 31.3809 17.6146 31.3422 17.4564C31.1875 16.8553 30.9449 16.2752 30.6215 15.7408C30.5371 15.6002 30.5371 15.4244 30.625 15.2838L31.4266 14.0006L30.066 12.64L28.7652 13.4557C28.6281 13.54 28.4559 13.5436 28.3152 13.4627C27.7844 13.1533 27.2148 12.9213 26.6242 12.7736C26.466 12.735 26.343 12.6084 26.3043 12.4502L25.9563 10.942H24.0332L23.6781 12.4818C23.643 12.64 23.5234 12.7631 23.3652 12.8053C22.7922 12.96 22.2438 13.192 21.7305 13.4979C21.5898 13.5822 21.4141 13.5787 21.277 13.4943L19.9234 12.6471L18.5629 14.0076L19.4348 15.3787C19.5191 15.5158 19.5227 15.6881 19.4418 15.8287C19.1465 16.335 18.925 16.8764 18.7773 17.4354C18.7352 17.5936 18.6121 17.7131 18.4539 17.7482L16.8719 18.1104V20.0334L18.4539 20.3955C18.6121 20.4307 18.7387 20.5537 18.7773 20.7084C18.9215 21.2674 19.1465 21.8053 19.4418 22.315C19.5227 22.4557 19.5191 22.6279 19.4348 22.765L18.5734 24.1396L19.934 25.5002L21.2875 24.6529C21.4914 24.5264 21.7586 24.5861 21.8887 24.79C22.0152 24.9939 21.9555 25.2611 21.7516 25.3912L20.1027 26.4248C19.9305 26.5338 19.7055 26.5057 19.5648 26.365L17.7156 24.5158C17.5715 24.3717 17.5469 24.1502 17.6559 23.9779L18.5629 22.5295C18.3344 22.1006 18.148 21.6541 18.0109 21.1936L16.3375 20.8068C16.1406 20.7611 16 20.5854 16 20.3814V17.7658C16 17.5619 16.1406 17.3861 16.3375 17.3404L18.0074 16.9572C18.1445 16.4967 18.3309 16.0502 18.5594 15.6213L17.6523 14.1729C17.5434 14.0006 17.5715 13.7756 17.7121 13.635L19.5613 11.7857C19.7055 11.6416 19.927 11.617 20.0992 11.726L21.5266 12.6189C21.9625 12.3799 22.4195 12.1865 22.8941 12.0424L23.2668 10.4146C23.3125 10.2178 23.4883 10.0771 23.6922 10.0771H26.3078C26.5117 10.0771 26.6875 10.2178 26.7332 10.4146L27.0988 12.0037C27.591 12.1479 28.0691 12.3412 28.5227 12.5873L29.9008 11.7225C30.073 11.6135 30.298 11.6416 30.4387 11.7822L32.2879 13.6314C32.432 13.7756 32.4566 13.9971 32.3477 14.1693L31.5004 15.5229C31.757 15.9869 31.9609 16.4756 32.1121 16.9818L33.6625 17.3369C33.8594 17.3826 34 17.5584 34 17.7623V20.3779C34 20.5818 33.8594 20.7576 33.6625 20.8033L32.1121 21.1584C31.9609 21.6646 31.757 22.1533 31.5004 22.6174L32.3477 23.9709C32.4566 24.1432 32.4285 24.3682 32.2879 24.5088L30.4387 26.358C30.3543 26.4459 30.2418 26.4881 30.1293 26.4881Z" fill="#7E50D3"/>
<path d="M26.3324 27.9261C26.0934 27.9261 25.8965 27.7328 25.8965 27.4902V22.7757C25.8965 22.3433 26.1285 21.9425 26.5047 21.7351C27.4785 21.1937 28.0867 20.1671 28.0867 19.0527C28.0867 18.0296 27.5875 17.098 26.7684 16.532V18.5464C26.7684 19.0667 26.3465 19.4886 25.8262 19.4886H24.209C23.6887 19.4886 23.2668 19.0667 23.2668 18.5464V16.532C22.4512 17.098 21.9484 18.0296 21.9484 19.0527C21.9484 20.1671 22.5531 21.1937 23.5305 21.7351C23.9066 21.9425 24.1387 22.3398 24.1387 22.7757V27.4902C24.1387 27.7292 23.9453 27.9261 23.7027 27.9261C23.4602 27.9261 23.2668 27.7328 23.2668 27.4902V22.7757C23.2668 22.6597 23.207 22.5507 23.1086 22.498C21.857 21.8019 21.0801 20.4835 21.0801 19.0527C21.0801 17.439 22.0469 16.0081 23.541 15.3999C23.6746 15.3437 23.8293 15.3613 23.9488 15.4421C24.0684 15.523 24.1422 15.6601 24.1422 15.8042V18.5464C24.1422 18.5851 24.1738 18.6167 24.2125 18.6167H25.8297C25.8684 18.6167 25.9 18.5851 25.9 18.5464V15.8042C25.9 15.6601 25.9703 15.523 26.0934 15.4421C26.2129 15.3613 26.3676 15.3437 26.5012 15.3999C27.9953 16.0046 28.9621 17.439 28.9621 19.0527C28.9621 20.4835 28.1852 21.8019 26.9336 22.498C26.8352 22.5507 26.7754 22.6597 26.7754 22.7757V27.4902C26.7684 27.7328 26.575 27.9261 26.3324 27.9261Z" fill="#7E50D3"/>
</g>
<defs>
<linearGradient id="paint0_linear_16802_2249" x1="25" y1="0" x2="25" y2="50.0001" gradientUnits="userSpaceOnUse">
<stop stop-color="#7E50D3"/>
<stop offset="1" stop-color="#2A0845"/>
</linearGradient>
<clipPath id="clip0_16802_2249">
<rect width="50" height="50" fill="white"/>
</clipPath>
</defs>
</svg>
