<svg width="50" height="50" viewBox="0 0 50 50" fill="none" xmlns="http://www.w3.org/2000/svg">
<g clip-path="url(#clip0_16802_2309)">
<path d="M44.4188 19.4188C44.4188 34.9681 26.865 49.3689 26.865 49.3689C25.8393 50.2104 24.1607 50.2104 23.135 49.3689C23.135 49.3689 5.58116 34.9681 5.58116 19.4188C5.58136 8.69406 14.2754 0 25 0C35.7247 0 44.4188 8.69406 44.4188 19.4188Z" fill="url(#paint0_linear_16802_2309)"/>
<path d="M25.0001 29.1889C19.6129 29.1889 15.2304 24.8062 15.2304 19.4193C15.2304 14.0323 19.6131 9.64941 25.0001 9.64941C30.387 9.64941 34.7697 14.0321 34.7697 19.4191C34.7697 24.806 30.3872 29.1889 25.0001 29.1889Z" fill="#FFE1D6"/>
<circle cx="25" cy="18.9189" r="13.5" fill="white"/>
<path d="M19.75 16C20.9926 16 22 14.9926 22 13.75C22 12.5074 20.9926 11.5 19.75 11.5C18.5074 11.5 17.5 12.5074 17.5 13.75C17.5 14.9926 18.5074 16 19.75 16Z" fill="#E83828"/>
<path d="M30.25 21.25C31.4926 21.25 32.5 20.2426 32.5 19C32.5 17.7574 31.4926 16.75 30.25 16.75C29.0074 16.75 28 17.7574 28 19C28 20.2426 29.0074 21.25 30.25 21.25Z" fill="#E83828"/>
<path d="M19.75 26.5C20.9926 26.5 22 25.4926 22 24.25C22 23.0074 20.9926 22 19.75 22C18.5074 22 17.5 23.0074 17.5 24.25C17.5 25.4926 18.5074 26.5 19.75 26.5Z" fill="#E83828"/>
<path d="M19.75 22.5625C19.4425 22.5625 19.1875 22.3075 19.1875 22V16C19.1875 15.6925 19.4425 15.4375 19.75 15.4375C20.0575 15.4375 20.3125 15.6925 20.3125 16C20.3125 17.6425 21.1075 18.4375 22.75 18.4375H28C28.3075 18.4375 28.5625 18.6925 28.5625 19C28.5625 19.3075 28.3075 19.5625 28 19.5625H22.75C21.73 19.5625 20.9125 19.3 20.3125 18.805V22C20.3125 22.3075 20.0575 22.5625 19.75 22.5625Z" fill="#E83828"/>
</g>
<defs>
<linearGradient id="paint0_linear_16802_2309" x1="25" y1="0" x2="25" y2="50.0001" gradientUnits="userSpaceOnUse">
<stop stop-color="#EB3349"/>
<stop offset="0.25" stop-color="#F45C43"/>
</linearGradient>
<clipPath id="clip0_16802_2309">
<rect width="50" height="50" fill="white"/>
</clipPath>
</defs>
</svg>
