<svg width="51" height="51" viewBox="0 0 51 51" fill="none" xmlns="http://www.w3.org/2000/svg">
<g clip-path="url(#clip0_realestate)">
<path d="M44.741 19.7342C44.741 35.2836 27.1872 49.6844 27.1872 49.6844C26.1615 50.5259 24.4828 50.5259 23.4572 49.6844C23.4572 49.6844 5.90332 35.2836 5.90332 19.7342C5.90352 9.00949 14.5976 0.31543 25.3222 0.31543C36.0468 0.31543 44.741 9.00949 44.741 19.7342Z" fill="url(#paint0_realestate)"/>
<path d="M25.3224 29.5043C19.9353 29.5043 15.5527 25.1216 15.5527 19.7347C15.5527 14.3478 19.9355 9.96484 25.3224 9.96484C30.7093 9.96484 35.092 14.3476 35.092 19.7345C35.092 25.1214 30.7095 29.5043 25.3224 29.5043Z" fill="#FFE1D6"/>
<circle cx="25.3223" cy="19.2344" r="13.5" fill="white"/>
<g clip-path="url(#clip1_realestate)">
<g transform="translate(16.32, 10.23) scale(0.75)">
<path d="M11.4697 3.84099C11.7626 3.5481 12.2374 3.5481 12.5303 3.84099L21.2197 12.5303C21.5126 12.8232 21.9874 12.8232 22.2803 12.5303C22.5732 12.2374 22.5732 11.7626 22.2803 11.4697L13.591 2.78033C12.7123 1.90165 11.2877 1.90165 10.409 2.78033L1.71967 11.4697C1.42678 11.7626 1.42678 12.2374 1.71967 12.5303C2.01256 12.8232 2.48744 12.8232 2.78033 12.5303L11.4697 3.84099Z" fill="#9C6B30"/>
<path d="M12 5.43198L20.159 13.591C20.1887 13.6207 20.2191 13.6494 20.25 13.6771V19.875C20.25 20.9105 19.4105 21.75 18.375 21.75H15C14.5858 21.75 14.25 21.4142 14.25 21V16.5C14.25 16.0858 13.9142 15.75 13.5 15.75H10.5C10.0858 15.75 9.75 16.0858 9.75 16.5V21C9.75 21.4142 9.41421 21.75 9 21.75H5.625C4.58947 21.75 3.75 20.9105 3.75 19.875V13.6771C3.78093 13.6494 3.81127 13.6207 3.84099 13.591L12 5.43198Z" fill="#9C6B30"/>
</g>
</g>
</g>
<defs>
<linearGradient id="paint0_realestate" x1="25.3222" y1="0.31543" x2="25.3222" y2="50.3155" gradientUnits="userSpaceOnUse">
<stop stop-color="#cc9e54"/>
<stop offset="1" stop-color="#4b1248"/>
</linearGradient>
<clipPath id="clip0_realestate">
<rect width="50" height="50" fill="white" transform="translate(0.322266 0.31543)"/>
</clipPath>
<clipPath id="clip1_realestate">
<rect width="18" height="18" fill="white" transform="translate(16.3223 10.2344)"/>
</clipPath>
</defs>
</svg>