<svg width="51" height="51" viewBox="0 0 51 51" fill="none" xmlns="http://www.w3.org/2000/svg">
<g clip-path="url(#clip0_16667_2890)">
<path d="M44.741 19.9588C44.741 35.5082 27.1872 49.909 27.1872 49.909C26.1615 50.7505 24.4828 50.7505 23.4572 49.909C23.4572 49.909 5.90332 35.5082 5.90332 19.9588C5.90352 9.2341 14.5976 0.540039 25.3222 0.540039C36.0468 0.540039 44.741 9.2341 44.741 19.9588Z" fill="url(#paint0_linear_16667_2890)"/>
<path d="M25.3224 29.7289C19.9353 29.7289 15.5527 25.3462 15.5527 19.9593C15.5527 14.5724 19.9355 10.1895 25.3224 10.1895C30.7093 10.1895 35.092 14.5722 35.092 19.9591C35.092 25.346 30.7095 29.7289 25.3224 29.7289Z" fill="#FFE1D6"/>
<circle cx="25.3223" cy="19.459" r="13.5" fill="white"/>
<path d="M25.4473 16.1158C25.2305 15.9544 24.9675 15.8672 24.6973 15.8672C24.427 15.8672 24.164 15.9544 23.9473 16.1158L22.0723 17.5214C21.9174 17.6382 21.7916 17.7892 21.7049 17.9627C21.6181 18.1362 21.5727 18.3274 21.5723 18.5214V21.9589C21.5723 22.2904 21.704 22.6084 21.9384 22.8428C22.1728 23.0772 22.4907 23.2089 22.8223 23.2089H26.5723C26.9038 23.2089 27.2217 23.0772 27.4561 22.8428C27.6906 22.6084 27.8223 22.2904 27.8223 21.9589V18.5214C27.8219 18.3274 27.7765 18.1362 27.6898 17.9627C27.603 17.7892 27.4772 17.6381 27.3223 17.5214L25.4473 16.1158ZM25.3223 21.9589V20.7089C25.3223 20.5432 25.2564 20.3842 25.1392 20.267C25.022 20.1498 24.863 20.0839 24.6973 20.0839C24.5315 20.0839 24.3725 20.1498 24.2553 20.267C24.1381 20.3842 24.0723 20.5432 24.0723 20.7089V21.9589H22.8223V18.5214L24.6973 17.1152L26.5723 18.5214V21.9589H25.3223Z" fill="#2D90EE"/>
<path d="M33.8989 17.7775C33.8422 17.7182 33.7744 17.6706 33.6993 17.6374C33.6241 17.6043 33.5433 17.5863 33.4612 17.5845C33.3791 17.5826 33.2975 17.5969 33.221 17.6266C33.1444 17.6563 33.0745 17.7008 33.0152 17.7575L32.6939 18.065C32.3666 16.2044 31.4003 14.5163 29.9615 13.2919C28.5227 12.0675 26.7018 11.3836 24.8128 11.3582C22.9237 11.3327 21.085 11.9673 19.6138 13.1525C18.1426 14.3376 17.1311 15.9991 16.7538 17.8503C16.3765 19.7014 16.657 21.6262 17.547 23.2926C18.4371 24.9591 19.8807 26.2627 21.629 26.9786C23.3773 27.6945 25.3207 27.7778 27.1239 27.2142C28.9271 26.6506 30.477 25.4754 31.5064 23.8913C31.5555 23.8226 31.5901 23.7448 31.6083 23.6625C31.6265 23.5801 31.6278 23.4949 31.6122 23.412C31.5966 23.3291 31.5644 23.2503 31.5174 23.1802C31.4705 23.1101 31.4099 23.0502 31.3393 23.0041C31.2686 22.9581 31.1894 22.9268 31.1063 22.9122C31.0232 22.8976 30.938 22.8999 30.8559 22.9191C30.7738 22.9383 30.6964 22.9739 30.6284 23.0238C30.5603 23.0737 30.5031 23.1368 30.4602 23.2094C29.6016 24.5358 28.3129 25.5265 26.8103 26.0153C25.3078 26.504 23.6828 26.461 22.2082 25.8935C20.7336 25.326 19.4991 24.2685 18.7118 22.8986C17.9246 21.5286 17.6325 19.9295 17.8847 18.3697C18.1369 16.8099 18.918 15.3844 20.0968 14.3323C21.2756 13.2802 22.7805 12.6656 24.3588 12.5917C25.9371 12.5178 27.4928 12.989 28.7648 13.9263C30.0368 14.8636 30.9477 16.21 31.3445 17.7394C31.2286 17.6393 31.0798 17.5858 30.9267 17.5892C30.7736 17.5925 30.6272 17.6525 30.5158 17.7575C30.3959 17.8719 30.3264 18.0291 30.3224 18.1947C30.3184 18.3603 30.3803 18.5207 30.4945 18.6406L31.6883 19.8906C31.7449 19.9501 31.8127 19.9978 31.8878 20.031C31.9628 20.0643 32.0437 20.0824 32.1258 20.0844H32.1395C32.3006 20.0846 32.4556 20.0225 32.572 19.9113L33.8783 18.6613C33.9377 18.6046 33.9853 18.5368 34.0185 18.4617C34.0517 18.3866 34.0697 18.3057 34.0717 18.2237C34.0736 18.1416 34.0593 18.06 34.0297 17.9834C34 17.9068 33.9556 17.8369 33.8989 17.7775Z" fill="#2D90EE"/>
</g>
<defs>
<linearGradient id="paint0_linear_16667_2890" x1="25.3222" y1="0.540039" x2="25.3222" y2="50.5401" gradientUnits="userSpaceOnUse">
<stop stop-color="#78BCFD"/>
<stop offset="1" stop-color="#298EED"/>
</linearGradient>
<clipPath id="clip0_16667_2890">
<rect width="50" height="50" fill="white" transform="translate(0.322266 0.540039)"/>
</clipPath>
</defs>
</svg>
