<svg width="40" height="40" viewBox="0 0 40 40" fill="none" xmlns="http://www.w3.org/2000/svg">
<g clip-path="url(#clip0_16800_2238)">
<path d="M35.535 15.535C35.535 27.9745 21.4919 39.4952 21.4919 39.4952C20.6714 40.1684 19.3285 40.1684 18.5079 39.4952C18.5079 39.4952 4.46484 27.9745 4.46484 15.535C4.465 6.95525 11.4202 0 20 0C28.5797 0 35.535 6.95525 35.535 15.535Z" fill="url(#paint0_linear_16800_2238)"/>
<path d="M19.9998 23.3503C15.6901 23.3503 12.1841 19.8442 12.1841 15.5346C12.1841 11.2251 15.6903 7.71875 19.9998 7.71875C24.3093 7.71875 27.8155 11.2249 27.8155 15.5345C27.8155 19.844 24.3095 23.3503 19.9998 23.3503Z" fill="#FFE1D6"/>
<circle cx="20.0002" cy="15.135" r="10.8" fill="white"/>
<path d="M16.4739 17.9469H15.9325C15.6846 17.9469 15.4825 17.7448 15.4825 17.4969V15.6969C15.4825 15.4485 15.2809 15.2469 15.0325 15.2469C14.7841 15.2469 14.5825 15.4485 14.5825 15.6969V17.4969C14.5825 18.2412 15.1882 18.8469 15.9325 18.8469H16.4739C16.6692 19.4949 17.2645 19.9719 17.9755 19.9719C18.6865 19.9719 19.2819 19.4949 19.4772 18.8469H21.3505H22.3239C22.5192 19.4949 23.1145 19.9719 23.8255 19.9719C24.5365 19.9719 25.1319 19.4949 25.3272 18.8469H26.3005C26.5489 18.8469 26.7505 18.6453 26.7505 18.3969V16.1469C26.7505 15.8125 26.6106 15.3508 26.4252 15.0727L25.1242 13.1215C24.9019 12.7885 24.4501 12.5469 24.0501 12.5469H22.7883V11.6469C22.7883 10.9026 22.1826 10.2969 21.4383 10.2969H20.0005C19.7521 10.2969 19.5505 10.4985 19.5505 10.7469C19.5505 10.9953 19.7521 11.1969 20.0005 11.1969H21.4387C21.6867 11.1969 21.8887 11.3989 21.8887 11.6469V17.9469H21.3505H19.4772C19.2819 17.2989 18.6865 16.8219 17.9755 16.8219C17.2645 16.8219 16.6692 17.2989 16.4739 17.9469ZM23.8255 19.0719C23.4534 19.0719 23.1505 18.769 23.1505 18.3969C23.1505 18.0247 23.4534 17.7219 23.8255 17.7219C24.1977 17.7219 24.5005 18.0247 24.5005 18.3969C24.5005 18.769 24.1977 19.0719 23.8255 19.0719ZM22.7887 13.4469H24.0505C24.1482 13.4469 24.3214 13.5396 24.3759 13.621L25.1598 14.7969H22.7887V13.4469ZM22.7887 15.6969H25.7412C25.8024 15.8395 25.8505 16.0285 25.8505 16.1469V17.9469H25.3272C25.1319 17.2989 24.5365 16.8219 23.8255 16.8219C23.4268 16.8219 23.0664 16.9753 22.7887 17.2206V15.6969ZM18.6505 18.3969C18.6505 18.769 18.3477 19.0719 17.9755 19.0719C17.6034 19.0719 17.3005 18.769 17.3005 18.3969C17.3005 18.0247 17.6034 17.7219 17.9755 17.7219C18.3477 17.7219 18.6505 18.0247 18.6505 18.3969Z" fill="#49C55E"/>
<path d="M19.1005 10.7469C19.1005 10.4985 18.8989 10.2969 18.6505 10.2969H13.7005C13.4521 10.2969 13.2505 10.4985 13.2505 10.7469C13.2505 10.9953 13.4521 11.1969 13.7005 11.1969H18.6505C18.8989 11.1969 19.1005 10.9953 19.1005 10.7469Z" fill="#49C55E"/>
<path d="M17.7504 12.9967C17.9988 12.9967 18.2004 12.7951 18.2004 12.5467C18.2004 12.2983 17.9988 12.0967 17.7504 12.0967H14.6004C14.352 12.0967 14.1504 12.2983 14.1504 12.5467C14.1504 12.7951 14.352 12.9967 14.6004 12.9967H17.7504Z" fill="#49C55E"/>
<path d="M16.8503 14.7975C17.0987 14.7975 17.3003 14.5959 17.3003 14.3475C17.3003 14.0991 17.0987 13.8975 16.8503 13.8975H15.5003C15.2519 13.8975 15.0503 14.0991 15.0503 14.3475C15.0503 14.5959 15.2519 14.7975 15.5003 14.7975H16.8503Z" fill="#49C55E"/>
</g>
<defs>
<linearGradient id="paint0_linear_16800_2238" x1="19.9999" y1="0" x2="19.9999" y2="40.0001" gradientUnits="userSpaceOnUse">
<stop stop-color="#49C55E"/>
<stop offset="1" stop-color="#13A32B"/>
</linearGradient>
<clipPath id="clip0_16800_2238">
<rect width="40" height="40" fill="white"/>
</clipPath>
</defs>
</svg>
