<?xml version="1.0" encoding="utf-8"?>
<!-- Generator: Adobe Illustrator 23.0.1, SVG Export Plug-In . SVG Version: 6.00 Build 0)  -->
<svg version="1.1" xmlns="http://www.w3.org/2000/svg" xmlns:xlink="http://www.w3.org/1999/xlink" x="0px" y="0px"
	 viewBox="0 0 800 600" style="enable-background:new 0 0 800 600;" xml:space="preserve">
<style type="text/css">
	/* ═══════════════════════════════════════════════════════════════
	   HERO MAP — ENTRY ANIMATION TIMING CONSTANTS
	   ═══════════════════════════════════════════════════════════════
	   BORDER_DRAW_DURATION : 3000ms              — czas rysowania granic
	   BORDER_DRAW_EASING  : cubic-bezier(0,0,0.2,1) — easeOut
	   SEGMENT_SIZE         : 1000                — długość jednego segmentu dasharray
	   SEGMENTS             : 5                   — ile punktów rysowania na ścieżkę
	   PIN_FADE_DURATION    : 600ms               — czas fade-in jednego pinu
	   PIN_STAGGER          : 100ms               — opóźnienie między kolejnymi pinami
	   PIN_BASE_DELAY       : 2400ms              — start w trakcie rysowania granic (~80%)
	   ═══════════════════════════════════════════════════════════════ */

	/* --- Region borders: 5 segments draw simultaneously from different
	       points along each path and merge into the full border.
	       dasharray interpolates: 0/1000 gaps → 1000/0 solid --- */
	.st0{fill:none;stroke:#1877F2;stroke-width:4.5;stroke-linecap:round;stroke-linejoin:round;
	     stroke-dasharray:0 1000 0 1000 0 1000 0 1000 0 1000;
	     animation:drawBorder 3000ms cubic-bezier(0,0,0.2,1) forwards}
	.st1{font-family:'Roboto-Regular'}
	.st2{font-size:14px}

	/* --- Border draw keyframes: grow 5 dashes, shrink 5 gaps --- */
	@keyframes drawBorder{
		to{stroke-dasharray:1000 0 1000 0 1000 0 1000 0 1000 0}
	}

	/* --- Pin jumping animation (existing) --- */
	@keyframes jmp{0%,11.11%,22.22%{transform:translateY(0);animation-timing-function:cubic-bezier(.4,0,.2,1)}5.55%{transform:translateY(-12px);animation-timing-function:cubic-bezier(.4,0,.2,1)}16.66%{transform:translateY(-10px);animation-timing-function:cubic-bezier(.4,0,.2,1)}27.77%{transform:translateY(-6px);animation-timing-function:cubic-bezier(.4,0,.2,1)}33.33%,to{transform:translateY(0)}}

	/* --- Pin entry keyframes (slow opacity fade-in) --- */
	@keyframes pinFadeIn{from{opacity:0}to{opacity:1}}

	/* --- Pin wrapper: invisible until fade animation fires --- */
	.mw{cursor:pointer;opacity:0;animation:pinFadeIn 400ms ease-out forwards}
	.jm{animation:jmp 18s infinite cubic-bezier(.4,0,.2,1)}

	.mw:hover .jm{animation-play-state:paused}

	/* --- Pin stagger delays: PIN_BASE_DELAY + index × PIN_STAGGER ---
	   g:nth-of-type(2)  = 1st pin … g:nth-of-type(14) = 13th pin --- */
	.mw:nth-of-type(2){animation-delay:1700ms}
	.mw:nth-of-type(3){animation-delay:1900ms}
	.mw:nth-of-type(4){animation-delay:2100ms}
	.mw:nth-of-type(5){animation-delay:2200ms}
	.mw:nth-of-type(6){animation-delay:2800ms}
	.mw:nth-of-type(7){animation-delay:2850ms}
	.mw:nth-of-type(8){animation-delay:2950ms}
	.mw:nth-of-type(9){animation-delay:3050ms}
	.mw:nth-of-type(10){animation-delay:3100ms}
	.mw:nth-of-type(11){animation-delay:3150ms}
	.mw:nth-of-type(12){animation-delay:3270ms}
	.mw:nth-of-type(13){animation-delay:3290ms}
	.mw:nth-of-type(14){animation-delay:3310ms}

	/* --- prefers-reduced-motion: skip all animations, show final state --- */
	@media(prefers-reduced-motion:reduce){
		.st0{stroke-dasharray:none;animation:none}
		.mw{opacity:1;animation:none}
		.jm{animation:none}
	}
</style>
<g id="Poland">
	<path class="st0" d="M417.938,517.107l-0.312-0.125l-0.329,0.145l-0.217,0.435l-4.933,5.453l-0.429,0.371l-0.806,0.326
		l-0.588,0.095l-1.752-0.018l-1.094,0.236l-0.929,0.457l-0.829,0.792l-0.776,1.245l-0.911,2.841l0.1,0.099l0.182,0.262l0.112,0.416
		l-0.135,0.583l-0.253,0.19l-0.7,0.018l-0.165,0.036l-0.4,1.704l-0.147,1.089l-0.412,0.7l-1.752,0.705l-1.429,0.284l-0.588-0.041
		l-0.547-0.28l-1.129-0.827l-0.523-0.181l-1.241,0.294l-2.199,1.283l-1.441,0.113l-1.111-0.208l-0.318-0.985l0.235-2.874
		l-0.147-1.298l-0.276-1.185l-0.059-1.249l0.5-1.475l-1.646-1.009l-5.633-0.521l0.241-1.463l-0.165-1.812l-0.817-3.74l-0.253-0.794
		l-0.67-1.533l-0.265-0.844l-0.382-3.024l-0.235-0.686l-0.853-0.636l-0.888,0.154l-0.888,0.386l-0.829,0.068l-0.717-0.432
		l-1.117-1.322l-0.741-0.609l-0.811-0.245l-1.752-0.155l-0.759-0.532l-0.359-0.659l-0.57-2.56l-1.341-2.767l-0.988-2.677
		l-0.023-2.365l1.564-1.819l-1.511-0.816l-0.247-1.081l0.141-1.355l-0.353-1.602l-0.841-0.511l-2.24,1.438l-1.323,0.005
		l-4.227-2.342l-2.199-0.785l-2.293,0.283h0.124l0.1,0.05l0.076,0.1l0.065,0.151l-1.593,1.392l-0.823,0.164l-1.129-0.927
		l-0.317-0.598l-0.394-1.37l-0.241-0.484l-0.676-0.503l-1.335-0.279l-0.67-0.302l-1.793-1.549l-0.864-0.48l-3.634-0.69l-0.741-0.86
		l0.37-1.633l-3.322-2.178l-0.806-0.202l0.001-0.013l0.082-1.474l3.381-6.636l7.173-1.5l3.416-2.593l5.503-2.588l0.612-2.585
		l0.047-4.557l-0.964-11.436l0.517-1.827l1.223-0.24l1.252-0.591l0.112-1.605l-0.635-1.573l0.753-2.022l1.664-0.397l8.266,0.076
		l-0.641-3.219l-1.829-1.955l-1.834-1.423l-1.511-2.054l-1.105-3.411l1.358-3.659l1.011-5.634l1.523-3.212l4.445-2.874l0.411-3.191
		l-0.764-1.67l-0.353-2.05l0.423-1.394l0.711-0.853l1.964-6.944l2.852-1.397l8.037-0.269l1.858-0.874l1.805-1.248l1.999,0.395
		l1.746,1.778l7.437,4.028l3.686,0.77l4.539-0.028l1.958-1.711l3.828,0.712l3.428,3.159l5.309,8.482l1.923,0.582l5.697-0.312
		l6.185,3.155l4.868,0.949l0.711,0.391l0.212,1.004l0.012,1.106l-0.271,0.711l-3.898,0.641l-2.14,4.064l1.564,1.866l4.286,1.234
		l1.964,1.498l1.587,3.541l2.699,3.307l-2.281,0.338l-3.922,3.313l-1.141,2.483l1.993,1.04l3.869,0.582l1.593,0.624l0.382,1.938
		l0.147,1.6l-7.191,4.517l-1.799,0.288l-3.192-0.26l-3.116,0.489l-5.039,3.927l-1.446,0.329l-1.458,0.007l-3.151-1.822l-1.529,2.287
		l-1.581,3.186l-2.469,3.533l-3.798-0.547l-1.793,1.398l3.022,3.022l2.652,3.685l-13.493,15.171l-1.246,1.845l-1.264,2.6
		l-0.647,2.957l1.147,1.502l1.511,0.155l1.217,1.542l0.123,2.946l1.699,3.056l2.899,1.137l1.152,2.12l0.864,2.706l1.846,1.731
		l2.128,0.966l3.845,0.682l-0.194,2.313l-0.97,1.967l-0.482,1.834l0.723,1.584l1.341,0.907L417.938,517.107z"/>
	<path class="st0" d="M441.798,552.035l-0.801,0.829l-1.264,0.468l-2.622-0.198l-1.435-0.526l-0.735-1.017l0.001-0.006l0.228-1.142
		l2.152-3.521l0.253-0.207l0.365-0.104l0.329-0.194l0.135-0.491l-0.106-0.378l-0.021-0.022l-0.432-0.456l-0.015-0.032l-0.091-0.198
		l-0.006-0.004l-0.776-0.577l-0.2-0.293l0.001-0.007l0.035-0.363l0.435-0.654l0.088-0.356l-0.335-4.222l-0.288-1.453l-0.529-1.653
		l-0.012-0.009l-0.512-0.389l-1.905,0.768l-1.152,0.117l-1.241-0.135l-3.269-1.118l0.003-0.026l0.121-1.029l-0.035-1.369
		l0.088-0.475l0.265-0.552l-2.275-0.023l-1.188-0.321l-0.976-0.755l-0.294-0.624l-0.917-2.787l-1.035-4.419l-0.688-1.763
		l-1.335-0.888l-0.429-0.458l-0.958-1.696l-0.482-0.202l-0.294-1.018l-1.341-0.907l-0.723-1.584l0.482-1.834l0.97-1.967l0.194-2.313
		l-3.845-0.682l-2.128-0.966l-1.846-1.731l-0.864-2.706l-1.152-2.12l-2.899-1.137l-1.699-3.056l-0.123-2.946l-1.217-1.542
		l-1.511-0.155l-1.147-1.502l0.647-2.957l1.264-2.6l1.246-1.845l13.493-15.171l-2.652-3.685l-3.022-3.022l1.793-1.398l3.798,0.547
		l2.469-3.533l1.581-3.186l1.529-2.287l3.151,1.822l1.458-0.007l1.446-0.329l5.039-3.927l3.116-0.489l3.192,0.26l1.799-0.288
		l7.191-4.517l-0.147-1.6l-0.382-1.938l5.368,0.009l2.234,1.201l1.917,2.018l4.774,1.509l4.38,2.929l2.599,5.153l0.958,4.098
		l0.982,2.075l2.581,3.641l1.076,2.279l4.18,2.514l7.473,0.204l1.705-1.823l0.223-0.941l0.7-1.098l1.84-0.887l0.794-0.774
		l0.165-0.469l0.07-0.945l0.194-0.437l0.235-0.166l0.506-0.028l0.194-0.11l1.199-1.214l0.359-1.527l0.37-0.552l2.181,2.079
		l0.935-0.437l0.77-0.814l0.753-0.488l0.882,0.58l0.776-0.513l1.552-0.152l0.529-0.304l0.559-0.743l0.476-0.419l0.588-0.221
		l4.221-0.138l0.864-0.235l0.635-0.539l0.529-0.608l0.535-0.442l2.346-1.135l0.564-0.138l0.841,0.339l0.506,0.663l0.559,0.488
		l1.005-0.216v-0.147l0.994-1.403l0.406-0.302l0.306-0.023l0.206-0.173l0.071-0.749l0.3-0.47l0.659-0.337l0.676-0.611l0.306-1.266
		l0.529,0.447l0.388,0.023l0.635-0.47l0.07-0.272l-0.07-0.434l-0.029-0.397l0.223-0.173l0.817,0.069l-0.641,7.499l-1.734,4.209
		l-2.122,3.672l-0.347,4.988l1.529,13.386l-0.464,3.92l-0.047,3.416l0.512,1.021l0.453,1.206l1.211,1.449l1.629,0.132l2.122,1.148
		l0.758,2.525l-5.644,4.383l-0.982,2.182l1.681,1.548l6.121,2.625l3.422,3.699l1.97,6.129l0.194,3.117l-0.318,3.047l1.047,6.385
		l2.04,5.816l0.071,0.248l0.008,0.03l-1.037,0.422l-0.835-0.249l-2.111,0.465l-0.941,0.009l-5.544-1.573l-3.187-1.704l-0.788-0.19
		l-1.029,0.714l-1.776,2.639l-0.976,0.917l-1.223,0.203l-0.87-0.601l-0.811-0.908l-1.029-0.709l-0.882-0.081l-2.311,0.47
		l-0.87,0.416l-1.152,1.292l0.694,0.795l1.311,0.799l0.694,1.318l-0.465,0.799l-1.052,0.212l-1.199,0.014l-0.894,0.19l-1.17,1.142
		l-1.858,2.729l-1.229,1.068l-1.335,0.482l-1.047-0.198l-0.923-0.672l-0.929-0.969l-1.064-0.794l-0.894-0.135l-0.97,0.059
		l-1.276-0.198l-0.899-0.659l-5.05-6.053l-0.888-0.158l-2.152,0.348l-1.229-0.185l-0.523,0.036l-0.582,0.33l-0.905,1.125
		l-0.653,0.614l-1.346,0.483l-1.246-0.307l-4.809-2.461l-0.888,0.203l0.012,1.504l-2.94,0.113l-2.328-0.881l-0.676,0.014
		l-0.582,0.438l-0.212,0.542l-0.117,0.804l-0.294,1.246l-0.406,1.209l-0.282,0.388l-4.392,0.388l-0.864,0.487l-1.241,1.484
		l-0.559,0.523l-1.252-0.149l-0.141-0.135l-0.323,0.433l-1.088,2.447l-0.323,1.036l-0.394,0.968l-0.706,0.856l-0.323,3.043
		l-0.588,2.177l-1.111,0.859l-1.887-0.926l-2.934-2.767l-1.582-0.824l-1.823,0.202l-1.029,0.765L441.798,552.035z"/>
	<path class="st0" d="M593.762,563.216l-1.97-0.974l-4.451-0.193l-2.087-0.642l-2.881-2.906l-1.211-0.481l-3.145,0.121l-2.669-0.818
		l-0.423-0.364l-0.129-0.548l0.159-0.562l-0.006-0.611l-0.623-0.697l-0.47-0.09l-1.364,0.166l-0.57-0.036l-0.658-0.292l-1.852-1.196
		l-4.027-0.769l-1.611-1.183l-0.376-2.773l-0.717-3.077l-1.635-2.65l-2.052-1.939l-3.063-1.534l-2.087-1.927l-1.041-0.596
		l-1.147,0.212l-0.982,0.903l-0.805,0.961l-0.594,0.397l-0.876-0.713l-1.911-2.953l-0.958-0.985l-0.564-0.167l-0.882,0.199
		l-0.429-0.059l-0.576-0.402l-1.058-1.035l-0.576-0.389l-1.064-0.276l-4.074,0.461l-0.862,0.351l-0.008-0.03l-0.071-0.248
		l-2.04-5.816l-1.047-6.385l0.318-3.047l-0.194-3.117l-1.97-6.129l-3.422-3.699l-6.121-2.625l-1.681-1.548l0.982-2.182l5.644-4.383
		l-0.758-2.525l-2.122-1.148l-1.629-0.132l-1.211-1.449l-0.453-1.206l-0.512-1.021l0.047-3.416l0.464-3.92l-1.529-13.386
		l0.347-4.988l2.122-3.672l1.734-4.209l0.641-7.499l0.194-0.069l3.492-3.048l1.07,0.478l1.446-0.316l1.452-0.854l1.082-1.136
		l-0.559-1.423l-0.218-0.411l5.439-2.44l3.645-0.946l1.046-0.89l1.746-2.105l0.717-1.393l0.294-1.727l0.4-1.403l2.704-3.216
		l1.629-2.722l0.976-0.71l1.493-0.244l1.017-0.545l0.87-1.323l0.67-1.611l0.406-1.426l0.464-3.536l-0.065-3.33l-0.182-1.219
		l7.514,5.126l4.263,0.214l3.763-2.646l2.24-0.098l2.175,0.832l2.017,1.255l1.817,1.604l-0.794,2.281l-2.587,4.893l1.052,1.832
		l13.264,3.379l8.954,4.828l0.523,0.821l-0.059,1.217l0.141,1.24l1.346,2.517l0.653,2.179l-1.558,0.905l-1.764-0.219l-1.787,0.596
		l-1.405,1.872l-0.952,1.855l0.411,2.219l1.476,2.277l1.999,0.933l7.925-1.574l1.529,1.051l-0.894,0.521l-1.934,0.484l0.559,1.308
		l7.784,2.215l12.782,0.417l4.304-0.912l3.68-2.987l4.686-5.32l1.499-0.655l3.245-0.314l4.192,0.466l3.581,2.302l1.846,2.766
		l5.697,3.34l0.032,0.018l-0.037,0.124l-0.788,1.151l-4.486,4.886l-1.646,1.333h-0.006l-0.006,0.005h-0.006l-3.099,2.385
		l-2.569,1.998l-12.999,14.151l-1.711,2.654l-2.081,1.637l-2.264,2.509l-6.168,9.069l-2.381,2.452l-0.3,0.729l-0.465,1.776
		l-0.265,0.629l-0.494,0.496l-1.005,0.373l-0.5,0.332l-0.553,0.678l-3.504,6.367l-0.958,0.973l-0.623,0.268l-1.223,0.245
		l-0.635,0.55l-0.412,0.759l-0.982,2.806l-4.315,5.819l-1.417,3.385l1.094,3.133l0.382,1.281l0.353,3.722l0.212,0.994l0.159,0.484
		l0.741,1.175l1.229,1.301l0.318,0.668l0.253,1.391l0.77,8.001l-0.217,1.266l-0.958,2.652l-0.805,3.083l-0.9,1.884l-0.306,1.057
		l0.347,0.463l0.265-0.175l0.753-0.949l0.894,0.629l-0.071,0.036l-0.218,0.054l1.846,1.303l1.664,2.197l1.047,0.777l2.552,1.432
		l0.688,0.88l0.006,0.736l-0.517,1.701l-0.071,1.18l0.247,0.816l0.923,1.591l0.072,0.184l0.11,0.282L611.717,570l-1.152-0.497
		l-1.258-1.138l-1.017-0.533l-0.629-0.202l-1.052-1.48l-0.576-0.547l-0.617-0.072l-1.282,0.39l-2.058-0.153l-1.217,0.117
		l-1.223-0.148l-1.399-0.96l-2.134-2.365l-1.141-0.354L593.762,563.216z"/>
	<path class="st0" d="M194.559,412.074l-4.571-1.606l-2.369,0.2l-0.529,0.66l-0.541,0.958l-0.629,0.665l-0.095-0.03l-0.71-0.225
		l-0.365-0.744l0.047-0.856l0.159-0.902l-0.018-0.875l-0.682-1.689l-0.864-0.717l-1.029-0.456l-1.135-0.913l-0.606-0.978
		l-0.67-1.491l-0.529-1.589l-0.171-1.282l0.4-1.66l0.494-0.947l0.059-0.872l-0.911-1.48l-1.517-0.756l-3.24-0.051l-0.535-1.326
		l-0.265-1.373l-0.664-0.336l-0.735,0.519l-0.512,1.182v0.009l-0.188,0.92l-0.641,0.131l-0.8-0.397l-0.67-0.663l-0.482-0.892
		l-2.881-0.635l-1.082-0.998l-0.159,0.745l-0.265,0.416l-0.823,0.603l-0.323,0.07l-0.323,0.154l-0.288,0.238l-0.259,0.308h-0.006
		l0.241,1.023l0.923,0.733l0.864,1.265l0.065,2.622l-0.176,0.457l-0.559,0.634l-0.159,0.308l-0.053,0.504l0.035,0.345l0.065,0.256
		l0.071,3.131l-0.118,0.778l-6.497-0.48l-2.058,0.578l-1.211-0.042l0.006-1.677l0.805-1.333l2.023-2.256l2.869-6.846l2.54-6.457
		l0.171-1.039l0.012-1.741l0.1-0.892l0.306-0.627l0.441-0.419l0.376-0.604l0.118-1.164l0.065-2.292l0.464-2.546l0.77-2.419
		l0.976-1.922l-0.235-0.254l-0.206-0.282l0.294-2.638l-0.829-1.784l-1.288-1.521l-1.052-1.855l-0.159-0.628l-0.247-1.633v-0.085
		l-0.341-3.863l1.07-0.635l9.101-4.755l1.64-0.031l3.345,2.908l1.658,0.132l2.875-4.967l1.893-2.271l4.169-1.455l7.996,4.419
		l4.027-1.001l6.297-8.335l5.597-10.961l1.223-0.906l1.999-0.662l1.711-1.741l0.835-2.379l1.117-1.541l8.631,1.612l1.517,1.638
		l0.188,3.179l3.157,4.046l4.504-1.007l3.469-3.044l2.787-4.523l4.968-0.959l2.311,0.617l6.414,3.494l1.005,2.315l0.188,2.984
		l2.464,4.364l5.515,3.078l3.11,3.44l6.555,2.344l11.753-2.077l2.152-4.901l2.381-0.492l6.685,0.028l6.285,1.727l5.65,3.669
		l-0.565,2.632l-0.788,2.255l-1.382,0.913l-0.758,1.946l0.312,3.949l1.323,3.342l3.363,0.786l3.486-0.704l2.164,0.603l2.052,1.652
		l-1.605,3.834l0.647,9.323l0.741,4.52l-1.887,1.153l-1.981,0.492l-1.952-0.138l-1.852,0.616l-1.476,1.602l-3.31,7.63l-0.6,2.21
		l-0.365,2.347l-0.917,2.742l-1.805,1.208l-2.704,3.511l-2.034,4.73l-4.739,7.037l-4.086,7.803l-1.311,5.039l-2.046,3.524
		l-3.445,0.565l-2.981,2.293l-4.104,10.251l-0.241,1.063l-1.605-0.966l-1.299-0.166l-1.546,0.941l0.006,1.246l1.823,2.697
		l0.647,1.632l0.423,1.898l0.559,1.727l1.064,1.1l1.388,0.815l1.035,1.141l0.6,1.596l0.082,2.161l0.741,0.984l0.112,1.172
		l-0.365,0.758L278.42,463l-0.605-0.91l-0.265-0.538l-0.341-0.234l-0.835-0.014l-0.159,0.244l0.012,1.075l-0.141,0.326l-0.512,0.037
		l-1.052-0.377l-0.5,0.018l-0.682,0.473l-0.947,1.318l-0.535,0.478l-0.637,0.163l-0.691,0.177l-1.141-0.078l-1.129,0.165
		l-1.276,1.097l-1.023,1.551l-0.617,1.202l-0.694,0.986l-1.264,0.917l-1.752,2.397l-2.311,0.169l-2.387-1.242l-1.958-1.811l-1-1.312
		l-0.535-1.11l-0.647-3.029l-0.617-1.681l-1.723-1.801l-0.723-1.31l-0.823-1.122l-1.446-2.64l-0.817-1.155l-1.264-0.888l-2.534-0.93
		l-1.011-1.349l-0.147-0.778l0.047-0.811l-0.041-0.829l-0.4-0.829l-0.541-0.171h-2.593l-0.664,0.217l-0.406,0.355l-0.417,0.092
		l-0.729-0.59l-0.27-0.516l-0.735-2.301l-1.846-0.327l-0.535-1.596l0.447-1.417l1.135,0.258l-0.106-0.272l-0.276-0.992l0.347-0.032
		l0.523-0.332l0.312-0.125l0.876-0.734l0.999-0.596l0.853-0.734l0.441-1.155l0.894-0.291l1.823,0.508l0.976-0.217l0.535-0.753
		l1.17-1.16l0.488-0.684l-0.159,0.051l-0.006-0.527l0.076-0.689l0.088-0.453l0.247-0.518l0.159-0.25v-0.296l-0.217-0.676
		l1.787-0.736l-0.517-1.708l-4.845-5.147l-1.746-0.992l-1.858-0.478l-2.064-0.042l-0.735,0.158l-0.417,0.9l-0.412,1.145
		l-0.694,0.876l-0.958,0.222l-0.864-0.408l-1.799-1.381l-2.399-0.246l-3.528,3.425l-2.416,0.445l-0.118-0.269l-0.041-0.283
		l0.047-0.287l0.112-0.292l0.817-0.667l0.129-1.066l-0.312-1.238l-0.494-1.215l-0.741-1.41l-0.764-0.742l-0.941-0.135l-3.369,1.271
		l-1.576,0.046l-0.365-0.13l-2.875-4.906l-0.182-0.548l-0.123-0.613l-1.411-0.135l-4.727,1.147l-0.6-0.19l-0.418-0.409l-0.752-1.157
		l-0.647-0.432L194.559,412.074z"/>
	<path class="st0" d="M275.444,444.527l0.241-1.063l4.104-10.251l2.981-2.293l3.445-0.565l2.046-3.524l1.311-5.039l4.086-7.803
		l4.739-7.037l2.034-4.73l2.704-3.511l1.805-1.208l0.917-2.742l0.365-2.347l0.6-2.21l3.31-7.63l1.476-1.602l1.852-0.616l1.952,0.138
		l1.981-0.492l1.887-1.153l1.97-0.112l1.875,0.97l0.758,1.949l0.323,2.212l2.987,2.422l3.622,0.201l6.738-2.48l6.503-3.889
		l1.276,2.3l1.676,1.346l12.723,3.285l4.022-0.11l0.741-0.653l0.523-0.936l0.676-0.384l1.529,1.874l1.323,2.579l4.268,3.453
		l-1.964,6.944l-0.711,0.853l-0.423,1.394l0.353,2.05l0.764,1.67l-0.411,3.191l-4.445,2.874l-1.523,3.212l-1.011,5.634l-1.358,3.659
		l1.105,3.411l1.511,2.054l1.834,1.423l1.829,1.955l0.641,3.219l-8.266-0.076l-1.664,0.397l-0.753,2.022l0.635,1.573l-0.112,1.605
		l-1.252,0.591l-1.223,0.24l-0.517,1.827l0.964,11.436l-0.047,4.557l-0.612,2.585l-5.503,2.588l-3.416,2.593l-7.173,1.5
		l-3.381,6.636l-0.082,1.474l-0.001,0.013l-0.946-0.237l0.253,2.005l0.3,0.128l0.453-0.142l0.488,0.014l0.4,0.613l0.1,0.883
		l-0.288,0.389l-1.852,0.553l-2.281,0.069l-1.035,0.27l-1.676,1.5l-2.07,0.631l-2.069-0.439l-3.686-3.677l-0.641-0.888l-0.447-1.057
		l-0.318-1.094l-0.388-0.98l-0.629-0.756l-0.535-0.536l-0.176-0.509l0.182-0.486l0.529-0.454l0.023-0.064l0.012-0.069l-0.012-0.082
		l-0.023-0.087l-0.8-0.17l-1.546-0.77l-0.747-0.202l-0.606,0.142l-0.482,0.28l-0.576,0.105l-0.888-0.403l-2.763-3.508l-0.118-0.647
		l0.418-0.895l0.623-0.317l2.746-0.106l1.517-0.597l2.422-1.455l1.152-1.001l0.535-1.346l-0.888-1.645l-0.6-0.598l-0.129-0.896
		l0.112-0.814l0.617-1.665l0.129-0.281l0.041-0.267l-0.029-0.239l-0.141-0.202l-1.047-1.418l-0.318-0.299l-0.964-0.359l-0.37,0.239
		l-0.147,0.608l-0.318,0.727l-1.687,2.342l-0.976,0.8l-1.317,0.345l-5.086-0.901l-2.71,0.248l-1.67,2.032l-0.294,0.198l-0.3,0.064
		l-0.306-0.069l-0.288-0.193l-0.529-1.655l-1.241-1.007l-1.258,0.097l-0.617,1.628l-0.759-0.575l-0.394-0.915l-0.112-1.127
		l0.071-1.159l-0.259-0.225l-0.235-0.258l-0.2-0.299l-0.159-0.336l1.047-0.423l-1.176-0.502l-2.669,0.078l-1.352-0.391l-2.005-1.271
		l-0.559-0.608l-0.341-0.774l-0.353-1.152l-0.194-0.968l0.123-0.249l-0.664-0.203l-1.735,0.36l-0.782-0.009l-0.729-0.387
		l-1.323-1.116l-0.623-0.383l-5.844-1.642l-1.317,0.157L275.444,444.527z"/>
	<path class="st0" d="M609.218,73.785l0.077-0.143l1.417-0.667l1.211,0.167l3.41,1.767l0.617,0.081l1.293-0.273l0.582,0.136
		l0.606,0.616l0.323,0.762l0.253,0.762l0.359,0.626l0.641,0.439l1.952,0.232l0.359,0.54l-0.206,0.928l-0.329,1.104l-0.006,1.033
		l1.023,1.436l1.305-0.005l1.358-0.579l1.146-0.257l1.035,0.504l3.528,2.966l2.169,1.334l4.586,1.741l1.136,0.972l1.051,0.899
		l0.547,0.855l1.035,1.985l0.523,0.754l0.588,0.402l1.223,0.337l0.523,0.311l0.941,1.396l0.794,1.942l0.623,2.172l0.435,2.071
		l0.829,4.524l0.018,2.187l-0.847,1.486l-0.688,0.575l-0.306,0.38l-0.276,0.43l-0.035,1.035l0.241,0.88l0.459,0.7l0.606,0.5
		l0.335,0.435l0.165,0.485l-0.035,0.529l-0.235,0.564l0.071,2.831l0.588,2.36l0.753,2.224l0.582,2.427l0.523,5.123l0.6,1.98
		l1.382,2.038h0.006l0.129,5.901l1.358,6.695l4.827,14.888l2.681,5.595l1.141,3.016l2.275,9.003l1.005,2.708l1.023,1.378
		l0.558,1.343l0.441,1.382l0.676,1.469l1.017,1.121l0.976,0.76l0.6,1.142l-0.129,2.298l-0.512,1.367l-0.688,1.141l-0.547,1.305
		l-0.076,1.847l0.488,1.604l1.723,2.222l0.653,1.4l0.094,0.726l-0.135,1.136l0.006,0.603l0.482,2.631l0.023,0.756l-0.17,0.583
		l-0.629,1.273l-0.159,0.744l0.053,1.012l0.194,0.565l0.229,0.475l0.147,0.721l0.476,11.415l0.118,2.823l-0.782,4.014l-2.263,2.798
		l-7.555,5.169l-9.507,2.718l-5.039,2.945l-5.015,4.187l-6.926,10.689l-2.281,2.8l-1.047,1.637l-2.64,5.408l0.176,0.043l0.418,0.353
		l-0.453,0.317l-1.017,0.014l-1.787-1.081l-1.041-0.259l-0.77,0.339l-0.858,0.594l-0.923,0.288l-0.947-0.586l0.171-0.428
		l0.288-0.971l0.282-0.505l-1.599-1.941l-1.035-0.609l-1.211,0.64l-0.535-2.112l-1.311-1.276l-1.664-0.534l-4.445,0.616
		l-8.854-1.839l-2.999,0.164l-1.387-0.34l-0.664-1.096l-0.982,0.419l-1.152-0.889l-0.958-1.366l-0.4-1l0.341-3.089l-0.147-0.444
		l-0.8-0.13l-0.476-0.434l-0.27-0.787l-0.206-1.197l0.053-0.826l0.247-0.739l0.194-0.768l-0.141-0.918l-0.394-0.556l-1.258-1.073
		l-1.182-1.644l-3.181-3.399l0.176-2.033l-0.182-3.503l-0.688-3.312l-0.353-4.895l-0.888-4.419l-3.298,0.931l-3.204,1.611
		l-1.776-1.242l-1.429-2.013l0.9-5.196l-2.752-2.089l-2.84,3.077l-4.315,0.642l-4.057-2.113l-1.505-2.757l-0.782-3.461l-0.829-2.344
		l-1.393-1.44l-2.169-1.194l-1.452-2.603l-0.235-2.405l0.923-1.706l-2.61-2.025l-3.128-0.453l-3.022-1.652l-2.093-4.051
		l-3.163-7.981l-1.429-10.934l-0.911-3.751l-1.305-3.091l-0.758-3.318l4.139-1.822l8.137,0.479l3.575-1.264l1.67-1.324l1.799-0.768
		l4.251-0.635l9.819-6.751l5.527-6.267l15.845-9.864l3.269-3.463l1.981-5.615l2.311-4.433l0.206-4.503l-6.038-8.468l-2.887-2.843
		l-0.606-2.684l-0.312-2.892l-5.744-7.708l5.35-7.627l12.694-1.787l3.775-2.568l3.245-3.402l1.435-4.727L609.218,73.785z"/>
	<path class="st0" d="M606.708,77.336l1.07-0.873l1.44-2.678l0.147,0.746l-1.435,4.727l-3.245,3.402l-3.775,2.568l-12.694,1.787
		l-5.35,7.627l5.744,7.708l0.312,2.892l0.606,2.684l2.887,2.843l6.038,8.468l-0.206,4.503l-2.311,4.433l-1.981,5.615l-3.269,3.463
		l-15.845,9.864l-5.527,6.267l-9.819,6.751l-4.251,0.635l-1.799,0.768l-1.67,1.324l-3.575,1.264l-8.137-0.479l-4.139,1.822
		l-6.879,0.538l-1.399,0.76l-1.629,3.228l-2.322,1.649l-2.581,0.399l-5.056-0.478l-4.316,5.149l-5.115,1.639l-5.439-0.022
		l-4.168,2.405l-3.61,0.755l-4.075-0.049l-2.058,1.676l-1.887,2.252l-7.955,4.609l-2.081,0.623l-2.187-0.231l-1.758,1.376
		l-0.964,3.201l-1.476,1.732l-1.717,0.867l-4.28,0.788l-17.962-2.777l-0.5-0.598l-0.37-0.838l-0.888-0.613l-0.976-0.211
		l-2.258,0.706l-1.47,2.92l-1.64,1.371l-1.964,0.499l-0.853-8.671l-2.934-7.446l-3.169-2.232l-6.491-1.707l-6.085-3.669
		l-4.363-1.445l-1.076-0.044l-1.335-0.576l-0.888-1.281l-1.723-3.269l-1.411-4.105l-4.921-9.626l8.396-15.675l2.017-2.196
		l2.381-1.506l4.592,0.303l3.216-1.417l0.112-1.562l0.682-1.06l0.894-2.748l1.041-1.053l0.682-1.278v-1.615l0.229-1.563
		l-2.846-0.781l-5.633,0.464l-2.022-0.99l1.105-3.806l-1.482-2.023l-2.922-0.39l-2.746-1.624l-1.905-3.15l-1.035-4.164l-0.147-1.903
		l0.905-1.353l2.481-2.522l0.888-1.57l0.647-1.776l-0.6-2.435l-1.164-2.075l-1.252-3.735l0.394-3.316l1.376-1.581l5.062,0.655
		l1.335-0.166v0.725l-0.535,0.508l-0.406,0.871l-0.229,1.177l-0.035,1.434l0.758-0.754l1.011-2.654l0.388-0.581l0.359-0.368
		l1.44-2.357l1.44-1.35l0.729-0.464l0.723-0.181l4.427-2.808l0.935-0.388l2.24-0.308l3.68-2.725l0.77-0.313l0.817-0.121l0.494-0.51
		l0.306-1.071l0.441-0.97l0.9-0.182l-0.106-0.44l-0.147-1.066l-0.1-0.435l0.623,0.061l0.232-0.122l11.744,0.627l22.036,1.182
		l16.427,0.876l16.427,0.876l20.354,1.08l24.652,1.317l15.824,0.84l15.824,0.84l13.27,0.711l10.695,0.57L606.708,77.336z"/>
	<path class="st0" d="M162.049,356.447l-0.212-2.405l0.482-1.141l-0.588-1.257l-1.052-1.109l-0.888-0.698l-1.288-0.618l-2.669-0.793
		l-1.299-0.746v-0.009l-1.199-0.859l-3.716-1.254l-1.258-1.318l-0.186-0.968l-0.126-0.655l0.464-1.778l1.105-1.757l0.67-1.834
		l-0.094-2.412l-0.559-2.326l-0.735-1.585l-2.763-2.307l-1.282-1.509l-0.588-2.335l-0.223-2.424l-0.788-1.059l-1.029-0.715
		l-0.935-1.433l-0.171-1.95l0.747-1.596l3.263-3.334l1.046-1.407l0.876-1.66l0.482-1.804l0.2-5.637l0.306-0.898l1.229-2.238
		l0.241-0.875l0.106-0.848l0.182-0.829l0.435-0.786l1.047-1.308l-3.698-2.78l-0.57-1.328l0.347-2.404l0.612-1.687l0.217-1.325
		l-0.823-1.292v-0.576l1.111-1.473l0.018-1.901l-0.882-1.632l-1.593-0.699l-1.617-0.377l-1.928-0.994l-1.276-1.439l0.341-1.692
		l-1.194-2.708l-1.352-4.065l-0.318-3.703l2.946-2.606l1.376-2.193l0.941-2.192l-0.265-0.997l-1.058-0.971l0.441-2.172l1.593-3.358
		l-1.77-1.461l-0.327-0.369l1.391-5.009l1.246-1.876l4.839-0.776l2.875-1.212l4.457-6.295l3.622-7.945l5.568-3.087l9.442,3.143
		l3.01-0.426l3.492-4.066l2.164-4.119l-1.558-0.263l-1.123-1.532l3.216-0.176l9.642-3.315l11.724,0.032l2.869-2.103l5.103-6.543
		l2.987-2.369l3.093-0.436l2.857,0.637l1.499,4.637l-1.035,4.495l-1.135,5.441l0.188,6.024l-5.532,7.126l1.746,1.629l1.223,4.63
		l-0.547,1.476l-1.099,0.714l-5.385,1.708l-0.864-0.102l-0.394,0.878l-0.059,2.107l-0.247,1.99l0.218,5.23l2.011,5.528l0.694,3.266
		l0.447,3.413l-0.006,2.802l-1.529-0.005l-1.217,0.849l2.416,4.293l1.135,2.768l0.124,5.723l-1.846,5.477l-0.294,1.341l-0.129,1.408
		l-0.653,2.733l-0.035,3.126l0.447,2.921l1.335,1.981l1.558,1.619l3.134,1.673l1.017,2.884l1.311,2.404l2.017,2.026l2.122,0.038
		l0.982-0.425l0.941,0.592l0.088,1.849l-0.517,1.776l-0.259,3.178l0.841,2.462l2.446,1.68l2.581,0.852l4.163-2.834l3.71,4.104
		l1.776,6.848l-2.787,4.523l-3.469,3.044l-4.504,1.007l-3.157-4.046l-0.188-3.179l-1.517-1.638l-8.631-1.612l-1.117,1.541
		l-0.835,2.379l-1.711,1.741l-1.999,0.662l-1.223,0.906l-5.597,10.961l-6.297,8.335l-4.027,1.001l-7.996-4.419l-4.169,1.455
		l-1.893,2.271l-2.875,4.967l-1.658-0.132l-3.345-2.908l-1.64,0.031l-9.101,4.755L162.049,356.447z"/>
	<path class="st0" d="M142.555,245.575l-3.301-3.723l-3.404-1.354l-1.635-2.244l-1.082-0.507l-0.594-0.575l-1.946-3.852
		l-0.882-1.036l-6.044-4.472l-1.552-0.834l-1.858-2.203l-1.141-0.506l-1.264-0.092l-1.194-0.375l-0.988-0.779l-0.653-1.324
		l1.511-1.317l0.588-1.142l0.235-1.783l-0.129-1.18l-0.694-3.348l-0.341-0.949v-0.588l2.752-2.053l3.463-1.817l3.351-2.68
		l1.746-1.836l0.764-1.71l0.159-0.793l1.705-5.364l-0.118-1.372l-0.341-1.343l-0.206-1.542l0.159-1.263l0.406-1.161l0.564-0.847
		l0.6-0.324l0.417-0.626l1.482-2.932l-0.741-0.688l-0.223-0.531l-0.87-0.74l-0.347-0.605l-0.176-0.934l-0.035-1.726l-0.088-0.807
		l-0.384-1.79l-1.191-5.556l-0.594-4.943l-1.194-2.019l-0.594-1.995l-1.382-2.145l-0.412-1.973l-0.041-2.122l0.153-3.505
		l-0.106-0.946l-1.194-3.727l-0.858-1.88l0.235-1.493l-0.07-2.7l0.002-0.01l0.557-0.063l1.023-0.446l0.75-0.7l0.074-0.782l-1-0.7
		l0.556-0.333l0.185-0.329l-0.185-0.329l-0.556-0.325l0.319-0.716l0.56,0.501l0.796,0.399l0.704,0.532l0.662,1.854l0.805,0.622
		l1.555,0.751l1.139,1.231l0.625,0.524l2.509,0.43l3.055,1.098l1.06,0.832l0.866,1.25l1.87,3.599l0.653,0.85l0.301-0.281
		l0.065-1.537l0.259-0.894l0.482-0.585l0.782-0.621l-0.042-0.363l-0.014-0.379l0.056-0.562l-0.611-0.18l-1.458-0.133l-0.653-0.344
		l-1.764-4.264l0.37-2.124l1.394-4.173l0.653,0.58l0.565-0.165l0.62-0.368l0.884-0.047l-0.403-2.429l0.208-1.936l0.393-1.721
		l0.19-1.812h-0.389l-0.139,1.154l-0.444,0.765l-1.361,1.376l0.357,0.659l-0.5-0.208l-0.398-0.259l-0.32-0.361l-0.305-0.49
		l0.292-0.282l0.514-0.686l0.361-0.349l-0.782-1.636l-1.352-0.769l-6.31-0.66l-0.889-0.985l0.718-1.881l-0.185-0.192l-0.046-0.028
		l-0.019-0.079l-0.106-0.362l-0.56,0.966l-0.445,0.138l-0.481-0.259l-0.681-0.185l-0.495,0.196l-0.389,0.479l-0.38,0.621
		l-0.486,0.628l1.699,0.33l0.926,0.424l0.482,0.62l-0.111,1.17l-0.593,0.851l-0.722,0.333l-0.514-0.381l-1.555,0.985l-0.773,0.251
		l-0.815,0.082v0.659l0.782,0.306l-0.042,0.2l-0.741,0.153l-0.537-0.082l-0.898-0.471l-0.667-0.106l-0.949-0.639l-2.736-3.971
		l-1.333-0.613l-0.132,0.016l-0.459-1.506l-0.994-1.227l0.541-0.16l0.47-0.324l0.966-2.606l0.94,0.429l0.62,0.519l1.741,0.66
		l5.629,0.468l2.259-0.468l2.208-1.179l4.083-3.017l15.05-6.714l12.981-3.411l15.828-6.7l10.25-2.747l11.222-3.042l11.032-5.017
		l9.166-1.149l6.296-2.117l-0.718,0.729l-2.819,1.268l1.236,0.88l5.014-0.88v-0.602h-0.389v-0.722h2.713l-0.028-0.476l-0.06-0.087
		l-0.107,0.032l-0.195-0.143l0.111-1.571l-1.31-0.063l-3.097,0.976l1.958-0.972l2.356-1.547l3.518-4.145l-0.713,1.454l-1.273,1.334
		l-0.495,0.726l0.519-0.19l1.032-0.214l0.903-0.365l0.792-0.953l1.995-0.945l0.731-0.846l-0.676-1.418l-1.13-0.036l-0.5,0.608
		l-0.833,0.846l2.412-4.173l6.588-8.507v0.602l-0.306,0.956l0.574,0.243l0.917-0.351l0.727-0.849l0.361-1.315l-0.333-0.403
		l-0.736,0.311l-0.847,0.805l1.167-2.34l1.977-1.986l3.884-2.43l11.884-1.761l0.382-0.153l0.003,0.005l0.112,0.205l3.957,8.005
		l4.686,6.802l1.758,3.596l0.412,4.672l-0.606,2.616l-1.505,1.557l-0.412,1.735l0.623,1.412l1.076,1.5l0.217,2.424l-0.905,1.393
		l-7.931,1.965l3.622,11.04l0.447,5.34l0.018,5.321l2.422,1.754l1.37,1.638l2.152,4.374l1.599,1.429l1.311,1.892l1.076,2.299
		l-3.146-0.423l-2.857,1.345l0.065,1.897l1.141,0.542l0.982,1.642l0.635,2.034l-1.693,3.009l-2.375,2.436l0.994,10.413l-2.128-0.676
		l-2.169,0.06l-2.028,0.899l-1.499,2.614l-1.099,3.151l-1.452,6.1l-1.717,0.333l-10.471-0.279l-1.282,1.827l0.059,3.803l0.882,3.398
		l3.569,3.477l4.292,1.098l2.111,1.112l1.776,2.28l0.359,2.73l-1.746,2.169l-1.341,2.384l-1.646,1.565l-4.192,1.31l-8.237,4.818
		l-4.604,7.244l-5.485,5.205l-3.492,1.37l-3.551,0.481l-3.481-2.08l-3.145-1.05l1.035-4.495l-1.499-4.637l-2.857-0.637l-3.093,0.436
		l-2.987,2.369l-5.103,6.543l-2.869,2.103l-11.724-0.032l-9.642,3.315l-3.216,0.176l1.123,1.532l1.558,0.263l-2.164,4.119
		l-3.492,4.066l-3.01,0.426l-9.442-3.143l-5.568,3.087l-3.622,7.945l-4.457,6.295l-2.875,1.212l-4.839,0.776l-1.246,1.876
		L142.555,245.575z"/>
	<path class="st0" d="M629.967,274.629l0.423,0.355l0.623,0.915l0.182,1.222l-0.453,1.652l1.282,0.823l4.092,1.109l0.876-0.343
		l0.747,0.756l3.534,1.331l1.193,0.127v0.576l-0.417,0.856l0.165,0.154l0.817-0.316l0.711,0.316l0.511,0.53l0.541,0.103l0.782-0.949
		l0.224,0.412l0.564,0.475l0.376,0.439l0.952-0.928l0.218,0.697l-0.159,1.11l-0.229,0.326l1.582,3.169l1.105,0.352l2.699-0.084
		l1.07,0.651l0.376,0.718l0.288,0.754l0.341,0.586l0.535,0.239l0.694,0.486l0.229,1.069l0.059,1.066l0.47,1.152l0.805,3.493
		l0.653,1.578l-0.894,0.666l-0.747,1.181l-1.076,2.562l-0.37,1.697l-0.041,2.986l-0.37,1.043l0.223,0.091l0.1,0.005l0.041,0.109
		l0.029,0.424l-0.682,0.383l-0.235,1.997l-0.635,0.764l0.894,1.667l1.047,1.42l-0.635,2.139l-1.094,1.088l-1.193,0.734l-0.964,1.116
		l-0.229,0.66l-0.229,0.985l-0.323,2.117l0.206,0.474l0.382,0.645l0.129,0.572l-0.523,0.251l-0.223,0.256l0.182,0.59l0.347,0.633
		l0.282,0.398l-0.729,0.908l-0.347,0.213l-0.511,0.071v0.685l0.647,0.706l0.077,0.888l-0.3,2.474l0.2,1.316l0.494,1.275l1.246,2.152
		l-0.388,0.038l-0.388-0.038l0.706,1.43l0.905,0.345l0.776,0.468l0.223,1.224l0.106,0.564l0.382,1.28l0.894,0.621l1.029,0.385
		l0.805,0.55l-0.888,1.826l0.088,0.569l2.317,3.426l0.464,1.093l-0.659,0.309l-0.406,0.636l-0.07,0.938l0.353,1.232l-1.041,0.407
		l-1.011,1.076l-0.782,1.339l-0.306,1.214l0.37,1.935l0.894,0.463l1.099,0.021l0.97,0.635l3.151,6.921l1.282,1.565l2.893,1.836
		l2.705,2.768l0.635,1.101l-0.941,0.49l-0.212,0.834l0.841,1.793l1.493,2.321l0.494,1.212l0.67,3.787v0.561l-0.241,0.71l0.417,0.369
		l0.723,0.294l0.694,0.477l0.629,0.962l0.159,0.742l0.059,0.812l0.312,1.185l0.853,1.418l3.845,3.562l4.739,2.623l0.735,1.127
		l-0.7,1.564l-1.729,0.368l-1.887,0.014l-1.158,0.517l-1.505-0.852l-1.57,0.21l-1.305,0.996l-0.7,1.545l0.106,1.721l0.841,1.144
		l1.346,0.628l1.587,0.195v0.558l-0.741,1.575l0.8,1.375l1.552,0.975l1.529,0.376l-0.347,2.047l0.447,1.888l1.443,3.487l0.015,0.036
		l-1.317,2.284l0.576,4.259l0.406,1.184l0.294,0.25l-0.071,0.199l-0.711,1.027l-1.076,1.151l-3.663,1.923l-0.159,1.077l0.088,1.723
		l-0.094,1.159l-0.259,0.965l-1.246,2.939l-2.993,1.245l-10.307,0.129l-1.964,0.622l-0.982,0.503l-0.77,0.76l-0.623,1.309
		l-0.715,2.368l-0.032-0.018l-5.697-3.34l-1.846-2.766l-3.581-2.302l-4.192-0.466l-3.245,0.314l-1.499,0.655l-4.686,5.32
		l-3.68,2.987l-4.304,0.912l-12.782-0.417l-7.784-2.215l-0.559-1.308l1.934-0.484l0.894-0.521l-1.529-1.051l-7.925,1.574
		l-1.999-0.933l-1.476-2.277l-0.411-2.219l0.952-1.855l1.405-1.872l1.787-0.596l1.764,0.219l1.558-0.905l-0.653-2.179l-1.346-2.517
		l-0.141-1.24l0.059-1.217l-0.523-0.821l-8.954-4.828l-13.264-3.379l-1.052-1.832l2.587-4.893l0.794-2.281l-1.817-1.604
		l-2.017-1.255l-2.175-0.832l-2.24,0.098l-3.763,2.646l-4.263-0.214l-7.514-5.126l-0.288-1.937l-1.446-5.517l-0.106-0.842
		l-0.124-0.315l-0.265-0.168l-0.265-0.236l-0.123-0.515l0.065-0.567l0.147-0.264l0.147-0.17l0.065-0.287l0.417-3.903l-0.176-1.766
		l-1.052-0.78v-0.619l0.406-0.082l0.5-0.238l0.441-0.383l0.241-0.533l-0.223-1.22l-1.393-3.486l-0.447-2.908l-0.529-1.626
		l-0.123-0.712l0.088-1.041l0.212-0.788l0.476-1.322l1.035-5.655l0.694-1.452l0.535-0.456l0.623-0.094l-0.106-1.908l0.694-2.751
		l0.347-2.616l-2.275-2.726l0.118-2.219l1.335-1.079l1.376-1.914l0.059-3.739l-1.752-0.177v-0.628l0.864-1.02l-0.194-1.129
		l-1.023-1.594l-0.123-1.297l0.047-1.04l-0.206-0.809l-0.882-0.601l-0.541-0.052l-1.399,0.619l-1,0.106l-2.928-0.622l-1.582-0.733
		l-0.841-1.003l-0.723-1.221l-0.077-0.942l0.588-2.344l2.058-0.549l2.034,0.834l4.145,0.649l4.033-1.426l1.417-1.346l0.382-2.093
		l-2.869-4.419l2.193-3.091l3.134-1.9l-1.993-3.052l-1.382-3.42l-0.229-2.442l-1.123-2.41l-0.917-2.59l-0.359-2.33l4.039-3.014
		l4.327-1.248l8.237,0.05l7.79-1.555l2.887,0.544l1.993-0.645l5.433-4.077l2.187-0.256l6.25,0.595l3.163-2.578l0.271-1.383
		l0.365-1.178l0.941-1.001l1.035-0.694l2.328,0.541l6.667,3.437l2.217-0.833l1.881-2.415l1.629-3.809l5.403-7.995l1.823-3.433
		l0.77-0.339l1.041,0.259l1.787,1.081l1.017-0.014L629.967,274.629z"/>
	<path class="st0" d="M427.079,67.517l1.207,0.986l2.816,0.976l4.436,0.237l-0.232,0.122l-0.623-0.061l0.1,0.435l0.147,1.066
		l0.106,0.44l-0.9,0.182l-0.441,0.97l-0.306,1.071l-0.494,0.51l-0.817,0.121l-0.77,0.313l-3.68,2.725l-2.24,0.308l-0.935,0.388
		l-4.427,2.808l-0.723,0.181l-0.729,0.464l-1.44,1.35l-1.44,2.357l-0.359,0.368l-0.388,0.581l-1.011,2.654l-0.758,0.754l0.035-1.434
		l0.229-1.177l0.406-0.871l0.535-0.508v-0.725l-1.335,0.166l-5.062-0.655l-1.376,1.581l-0.394,3.316l1.252,3.735l1.164,2.075
		l0.6,2.435l-0.647,1.776l-0.888,1.57l-2.481,2.522l-0.905,1.353l0.147,1.903l1.035,4.164l1.905,3.15l2.746,1.624l2.922,0.39
		l1.482,2.023l-1.105,3.806l2.022,0.99l5.633-0.464l2.846,0.781l-0.229,1.563v1.615l-0.682,1.278l-1.041,1.053l-0.894,2.748
		l-0.682,1.06l-0.112,1.562l-3.216,1.417l-4.592-0.303l-2.381,1.506l-2.017,2.196l-8.396,15.675l-3.081,1.368l-6.485,0.388
		l-3.098-1.234l-1.764-1.133l-3.745-3.88l-0.917-0.597l-0.77-0.927l-1.123-0.632l-4.639-0.657l-3.275,1.172l-2.122,1.4l-4.845-2.894
		l-10.236-1.706l-1.858-1.776l-1.682-2.159l-1.999-0.176l-9.636,1.447l-7.226-1.41l-1.534,1.194l-2.316,4.264l-3.91,1.457
		l-1.823,1.71l-0.318,1.243l-0.229,1.372l-0.029,2.029l-3.545,1.43l-7.89-2.063l-2.099,0.223l-1.587,2.197l-1.382,3.036
		l-1.717,6.011l-1.593,0.977l-2.528-3.036l-3.04-1.674l-11.582-0.474l-3.328-2.036l-2.358-4.164l-2.734-3.381l-0.994-10.413
		l2.375-2.436l1.693-3.009l-0.635-2.034l-0.982-1.642l-1.141-0.542l-0.065-1.897l2.857-1.345l3.146,0.423l-1.076-2.299l-1.311-1.892
		l-1.599-1.429l-2.152-4.374l-1.37-1.638l-2.422-1.754l-0.018-5.321l-0.447-5.34l-3.622-11.04l7.931-1.965l0.905-1.393l-0.217-2.424
		l-1.076-1.5l-0.623-1.412l0.412-1.735l1.505-1.557l0.606-2.616l-0.412-4.672l-1.758-3.596l-4.686-6.802l-3.957-8.005l-0.112-0.205
		l-0.003-0.005l4.234-1.693l2.421-0.412l2.148-0.775l5.454-5.999l17.157-8.069l21.518-4.085l9.657-3.326L344.184,30h9.361
		l1.287,0.478l2.065,1.812l0.759,0.398l1.194,0.277l19.43,11.651l3.542,4.611l0.574,1.08l0.583,1.527l0.056,1.335l-1.005,0.487
		l-0.25-0.336l-0.278-0.715l-0.347-0.708l-1.037-0.736l-0.694-1.844l-0.935-1.2l-2.708-4.6l-0.528-0.252l-1.995-0.413l-0.505-0.212
		l-0.542-0.926l-1.611-0.561l-3.398-2.341l-3.342-1.613l-0.537-0.77l-1.847-1.429l-0.486-0.229l-0.694,0.313l-0.361,0.506
		l-0.806,2.817l-0.111,0.65v1.44l0.306,0.365l1.361,0.613l0.306,0.369l0.685,1.202l0.833,1.818l-0.033,0.753l-0.217,0.653
		l0.019,0.644l0.657,0.7l-0.343,1.92l0.648,0.816l1.083-0.228l0.944-1.224l-0.333,1.632l0.458,1.303l0.708,1.103l1.435,4.462
		l0.445,0.946l-0.222,2.25l0.046,3.875l0.37,3.668l0.796,1.636l0.893,0.299l1.736,1.337l0.889,0.306l0.764,0.08l0.949,0.294
		l0.815,0.533l0.347,0.851l0.958,1.348l9.592,3.111l2.12,0.159l1.773-0.981l0.486,0.496l0.667,0.365l1.565,0.473l21.337-3.194
		l4.708-2.286l2.236-0.525l1.806-0.835l3.5-3.661L427.079,67.517z"/>
	<path class="st0" d="M535.926,165.467l0.758,3.318l1.305,3.091l0.911,3.751l1.429,10.934l3.163,7.981l2.093,4.051l3.022,1.652
		l3.128,0.453l2.61,2.025l-0.923,1.706l0.235,2.405l1.452,2.603l2.169,1.194l1.393,1.44l0.829,2.344l0.782,3.461l1.505,2.757
		l4.057,2.113l4.315-0.642l2.84-3.077l2.752,2.089l-0.9,5.196l1.429,2.013l1.776,1.242l3.204-1.611l3.298-0.931l0.888,4.419
		l0.353,4.895l0.688,3.312l0.182,3.503l-0.176,2.033l3.181,3.399l1.182,1.644l1.258,1.073l0.394,0.556l0.141,0.918l-0.194,0.768
		l-0.247,0.739l-0.053,0.826l0.206,1.197l0.27,0.787l0.476,0.434l0.8,0.13l0.147,0.444l-0.341,3.089l0.4,1l0.958,1.366l1.152,0.889
		l0.982-0.419l0.664,1.096l1.387,0.34l2.999-0.164l8.854,1.839l4.445-0.616l1.664,0.534l1.311,1.276l0.535,2.112l1.211-0.64
		l1.035,0.609l1.599,1.941l-0.282,0.505l-0.288,0.971l-0.171,0.428l0.947,0.586l0.923-0.288l0.858-0.594l-1.823,3.433l-5.403,7.995
		l-1.629,3.809l-1.881,2.415l-2.217,0.833l-6.667-3.437l-2.328-0.541l-1.035,0.694l-0.941,1.001l-0.365,1.178l-0.271,1.383
		l-3.163,2.578l-6.25-0.595l-2.187,0.256l-5.433,4.077l-1.993,0.645l-2.887-0.544l-7.79,1.555l-8.237-0.05l-4.327,1.248
		l-4.039,3.014l0.359,2.33l0.917,2.59l1.123,2.41l0.229,2.442l1.382,3.42l1.993,3.052l-3.134,1.9l-2.193,3.091l2.869,4.419
		l-0.382,2.093l-1.417,1.346l-4.033,1.426l-4.145-0.649l-2.034-0.834l-2.058,0.549l-0.588,2.344l0.077,0.942l0.723,1.221
		l0.841,1.003l1.582,0.733l2.928,0.622l1-0.106l1.399-0.619l0.541,0.052l0.882,0.601l0.206,0.809l-0.047,1.04l0.123,1.297
		l1.023,1.594l0.194,1.129l-0.864,1.02v0.628l1.752,0.177l-0.059,3.739l-1.376,1.914l-1.335,1.079l-0.118,2.219l2.275,2.726
		l-0.347,2.616l-0.694,2.751l0.106,1.908l-0.623,0.094l-0.535,0.456l-0.694,1.452l-1.035,5.655l-0.476,1.322l-0.212,0.788
		l-0.088,1.041l0.123,0.712l0.529,1.626l0.447,2.908l1.393,3.486l-18.197,3.791l-9.419-2.954l-4.374-0.379l-3.892-2.533
		l-0.365-1.378l-0.241-1.507l-1.705-1.923l-0.476-3.048l-1.717-0.591l-1.787,1.692l-1.67,2.333l-1.881,1.075l-7.902,1.267
		l-6.885-1.43l-1.464-1.112l-1.205-1.921l-1.323-1.514l-9.366-5.763l-1.687-4.281l-3.14-1.133l-0.194-2.68l0.723-2.477l3.645-3.418
		l0.952-2.507l0.006-2.93l-0.735-0.835l-2.099-1.01l-0.429-1.477l-0.212-2.913l-0.558-2.816l-1.693-4.067l1.476-5.151l4.433-0.005
		l3.41,1.847l4.133,0.573l0.735-1.506l0.147-2.184l-0.87-2.337l-3.063-3.197l-0.529-2.625l0.3-1.166l0.57-0.843l0.506-1.055
		l-0.365-1.511l-3.351-4.49l-4.122-3.201l-3.78-1.748l-6.032,0.693l-2.046-0.662l-0.494-1.491l0.141-1.74l-1.352-2.034l-1.535-1.758
		l-0.47-1.962l1.899-1.113l0.594-4.63l-0.788-0.995l-2.222-1.492l-3.91-1.579l-0.882,0.215l-0.817-0.438l-1.152-2.581l-0.2-3.255
		l-0.717-2.368l-1.57-1.094l-2.011-0.6l-1.787-0.926l-1.37-2.39l-1.546-1.976l-2.117,0.19l-1.811,1.859l-11.818,2.453l-5.262-4.256
		l-2.922-1.376l-5.985-1.269l-5.486-3.784l0.376-1.593l0.229-1.564l4.204-6.953l-0.229-1.729l-1.17-1.199l0.3-3.59l1.511-3.093
		l3.828-11.165l2.44-0.657l-0.047-3.106l-1.64-3.966l-0.952-1.773l-0.629-1.966l0.482-1.901l1.135-1.262l0.288-3.475l-0.882-3.867
		l2.781,0.363l2.375-2.006l1.064-1.609l1.205-1.161l1.1,0.459l1.052,0.751l1.082,0.127l0.547-1.61l0.3-1.84l0.165-1.865
		l-0.459-2.785l-0.047-1.867l-0.341-1.785l2.916-1.375l2.728-2.212l1.964-0.499l1.64-1.371l1.47-2.92l2.258-0.706l0.976,0.211
		l0.888,0.613l0.37,0.838l0.5,0.598l17.962,2.777l4.28-0.788l1.717-0.867l1.476-1.732l0.964-3.201l1.758-1.376l2.187,0.231
		l2.081-0.623l7.955-4.609l1.887-2.252l2.058-1.676l4.075,0.049l3.61-0.755l4.168-2.405l5.439,0.022l5.115-1.639l4.316-5.149
		l5.056,0.478l2.581-0.399l2.322-1.649l1.629-3.228l1.399-0.76L535.926,165.467z"/>
	<path class="st0" d="M409.237,270.066l5.486,3.784l5.985,1.269l2.922,1.376l5.262,4.256l11.818-2.453l1.811-1.859l2.117-0.19
		l1.546,1.976l1.37,2.39l1.787,0.926l2.011,0.6l1.57,1.094l0.717,2.368l0.2,3.255l1.152,2.581l0.817,0.438l0.882-0.215l3.91,1.579
		l2.222,1.492l0.788,0.995l-0.594,4.63l-1.899,1.113l0.47,1.962l1.535,1.758l1.352,2.034l-0.141,1.74l0.494,1.491l2.046,0.662
		l6.032-0.693l3.78,1.748l4.122,3.201l3.351,4.49l0.365,1.511l-0.506,1.055l-0.57,0.843l-0.3,1.166l0.529,2.625l3.063,3.197
		l0.87,2.337l-0.147,2.184l-0.735,1.506l-4.133-0.573l-3.41-1.847l-4.433,0.005l-1.476,5.151l1.693,4.067l0.558,2.816l0.212,2.913
		l0.429,1.477l2.099,1.01l0.735,0.835l-0.006,2.93l-0.952,2.507l-3.645,3.418l-0.723,2.477l0.194,2.68l-1.629,1.217l-2.093,5.175
		l-1.887,0.868l-1.893,0.298l-1.805,0.882l-3.951,3.763l-1.828,0.523l-6.291-0.879l-1.776,0.651l-1.393,1.837l-1.411,5.468
		l2.599,3.947l1.758,1.411l0.553,3.024l-0.453,2.952l-1.288,1.528l-7.514-5.514l-2.017,0.364l-0.729,2.913l-0.041,2.885l0.229,2.846
		l-0.97,2.704l-1.97,1.329l-1.646,1.529L435.1,410.1l-6.185-3.155l-5.697,0.312l-1.923-0.582l-5.309-8.482l-3.428-3.159
		l-3.828-0.712l-1.958,1.711l-4.539,0.028l-3.686-0.77l-7.437-4.028l-1.746-1.778l-1.999-0.395l-1.805,1.248l-1.858,0.874
		l-8.037,0.269l-2.852,1.397l-4.268-3.453l-1.323-2.579l-1.529-1.874l-0.676,0.384l-0.523,0.936l-0.741,0.653l-4.022,0.11
		l-12.723-3.285l-1.676-1.346l-1.276-2.3l-0.359-4.235l-0.582-2.491l-3.257-2.922l-1.064-2.515l-0.159-2.942l0.917-2.025l4.163-0.92
		l1.429-2.269l0.947-2.863l2.84-0.858l3.099,1.531l2.704-1.941l1.587-4.342l-0.094-4.862l-0.565-5.007l0.282-6.074l1.464-5.589
		l2.646-6.331l1.47-2.014l3.257-1.542l8.237,0.898l0.647-0.708l2.734-4.832l0.229-2.901l-1.07-2.968l-0.641-3.244l0.406-3.154
		l0.782-2.841l1.799-0.158l1.964,0.227l3.81-0.9l2.881-3.402l0.523-5.794l0.594-2.596l5.674-2.429l3.522-3.39l-0.153-0.902
		l-0.841-0.245l-1.094-2.33l-0.094-2.99l0.541-0.716l0.412-0.87l0.994-0.548l7.02-0.144l2.152-0.649l0.523-1.053l0.705-1.053
		l1.082-0.202L409.237,270.066z"/>
	<path class="st0" d="M434.947,198.794l-2.728,2.212l-2.916,1.375l0.341,1.785l0.047,1.867l0.459,2.785l-0.165,1.865l-0.3,1.84
		l-0.547,1.61l-1.082-0.127l-1.052-0.751l-1.1-0.459l-1.205,1.161l-1.064,1.609l-2.375,2.006l-2.781-0.363l0.882,3.867l-0.288,3.475
		l-1.135,1.262l-0.482,1.901l0.629,1.966l0.952,1.773l1.64,3.966l0.047,3.106l-2.44,0.657l-3.828,11.165l-1.511,3.093l-0.3,3.59
		l1.17,1.199l0.229,1.729l-4.204,6.953l-0.229,1.564l-0.376,1.593l-1.117-0.048l-1.082,0.202l-0.705,1.053l-0.523,1.053
		l-2.152,0.649l-7.02,0.144l-0.994,0.548l-0.412,0.87l-0.541,0.716l-5.409-4.149l-2.017,0.284l-5.962,2.522l-2.046,0.161
		l-1.558-3.52l-9.413-7.733l-1.705-2.022l-1.976-0.919l-1.094,0.111l-1.046,0.448l-0.547,1.037l-0.858,0.508l-1.376-0.434
		l-1.076-1.611l-0.7-1.507l-0.441-1.713l-0.817-0.57l-1.094-0.299l-3.31,3.899l-1.946,0.882l-5.762-1.529l-1.84-1.739l-1.646-2.059
		l-1.923-0.782l-2.105-0.147l-2.028-1.05l-5.821-5.351l-4.286-2.327l-3.957-0.218l-3.628-1.229l-0.641-0.373l-0.447-0.562
		l-0.247-1.559l-0.494-1.257l-1.776-1.5l-0.999,0.916l-2.281,0.761l-2.311-0.441l-1.135-1.827l-0.894-2.206l-2.046-1.97l0.382-2.427
		l0.958-0.733l1.017,0.063l0.917-0.33l0.676-1.287l1.217-6.657l-2.787-6.151l-4.316-3.24l-4.627-1.673l2.557-5.904l0.806-5.893
		l-1.764-3.395l-0.494-4.013l5.197-4.4l-2.74-6.191l-4.833-3.784l-0.653-2.85l4.098-5.405l1.576-3.512l1.593-0.977l1.717-6.011
		l1.382-3.036l1.587-2.197l2.099-0.223l7.89,2.063l3.545-1.43l0.029-2.029l0.229-1.372l0.318-1.243l1.823-1.71l3.91-1.457
		l2.316-4.264l1.534-1.194l7.226,1.41l9.636-1.447l1.999,0.176l1.682,2.159l1.858,1.776l10.236,1.706l4.845,2.894l2.122-1.4
		l3.275-1.172l4.639,0.657l1.123,0.632l0.77,0.927l0.917,0.597l3.745,3.88l1.764,1.133l3.098,1.234l6.485-0.388l3.081-1.368
		l4.921,9.626l1.411,4.105l1.723,3.269l0.888,1.281l1.335,0.576l1.076,0.044l4.363,1.445l6.085,3.669l6.491,1.707l3.169,2.232
		l2.934,7.446L434.947,198.794z"/>
	<path class="st0" d="M394.691,275.254l0.094,2.99l1.094,2.33l0.841,0.245l0.153,0.902l-3.522,3.39l-5.674,2.429l-0.594,2.596
		l-0.523,5.794l-2.881,3.402l-3.81,0.9l-1.964-0.227l-1.799,0.158l-0.782,2.841l-0.406,3.154l0.641,3.244l1.07,2.968l-0.229,2.901
		l-2.734,4.832l-0.647,0.708l-8.237-0.898l-3.257,1.542l-1.47,2.014l-2.646,6.331l-1.464,5.589l-0.282,6.074l0.565,5.007
		l0.094,4.862l-1.587,4.342l-2.704,1.941l-3.099-1.531l-2.84,0.858l-0.947,2.863l-1.429,2.269l-4.163,0.92l-0.917,2.025l0.159,2.942
		l1.064,2.515l3.257,2.922l0.582,2.491l0.359,4.235l-6.503,3.889l-6.738,2.48l-3.622-0.201l-2.987-2.422l-0.323-2.212l-0.758-1.949
		l-1.875-0.97l-1.97,0.112l-0.741-4.52l-0.647-9.323l1.605-3.834l-2.052-1.652l-2.164-0.603l-3.486,0.704l-3.363-0.786l-1.323-3.342
		l-0.312-3.949l0.758-1.946l1.382-0.913l0.788-2.255l0.565-2.632l-5.65-3.669l-6.285-1.727l-6.685-0.028l-2.381,0.492l-2.152,4.901
		l-11.753,2.077l-6.555-2.344l-3.11-3.44l-5.515-3.078l-2.464-4.364l-0.188-2.984l-1.005-2.315l-6.414-3.494l-2.311-0.617
		l-4.968,0.959l-1.776-6.848l-3.71-4.104l-4.163,2.834l-2.581-0.852l-2.446-1.68l-0.841-2.462l0.259-3.178l0.517-1.776l-0.088-1.849
		l-0.941-0.592l-0.982,0.425l-2.122-0.038l-2.017-2.026l-1.311-2.404l-1.017-2.884l-3.134-1.673l-1.558-1.619l-1.335-1.981
		l-0.447-2.921l0.035-3.126l0.653-2.733l0.129-1.408l0.294-1.341l1.846-5.477l-0.124-5.723l-1.135-2.768l-2.416-4.293l1.217-0.849
		l1.529,0.005l0.006-2.802l-0.447-3.413l-0.694-3.266l-2.011-5.528l-0.218-5.23l0.247-1.99l0.059-2.107l0.394-0.878l0.864,0.102
		l5.385-1.708l1.099-0.714l0.547-1.476l-1.223-4.63l-1.746-1.629l5.532-7.126l-0.188-6.024l1.135-5.441l3.145,1.05l3.481,2.08
		l3.551-0.481l3.492-1.37l5.485-5.205l4.604-7.244l8.237-4.818l4.192-1.31l1.646-1.565l1.341-2.384l1.746-2.169l-0.359-2.73
		l-1.776-2.28l-2.111-1.112l-4.292-1.098l-3.569-3.477l-0.882-3.398l-0.059-3.803l1.282-1.827l10.471,0.279l1.717-0.333l1.452-6.1
		l1.099-3.151l1.499-2.614l2.028-0.899l2.169-0.06l2.128,0.676l2.734,3.381l2.358,4.164l3.328,2.036l11.582,0.474l3.04,1.674
		l2.528,3.036l-1.576,3.512l-4.098,5.405l0.653,2.85l4.833,3.784l2.74,6.191l-5.197,4.4l0.494,4.013l1.764,3.395l-0.806,5.893
		l-2.557,5.904l4.627,1.673l4.316,3.24l2.787,6.151l-1.217,6.657l-0.676,1.287l-0.917,0.33l-1.017-0.063l-0.958,0.733l-0.382,2.427
		l2.046,1.97l0.894,2.206l1.135,1.827l2.311,0.441l2.281-0.761l0.999-0.916l1.776,1.5l0.494,1.257l0.247,1.559l0.447,0.562
		l0.641,0.373l3.628,1.229l3.957,0.218l4.286,2.327l5.821,5.351l2.028,1.05l2.105,0.147l1.923,0.782l1.646,2.059l1.84,1.739
		l5.762,1.529l1.946-0.882l3.31-3.899l1.094,0.299l0.817,0.57l0.441,1.713l0.7,1.507l1.076,1.611l1.376,0.434l0.858-0.508
		l0.547-1.037l1.046-0.448l1.094-0.111l1.976,0.919l1.705,2.022l9.413,7.733l1.558,3.52l2.046-0.161l5.962-2.522l2.017-0.284
		L394.691,275.254z"/>
	<path class="st0" d="M473.869,366.155l3.14,1.133l1.687,4.281l9.366,5.763l1.323,1.514l1.205,1.921l1.464,1.112l6.885,1.43
		l7.902-1.267l1.881-1.075l1.67-2.333l1.787-1.692l1.717,0.591l0.476,3.048l1.705,1.923l0.241,1.507l0.365,1.378l3.892,2.533
		l4.374,0.379l9.419,2.954l18.197-3.791l0.223,1.22l-0.241,0.533l-0.441,0.383l-0.5,0.238l-0.406,0.082v0.619l1.052,0.78
		l0.176,1.766l-0.417,3.903l-0.065,0.287l-0.147,0.17l-0.147,0.264l-0.065,0.567l0.123,0.515l0.265,0.236l0.265,0.168l0.124,0.315
		l0.106,0.842l1.446,5.517l0.288,1.937l0.182,1.219l0.065,3.33l-0.464,3.536l-0.406,1.426l-0.67,1.611l-0.87,1.323l-1.017,0.545
		l-1.493,0.244l-0.976,0.71l-1.629,2.722l-2.704,3.216l-0.4,1.403l-0.294,1.727l-0.717,1.393l-1.746,2.105l-1.046,0.89l-3.645,0.946
		l-5.439,2.44l0.218,0.411l0.559,1.423l-1.082,1.136l-1.452,0.854l-1.446,0.316l-1.07-0.478l-3.492,3.048l-0.194,0.069l-0.817-0.069
		l-0.223,0.173l0.029,0.397l0.07,0.434l-0.07,0.272l-0.635,0.47l-0.388-0.023l-0.529-0.447l-0.306,1.266l-0.676,0.611l-0.659,0.337
		l-0.3,0.47l-0.071,0.749l-0.206,0.173l-0.306,0.023l-0.406,0.302l-0.994,1.403v0.147l-1.005,0.216l-0.559-0.488l-0.506-0.663
		l-0.841-0.339l-0.564,0.138l-2.346,1.135l-0.535,0.442l-0.529,0.608l-0.635,0.539l-0.864,0.235l-4.221,0.138l-0.588,0.221
		l-0.476,0.419l-0.559,0.743l-0.529,0.304l-1.552,0.152l-0.776,0.513l-0.882-0.58l-0.753,0.488l-0.77,0.814l-0.935,0.437
		l-2.181-2.079l-0.37,0.552l-0.359,1.527l-1.199,1.214l-0.194,0.11l-0.506,0.028l-0.235,0.166l-0.194,0.437l-0.07,0.945
		l-0.165,0.469l-0.794,0.774l-1.84,0.887l-0.7,1.098l-0.223,0.941l-1.705,1.823l-7.473-0.204l-4.18-2.514l-1.076-2.279l-2.581-3.641
		l-0.982-2.075l-0.958-4.098l-2.599-5.153l-4.38-2.929l-4.774-1.509l-1.917-2.018l-2.234-1.201l-5.368-0.009l-1.593-0.624
		l-3.869-0.582l-1.993-1.04l1.141-2.483l3.922-3.313l2.281-0.338l-2.699-3.307l-1.587-3.541l-1.964-1.498l-4.286-1.234l-1.564-1.866
		l2.14-4.064l3.898-0.641l0.271-0.711l-0.012-1.106l-0.212-1.004l-0.711-0.391L435.1,410.1l1.323-2.222l1.646-1.529l1.97-1.329
		l0.97-2.704l-0.229-2.846l0.041-2.885l0.729-2.913l2.017-0.364l7.514,5.514l1.288-1.528l0.453-2.952l-0.553-3.024l-1.758-1.411
		l-2.599-3.947l1.411-5.468l1.393-1.837l1.776-0.651l6.291,0.879l1.828-0.523l3.951-3.763l1.805-0.882l1.893-0.298l1.887-0.868
		l2.093-5.175L473.869,366.155z"/>
</g>
<defs>
<linearGradient id="g_be" x1="25" y1="0" x2="25" y2="51" gradientUnits="userSpaceOnUse"><stop stop-color="#DD81FF"/><stop offset="1" stop-color="#FF0929"/></linearGradient>
<linearGradient id="g_ed" x1="25" y1="0" x2="25" y2="51" gradientUnits="userSpaceOnUse"><stop stop-color="#C46CE4"/><stop offset="1" stop-color="#8632A5"/></linearGradient>
<linearGradient id="g_en" x1="25" y1="0" x2="25" y2="51" gradientUnits="userSpaceOnUse"><stop stop-color="#4B1248"/><stop offset="1" stop-color="#CC9E54"/></linearGradient>
<linearGradient id="g_fi" x1="25" y1="0" x2="25" y2="51" gradientUnits="userSpaceOnUse"><stop stop-color="#FB6D13"/><stop offset="1" stop-color="#FF9D00"/></linearGradient>
<linearGradient id="g_ga" x1="25" y1="0" x2="25" y2="51" gradientUnits="userSpaceOnUse"><stop stop-color="#3D0DAF"/><stop offset="1" stop-color="#0998A2"/></linearGradient>
<linearGradient id="g_gr" x1="25" y1="0" x2="25" y2="51" gradientUnits="userSpaceOnUse"><stop stop-color="#E94464"/><stop offset="1" stop-color="#F86187"/></linearGradient>
<linearGradient id="g_he" x1="25" y1="0" x2="25" y2="51" gradientUnits="userSpaceOnUse"><stop stop-color="#78BCFD"/><stop offset="1" stop-color="#305DE6"/></linearGradient>
<linearGradient id="g_la" x1="25" y1="0" x2="25" y2="51" gradientUnits="userSpaceOnUse"><stop stop-color="#ECC438"/><stop offset="1" stop-color="#CE9D16"/></linearGradient>
<linearGradient id="g_me" x1="25" y1="0" x2="25" y2="51" gradientUnits="userSpaceOnUse"><stop stop-color="#7E50D3"/><stop offset="1" stop-color="#2A0845"/></linearGradient>
<linearGradient id="g_ot" x1="25" y1="0" x2="25" y2="51" gradientUnits="userSpaceOnUse"><stop stop-color="#EB3349"/><stop offset="1" stop-color="#F45C43"/></linearGradient>
<linearGradient id="g_re" x1="25" y1="0" x2="25" y2="51" gradientUnits="userSpaceOnUse"><stop stop-color="#78BCFD"/><stop offset="1" stop-color="#298EED"/></linearGradient>
<linearGradient id="g_tr" x1="25" y1="0" x2="25" y2="51" gradientUnits="userSpaceOnUse"><stop stop-color="#49C55E"/><stop offset="1" stop-color="#13A32B"/></linearGradient>
<linearGradient id="g_gl" x1="25" y1="0" x2="25" y2="51" gradientUnits="userSpaceOnUse"><stop stop-color="#22C55E"/><stop offset="1" stop-color="#16A34A"/></linearGradient>
<filter id="sh" x="-30%" y="-30%" width="160%" height="160%"><feDropShadow dx="0" dy="2" stdDeviation="3" flood-color="#000" flood-opacity=".12"/></filter>
</defs>
<!-- Beauty - Zachodniopomorskie -->
<g class="mw" data-category="Beauty" transform="translate(198 168)"><g class="jm" style="animation-delay:0s"><g transform="scale(1) translate(-25 -51)">
<path d="M44.4188 19.4998C44.4188 35.0492 26.865 49.45 26.865 49.45C25.8393 50.2915 24.1607 50.2915 23.135 49.45C23.135 49.45 5.58116 35.0492 5.58116 19.4998C5.58136 8.77512 14.2754 0.0810547 25 0.0810547C35.7247 0.0810547 44.4188 8.77512 44.4188 19.4998Z" fill="url(#g_be)"/>
<path d="M25 29.27C19.6129 29.27 15.2304 24.8872 15.2304 19.5003C15.2304 14.1134 19.6131 9.73047 25 9.73047C30.387 9.73047 34.7697 14.1132 34.7697 19.5001C34.7697 24.887 30.3872 29.27 25 29.27Z" fill="#FFE1D6"/>
<circle cx="25" cy="19" r="13.5" fill="white"/>
<path d="M31.199 18.1592L29.1945 16.9568C28.3064 16.424 27.5561 15.6721 27.0243 14.7815L25.8244 12.7729C25.4743 12.1864 24.5264 12.1864 24.1756 12.7729L22.9757 14.7815C22.4439 15.6714 21.6936 16.4233 20.8049 16.9561L18.8004 18.1585C18.508 18.3349 18.3333 18.6439 18.3333 18.9856C18.3333 19.3274 18.508 19.6363 18.8004 19.8121L20.8049 21.0145C21.6936 21.5473 22.4439 22.2998 22.9757 23.1891L24.1756 25.1977C24.3503 25.4913 24.6586 25.6663 24.9997 25.6663C25.3407 25.6663 25.649 25.4913 25.8244 25.1977L27.0243 23.1891C27.5554 22.2998 28.3057 21.5473 29.1952 21.0145L31.1997 19.8121C31.492 19.6363 31.6667 19.3274 31.6667 18.9856C31.6667 18.6439 31.4913 18.3349 31.199 18.1592ZM28.5507 19.9362C27.4851 20.5751 26.5852 21.4769 25.9483 22.5439L24.9997 24.1334L24.051 22.5446C23.4142 21.4776 22.5142 20.5758 21.4487 19.9369L19.8632 18.9856L21.4487 18.035C22.5142 17.3962 23.4142 16.4951 24.051 15.4273L24.9997 13.8386L25.9483 15.4273C26.5859 16.4951 27.4851 17.3969 28.5507 18.035L30.1362 18.9856L28.5507 19.9362Z" fill="#AC3984"/>
<path d="M25 11.685C25.3106 11.685 25.5625 11.4331 25.5625 11.1225V10.25C25.5625 9.93937 25.3106 9.6875 25 9.6875C24.6894 9.6875 24.4375 9.93937 24.4375 10.25V11.1225C24.4375 11.4331 24.6894 11.685 25 11.685Z" fill="#AC3984"/>
<path d="M25 26.3154C24.6894 26.3154 24.4375 26.5673 24.4375 26.8779V27.7504C24.4375 28.0611 24.6894 28.3129 25 28.3129C25.3106 28.3129 25.5625 28.0611 25.5625 27.7504V26.8779C25.5625 26.5673 25.3106 26.3154 25 26.3154Z" fill="#AC3984"/>
<path d="M33.75 18.4375H32.8775C32.5669 18.4375 32.315 18.6894 32.315 19C32.315 19.3106 32.5669 19.5625 32.8775 19.5625H33.75C34.0606 19.5625 34.3125 19.3106 34.3125 19C34.3125 18.6894 34.0606 18.4375 33.75 18.4375Z" fill="#AC3984"/>
<path d="M17.1225 18.4375H16.25C15.9394 18.4375 15.6875 18.6894 15.6875 19C15.6875 19.3106 15.9394 19.5625 16.25 19.5625H17.1225C17.4331 19.5625 17.685 19.3106 17.685 19C17.685 18.6894 17.4331 18.4375 17.1225 18.4375Z" fill="#AC3984"/>
<path d="M20.3294 15.1249C20.4394 15.2349 20.5831 15.2899 20.7269 15.2899C20.8706 15.2899 21.015 15.2349 21.125 15.1249C21.345 14.9055 21.345 14.5493 21.125 14.3299L19.9738 13.1787C19.7538 12.9587 19.3981 12.9587 19.1788 13.1787C18.9588 13.398 18.9588 13.7543 19.1788 13.9737L20.3294 15.1249Z" fill="#AC3984"/>
<path d="M29.6706 22.874C29.4506 22.654 29.095 22.654 28.8756 22.874C28.6563 23.094 28.6556 23.4502 28.8756 23.6696L30.0269 24.8209C30.1369 24.9309 30.2806 24.9859 30.4244 24.9859C30.5681 24.9859 30.7119 24.9309 30.8219 24.8209C31.0419 24.6009 31.0419 24.2446 30.8219 24.0252L29.6706 22.874Z" fill="#AC3984"/>
<path d="M30.0263 13.1788L28.875 14.3294C28.655 14.5488 28.655 14.905 28.875 15.1244C28.985 15.2344 29.1288 15.2894 29.2725 15.2894C29.4163 15.2894 29.56 15.2344 29.67 15.1244L30.8213 13.9731C31.0413 13.7538 31.0413 13.3975 30.8213 13.1781C30.6019 12.9588 30.2463 12.9588 30.0263 13.1788Z" fill="#AC3984"/>
<path d="M20.3294 22.8742L19.1781 24.0254C18.9581 24.2454 18.9581 24.6017 19.1781 24.8211C19.2881 24.9311 19.4319 24.9861 19.5756 24.9861C19.7194 24.9861 19.8631 24.9311 19.9731 24.8211L21.125 23.6704C21.345 23.4504 21.345 23.0942 21.125 22.8748C20.905 22.6554 20.5494 22.6548 20.3294 22.8742Z" fill="#AC3984"/>
</g></g>
</g>
<!-- Education - Pomorskie -->
<g class="mw" data-category="Education" transform="translate(338 108)"><g class="jm" style="animation-delay:1.38s"><g transform="scale(1) translate(-25 -51)">
<path d="M44.4188 19.4998C44.4188 35.0492 26.865 49.45 26.865 49.45C25.8393 50.2915 24.1607 50.2915 23.135 49.45C23.135 49.45 5.58116 35.0492 5.58116 19.4998C5.58136 8.77512 14.2754 0.0810547 25 0.0810547C35.7247 0.0810547 44.4188 8.77512 44.4188 19.4998Z" fill="url(#g_ed)"/>
<path d="M25 29.27C19.6129 29.27 15.2304 24.8872 15.2304 19.5003C15.2304 14.1134 19.6131 9.73047 25 9.73047C30.387 9.73047 34.7697 14.1132 34.7697 19.5001C34.7697 24.887 30.3872 29.27 25 29.27Z" fill="#FFE1D6"/>
<circle cx="25" cy="19" r="13.5" fill="white"/>
<path d="M34.5524 14.2757C34.5148 14.2744 33.7424 14.2483 32.6085 14.2734V11.9486C32.6085 11.6059 32.3158 11.3341 31.9713 11.3624C29.7104 11.5511 26.834 12.5501 25.1201 14.3723C23.4062 12.5501 20.5298 11.5511 18.2689 11.3624C17.925 11.3344 17.6318 11.605 17.6318 11.9486V14.3362C16.9875 14.3119 16.3782 14.2948 15.7258 14.2756C15.3968 14.2652 15.1201 14.5302 15.1201 14.8636V25.5761C15.1201 25.8857 15.36 26.1423 15.6689 26.163C18.0088 26.3205 21.9284 26.3382 24.8894 27.6011C25.1533 27.7138 25.3902 27.5844 25.3509 27.6011C28.3119 26.3383 32.2307 26.3206 34.5715 26.163C34.8803 26.1423 35.1202 25.8857 35.1202 25.5761V14.8636C35.1201 14.5467 34.8691 14.2867 34.5524 14.2757ZM31.432 12.6102V22.6921C29.7357 23.0715 27.5859 23.8812 25.7084 25.5981C25.7084 25.0803 25.7084 15.767 25.7084 15.4869C26.9954 13.881 29.4329 12.9131 31.432 12.6102ZM18.8082 12.6102C20.8073 12.9131 23.2448 13.881 24.5319 15.4869V25.5981C22.6543 23.8812 20.5045 23.0715 18.8082 22.6921V12.6102ZM16.2966 25.0226V15.4694C16.7178 15.4818 17.1683 15.4959 17.6318 15.5136V23.1715C17.6318 23.4545 17.8333 23.6974 18.1115 23.7496C19.4547 24.0018 21.2013 24.549 22.8293 25.7272C20.5067 25.2063 18.0756 25.1226 16.2966 25.0226ZM33.9436 25.0226C32.1675 25.1225 29.7344 25.2061 27.4109 25.7272C29.0389 24.549 30.7856 24.0018 32.1287 23.7496C32.4069 23.6974 32.6084 23.4545 32.6084 23.1715V15.4502C33.1498 15.4381 33.611 15.4379 33.9436 15.441V25.0226H33.9436Z" fill="#8A36A9"/>
<path d="M23.0066 16.8414C22.551 16.524 21.7656 16.1344 20.9273 15.9927C20.6071 15.9384 20.3034 16.1544 20.2493 16.4747C20.1952 16.7951 20.411 17.0986 20.7313 17.1527C21.3785 17.2621 21.9992 17.5734 22.3341 17.8067C22.6006 17.9924 22.9672 17.9269 23.153 17.6603C23.3387 17.3938 23.2732 17.0271 23.0066 16.8414Z" fill="#8A36A9"/>
<path d="M22.9477 20.1541C22.5285 19.8982 21.7087 19.449 20.9273 19.3169C20.6071 19.2627 20.3034 19.4786 20.2493 19.7989C20.1952 20.1193 20.411 20.4228 20.7313 20.4769C21.34 20.5798 22.0552 20.9876 22.3345 21.1582C22.6121 21.3276 22.974 21.2397 23.1431 20.9628C23.3125 20.6855 23.225 20.3235 22.9477 20.1541Z" fill="#8A36A9"/>
<path d="M27.906 17.8067C28.2409 17.5734 28.8616 17.2621 29.5088 17.1528C29.8291 17.0987 30.0449 16.7951 29.9908 16.4748C29.9367 16.1544 29.633 15.9383 29.3128 15.9928C28.4745 16.1344 27.6891 16.524 27.2335 16.8414C26.9669 17.0271 26.9014 17.3938 27.0871 17.6603C27.2729 17.9271 27.6397 17.9923 27.906 17.8067Z" fill="#8A36A9"/>
<path d="M29.3129 19.317C28.5315 19.449 27.7116 19.8982 27.2925 20.1542C27.0152 20.3235 26.9277 20.6855 27.0971 20.9628C27.2664 21.24 27.6284 21.3275 27.9057 21.1582C28.1849 20.9876 28.9002 20.5799 29.5089 20.477C29.8292 20.4229 30.045 20.1193 29.9909 19.799C29.9367 19.4786 29.6331 19.2625 29.3129 19.317Z" fill="#8A36A9"/>
</g></g>
</g>
<!-- Entertainment - Warminsko-Mazurskie -->
<g class="mw" data-category="Entertainment" transform="translate(488 145)"><g class="jm" style="animation-delay:2.77s"><g transform="scale(1) translate(-25 -51)">
<path d="M44.4188 19.4998C44.4188 35.0492 26.865 49.45 26.865 49.45C25.8393 50.2915 24.1607 50.2915 23.135 49.45C23.135 49.45 5.58116 35.0492 5.58116 19.4998C5.58136 8.77512 14.2754 0.0810547 25 0.0810547C35.7247 0.0810547 44.4188 8.77512 44.4188 19.4998Z" fill="url(#g_en)"/>
<path d="M25 29.27C19.6129 29.27 15.2304 24.8872 15.2304 19.5003C15.2304 14.1134 19.6131 9.73047 25 9.73047C30.387 9.73047 34.7697 14.1132 34.7697 19.5001C34.7697 24.887 30.3872 29.27 25 29.27Z" fill="#FFE1D6"/>
<circle cx="25" cy="19" r="13.5" fill="white"/>
<path d="M30.4166 27.9583H19.5833C18.7547 27.9575 17.9604 27.6279 17.3745 27.0421C16.7887 26.4562 16.4591 25.6619 16.4583 24.8333V16.5C16.4591 15.6715 16.7887 14.8771 17.3745 14.2913C17.9604 13.7054 18.7547 13.3759 19.5833 13.375H30.4166C31.2451 13.3759 32.0395 13.7054 32.6253 14.2913C33.2112 14.8771 33.5407 15.6715 33.5416 16.5V24.8333C33.5407 25.6619 33.2112 26.4562 32.6253 27.0421C32.0395 27.6279 31.2451 27.9575 30.4166 27.9583ZM19.5833 14.625C19.0861 14.6254 18.6094 14.8231 18.2579 15.1747C17.9064 15.5262 17.7087 16.0029 17.7083 16.5V24.8333C17.7087 25.3305 17.9064 25.8071 18.2579 26.1587C18.6094 26.5102 19.0861 26.7079 19.5833 26.7083H30.4166C30.9137 26.7079 31.3904 26.5102 31.7419 26.1587C32.0935 25.8071 32.2911 25.3305 32.2916 24.8333V16.5C32.2911 16.0029 32.0935 15.5262 31.7419 15.1747C31.3904 14.8231 30.9137 14.6254 30.4166 14.625H19.5833Z" fill="#4B1248"/>
<path d="M24.1666 23.5891C23.975 23.5892 23.7852 23.5515 23.6082 23.4782C23.4311 23.4049 23.2703 23.2974 23.1348 23.1619C22.9994 23.0264 22.892 22.8655 22.8188 22.6884C22.7456 22.5113 22.708 22.3215 22.7083 22.1299V19.2024C22.7083 18.9538 22.7718 18.7093 22.8929 18.4922C23.014 18.2751 23.1886 18.0925 23.4001 17.9618C23.6116 17.8312 23.853 17.7567 24.1013 17.7456C24.3497 17.7345 24.5968 17.787 24.8191 17.8983L27.3283 19.1533C27.5567 19.2674 27.7512 19.4396 27.8922 19.6526C28.0332 19.8655 28.1158 20.1118 28.1317 20.3667C28.1477 20.6216 28.0964 20.8762 27.983 21.1051C27.8697 21.3339 27.6982 21.529 27.4858 21.6708L24.9758 23.3433C24.7363 23.5034 24.4547 23.5889 24.1666 23.5891ZM24.1666 18.9933C24.128 18.9934 24.0902 19.0044 24.0574 19.0249C24.0268 19.0432 24.0015 19.0692 23.9841 19.1004C23.9666 19.1315 23.9578 19.1667 23.9583 19.2024V22.1299C23.9573 22.1679 23.9671 22.2053 23.9866 22.2379C24.0061 22.2705 24.0344 22.2969 24.0683 22.3141C24.1012 22.3331 24.1389 22.3422 24.1769 22.3403C24.2149 22.3384 24.2516 22.3255 24.2824 22.3033L26.7916 20.6308C26.8218 20.6104 26.8463 20.5826 26.8624 20.5499C26.8786 20.5173 26.8859 20.4809 26.8837 20.4446C26.8816 20.4082 26.8699 20.373 26.8499 20.3425C26.83 20.312 26.8024 20.2873 26.7699 20.2708L24.2599 19.0166C24.231 19.0017 24.1991 18.9937 24.1666 18.9933Z" fill="#4B1248"/>
<path d="M24.9999 14.6254C24.9178 14.6256 24.8365 14.6095 24.7607 14.578C24.6848 14.5465 24.616 14.5003 24.5582 14.442L21.2249 11.1087C21.1145 10.9902 21.0544 10.8335 21.0572 10.6716C21.0601 10.5097 21.1257 10.3552 21.2402 10.2407C21.3547 10.1262 21.5092 10.0606 21.6711 10.0577C21.833 10.0549 21.9897 10.115 22.1082 10.2254L24.9999 13.1162L27.8915 10.2254C28.01 10.115 28.1667 10.0549 28.3286 10.0577C28.4906 10.0606 28.645 10.1262 28.7596 10.2407C28.8741 10.3552 28.9397 10.5097 28.9425 10.6716C28.9454 10.8335 28.8853 10.9902 28.7749 11.1087L25.4415 14.442C25.3837 14.5003 25.3149 14.5465 25.2391 14.578C25.1633 14.6095 25.082 14.6256 24.9999 14.6254Z" fill="#4B1248"/>
</g></g>
</g>
<!-- Financial - Podlaskie -->
<g class="mw" data-category="Financial" transform="translate(618 212)"><g class="jm" style="animation-delay:4.15s"><g transform="scale(1) translate(-25 -51)">
<path d="M44.4188 19.4998C44.4188 35.0492 26.865 49.45 26.865 49.45C25.8393 50.2915 24.1607 50.2915 23.135 49.45C23.135 49.45 5.58116 35.0492 5.58116 19.4998C5.58136 8.77512 14.2754 0.0810547 25 0.0810547C35.7247 0.0810547 44.4188 8.77512 44.4188 19.4998Z" fill="url(#g_fi)"/>
<path d="M25 29.27C19.6129 29.27 15.2304 24.8872 15.2304 19.5003C15.2304 14.1134 19.6131 9.73047 25 9.73047C30.387 9.73047 34.7697 14.1132 34.7697 19.5001C34.7697 24.887 30.3872 29.27 25 29.27Z" fill="#FFE1D6"/>
<circle cx="25" cy="19" r="13.5" fill="white"/>
<path d="M25.4999 26.4491C21.2571 26.4491 17.7856 22.9777 17.7856 18.7348C17.7856 14.4919 21.2571 11.0205 25.4999 11.0205C29.7428 11.0205 33.2142 14.4919 33.2142 18.7348C33.2142 22.9777 29.7428 26.4491 25.4999 26.4491ZM25.4999 12.3062C21.9642 12.3062 19.0714 15.1991 19.0714 18.7348C19.0714 22.2705 21.9642 25.1634 25.4999 25.1634C29.0356 25.1634 31.9285 22.2705 31.9285 18.7348C31.9285 15.1991 29.0356 12.3062 25.4999 12.3062ZM25.4999 23.8777C25.1142 23.8777 24.8571 23.6205 24.8571 23.2348V23.1705C23.8285 22.9134 22.9928 22.0777 22.9285 20.7277C22.9285 20.3419 23.1856 20.0848 23.5714 20.0848C23.9571 20.0848 24.2142 20.3419 24.2142 20.7277C24.2142 21.6919 24.9214 22.0134 25.4999 22.0134C26.0785 22.0134 26.7856 21.6919 26.7856 20.7277C26.7856 20.0205 26.2071 19.4419 25.4999 19.4419C24.0856 19.4419 22.9285 18.2848 22.9285 16.8705C22.9928 15.4562 23.8285 14.6205 24.8571 14.3634V14.2348C24.8571 13.8491 25.1142 13.5919 25.4999 13.5919C25.8856 13.5919 26.1428 13.8491 26.1428 14.2348V14.2991C27.1714 14.5562 28.0071 15.3919 28.0714 16.7419C28.0714 17.1277 27.8142 17.3848 27.4285 17.3848C27.1071 17.3848 26.7856 17.1277 26.7856 16.7419C26.7856 15.7777 26.0785 15.4562 25.4999 15.4562C24.9214 15.4562 24.2142 15.7777 24.2142 16.7419C24.2142 17.4491 24.7928 18.0277 25.4999 18.0277C26.9142 18.0277 28.0714 19.1848 28.0714 20.5991C28.0071 22.0134 27.1714 22.8491 26.1428 23.1062V23.2348C26.1428 23.6205 25.8856 23.8777 25.4999 23.8777Z" fill="#FB6F12"/>
</g></g>
</g>
<!-- Gastronomy - Lubuskie -->
<g class="mw" data-category="Gastronomy" transform="translate(185 295)"><g class="jm" style="animation-delay:5.54s"><g transform="scale(1) translate(-25 -51)">
<path d="M44.4188 19.4998C44.4188 35.0492 26.865 49.45 26.865 49.45C25.8393 50.2915 24.1607 50.2915 23.135 49.45C23.135 49.45 5.58116 35.0492 5.58116 19.4998C5.58136 8.77512 14.2754 0.0810547 25 0.0810547C35.7247 0.0810547 44.4188 8.77512 44.4188 19.4998Z" fill="url(#g_ga)"/>
<path d="M25 29.27C19.6129 29.27 15.2304 24.8872 15.2304 19.5003C15.2304 14.1134 19.6131 9.73047 25 9.73047C30.387 9.73047 34.7697 14.1132 34.7697 19.5001C34.7697 24.887 30.3872 29.27 25 29.27Z" fill="#FFE1D6"/>
<circle cx="25" cy="19" r="13.5" fill="white"/>
<path d="M19.1774 25.8035L22.8996 21.6458L24.6023 23.6463L21.3205 27.4907C20.0636 28.9619 17.7379 27.4116 19.1774 25.8035ZM23.5245 16.3351C23.879 15.2697 23.716 14.3593 22.384 13.0069L19.129 9.4C18.6671 8.90027 17.5785 9.63419 18.0333 10.2395L20.6365 13.1933C21.1289 13.7441 20.214 14.4731 19.7055 13.9058L17.0127 10.8513C16.5114 10.3219 15.4748 11.0212 15.9994 11.6265C16.7585 12.4676 17.933 13.8415 18.6922 14.6826C19.2185 15.1757 18.4182 15.9063 17.899 15.2912L15.2259 12.2565C14.8338 11.864 14.1929 12.1081 14.0228 12.5666C13.8401 13.0564 14.2895 13.4143 14.5957 13.7771L17.5785 17.3263C18.5042 18.3142 19.539 18.8997 20.7422 18.5682C20.9266 18.5171 21.1522 18.4132 21.3939 18.2763L29.4077 27.8057C29.8392 28.3187 30.6718 28.3731 31.2125 27.9591L31.336 27.8651C31.9448 27.3984 32.0432 26.5457 31.5222 25.9949L23.0357 17.013C23.2828 16.759 23.4636 16.5182 23.5245 16.3351ZM25.7929 18.4132L27.1124 16.9388C25.4151 13.063 31.7048 7.89752 34.7539 10.2725C38.4583 13.1603 32.9528 20.1202 29.0837 18.4L27.5207 20.229L25.7929 18.4132Z" fill="#3D0DAF"/>
</g></g>
</g>
<!-- Grocery - Wielkopolskie -->
<g class="mw" data-category="Grocery" transform="translate(290 302)"><g class="jm" style="animation-delay:6.92s"><g transform="scale(1) translate(-25 -51)">
<path d="M44.4188 19.4998C44.4188 35.0492 26.865 49.45 26.865 49.45C25.8393 50.2915 24.1607 50.2915 23.135 49.45C23.135 49.45 5.58116 35.0492 5.58116 19.4998C5.58136 8.77512 14.2754 0.0810547 25 0.0810547C35.7247 0.0810547 44.4188 8.77512 44.4188 19.4998Z" fill="url(#g_gr)"/>
<path d="M25 29.27C19.6129 29.27 15.2304 24.8872 15.2304 19.5003C15.2304 14.1134 19.6131 9.73047 25 9.73047C30.387 9.73047 34.7697 14.1132 34.7697 19.5001C34.7697 24.887 30.3872 29.27 25 29.27Z" fill="#FFE1D6"/>
<circle cx="25" cy="19" r="13.5" fill="white"/>
<path d="M21.6304 21.5908V24.4033C21.6304 24.6946 21.8665 24.9307 22.1577 24.9307H29.189C29.4802 24.9307 29.7163 24.6946 29.7163 24.4033V21.5908C29.7163 21.2996 29.4802 21.0635 29.189 21.0635H22.1577C21.8664 21.0635 21.6304 21.2996 21.6304 21.5908ZM22.6851 22.1182H28.6616V23.876H22.6851V22.1182Z" fill="#EA4666"/>
<path d="M33.02 17.0549C32.9742 17.0207 32.9239 16.9948 32.8712 16.9773C32.8773 16.91 32.8805 16.8423 32.8805 16.7744C32.8805 16.3321 32.7508 15.905 32.5166 15.5414C33.1649 15.1344 33.5836 14.4158 33.5836 13.6104C33.5836 12.3503 32.5585 11.3252 31.2984 11.3252C31.1815 11.3252 31.0652 11.3343 30.9502 11.3525C30.6118 10.5044 29.7879 9.91895 28.8375 9.91895C27.8994 9.91895 27.0784 10.4876 26.7312 11.3252H26.7281C25.5132 11.3252 24.5169 12.2785 24.4472 13.4763C23.928 13.5594 23.435 13.765 23.0096 14.0744L21.9807 12.2923C21.2538 11.0333 19.638 10.6003 18.3789 11.3272C17.1198 12.0542 16.6868 13.6699 17.4138 14.9291L18.5827 16.9537C18.4914 16.9641 18.4028 16.9981 18.3266 17.055C18.1773 17.1665 18.098 17.3485 18.1178 17.5337C18.2935 19.1734 18.4721 20.8585 18.6449 22.4881C18.7872 23.8302 18.9294 25.1723 19.0717 26.505C19.1578 27.3111 19.834 27.9189 20.6448 27.9189H30.7016C31.5126 27.9189 32.1889 27.3108 32.2748 26.5043L33.2291 17.5333C33.2488 17.3481 33.1693 17.1663 33.02 17.0549ZM26.7281 12.3799C26.8121 12.3799 26.8997 12.3903 26.996 12.4118C27.1364 12.443 27.2835 12.4155 27.4033 12.3357C27.523 12.2559 27.6049 12.1306 27.6299 11.9889C27.734 11.4006 28.2419 10.9736 28.8375 10.9736C29.4607 10.9736 29.9827 11.4447 30.0518 12.0694C30.0703 12.2373 30.1682 12.3861 30.3149 12.4697C30.4617 12.5533 30.6397 12.5615 30.7935 12.4919C30.9575 12.4176 31.1274 12.3799 31.2985 12.3799C31.9769 12.3799 32.5289 12.9319 32.5289 13.6104C32.5289 14.2067 32.1012 14.7146 31.512 14.8181C31.302 14.855 31.1348 15.0146 31.0884 15.2227C31.042 15.4308 31.1255 15.6464 31.2999 15.7689C31.6292 16.0003 31.8258 16.3762 31.8258 16.7744C31.8258 16.9565 31.7839 17.1357 31.7046 17.3009C30.4957 17.7384 29.2523 18.0408 27.9849 18.2065C28.0593 18.0503 28.1213 17.8883 28.1707 17.7224C29.5237 15.7349 29.7073 13.7401 29.7145 13.6551C29.7392 13.3649 29.5239 13.1096 29.2337 13.0849C28.9436 13.0608 28.6883 13.2755 28.6636 13.5657C28.6625 13.5785 28.5798 14.4763 28.1061 15.6246C27.6959 14.5094 26.7067 13.6718 25.5049 13.4776C25.5714 12.8613 26.0945 12.3799 26.7281 12.3799ZM24.9703 14.4893C26.2304 14.4893 27.2555 15.5144 27.2555 16.7744C27.2555 17.3609 27.0379 17.9067 26.6402 18.3302C26.3191 18.3475 25.9969 18.3564 25.6735 18.3564C25.6093 18.3564 25.5452 18.356 25.4811 18.3553L23.5413 14.9954C23.9449 14.6706 24.449 14.4893 24.9703 14.4893ZM18.1691 13.2012C18.2785 12.7931 18.5403 12.4519 18.9062 12.2406C19.6616 11.8045 20.6311 12.0642 21.0673 12.8197L21.5196 13.6031L20.0172 13.6933C19.7264 13.7107 19.5049 13.9605 19.5223 14.2512C19.5392 14.5312 19.7714 14.747 20.0483 14.747C20.0589 14.747 20.0696 14.7467 20.0803 14.746L22.1091 14.6243L22.5743 15.4299L21.0719 15.5201C20.7812 15.5375 20.5596 15.7874 20.5771 16.078C20.5939 16.358 20.8262 16.5738 21.103 16.5738C21.1136 16.5738 21.1243 16.5735 21.1351 16.5729L23.1638 16.4511L24.2303 18.2982C22.8194 18.1843 21.4348 17.903 20.0909 17.4567L18.3272 14.4017C18.1159 14.0358 18.0597 13.6094 18.1691 13.2012ZM31.226 26.3927C31.1974 26.6615 30.9719 26.8643 30.7016 26.8643H20.6448C20.3745 26.8643 20.1491 26.6617 20.1204 26.3931C19.9782 25.0606 19.8359 23.7188 19.6937 22.3769C19.5511 21.0315 19.4044 19.6483 19.2587 18.2838C21.3176 19.0323 23.4714 19.4111 25.6735 19.4111C27.8758 19.4111 30.0296 19.0323 32.0886 18.2836L31.226 26.3927Z" fill="#EA4666"/>
</g></g>
</g>
<!-- Health - Kujawsko-Pomorskie -->
<g class="mw" data-category="Health" transform="translate(359 225)"><g class="jm" style="animation-delay:8.31s"><g transform="scale(1) translate(-25 -51)">
<path d="M44.4188 19.4998C44.4188 35.0492 26.865 49.45 26.865 49.45C25.8393 50.2915 24.1607 50.2915 23.135 49.45C23.135 49.45 5.58116 35.0492 5.58116 19.4998C5.58136 8.77512 14.2754 0.0810547 25 0.0810547C35.7247 0.0810547 44.4188 8.77512 44.4188 19.4998Z" fill="url(#g_he)"/>
<path d="M25 29.27C19.6129 29.27 15.2304 24.8872 15.2304 19.5003C15.2304 14.1134 19.6131 9.73047 25 9.73047C30.387 9.73047 34.7697 14.1132 34.7697 19.5001C34.7697 24.887 30.3872 29.27 25 29.27Z" fill="#FFE1D6"/>
<circle cx="25" cy="19" r="13.5" fill="white"/>
<path d="M33.7969 14.6588L33.7965 14.6398C33.7871 14.1412 33.7781 13.6702 33.7781 13.2171C33.7781 12.5307 33.2197 11.9723 32.5333 11.9723C29.8775 11.9723 27.8618 11.2151 26.1898 9.58934C25.7032 9.11608 24.9407 9.11604 24.4541 9.5893C22.7822 11.2151 20.7667 11.9723 18.1113 11.9723C17.4249 11.9723 16.8665 12.5307 16.8665 13.2171C16.8665 13.6799 16.8574 14.1555 16.8477 14.6592C16.8028 17.0105 16.7469 19.9368 17.7289 22.593C18.2689 24.0536 19.0865 25.3229 20.159 26.3657C21.3805 27.5533 22.9805 28.4954 24.9142 29.1656C25.0457 29.2113 25.1828 29.2344 25.3219 29.2344C25.4612 29.2344 25.5984 29.2112 25.7296 29.1657C27.6636 28.4953 29.2636 27.5533 30.4853 26.3656C31.5579 25.3228 32.3756 24.0535 32.9156 22.5928C33.8977 19.9364 33.8418 17.0101 33.7969 14.6588ZM31.8165 22.1865C30.7809 24.9876 28.6643 26.9084 25.3455 28.0587C25.3303 28.0639 25.3137 28.0641 25.298 28.0586C21.9798 26.9084 19.8634 24.9877 18.8279 22.1867C17.9226 19.738 17.9739 17.0517 18.0192 14.6816C18.0289 14.1722 18.0381 13.6911 18.0381 13.2171C18.0381 13.1768 18.0709 13.144 18.1112 13.144C21.0913 13.144 23.3663 12.2814 25.271 10.4293C25.2852 10.4154 25.3036 10.4085 25.3219 10.4085C25.3402 10.4085 25.3586 10.4155 25.3729 10.4294C27.2776 12.2814 29.5529 13.144 32.5333 13.144C32.5736 13.144 32.6064 13.1768 32.6064 13.2171C32.6064 13.6813 32.6154 14.1577 32.625 14.662L32.6253 14.6811V14.6812C32.6707 17.0513 32.7219 19.7376 31.8165 22.1865Z" fill="#1D4ED8"/>
<path d="M28.9626 17.2847H27.0775V15.3993C27.0775 15.0758 26.8152 14.8135 26.4916 14.8135H24.1534C23.8298 14.8135 23.5675 15.0758 23.5675 15.3993V17.2847H21.6821C21.3585 17.2847 21.0962 17.547 21.0962 17.8706V20.2088C21.0962 20.5323 21.3585 20.7946 21.6821 20.7946H23.5675V22.68C23.5675 23.0035 23.8298 23.2658 24.1534 23.2658H26.4916C26.8152 23.2658 27.0775 23.0035 27.0775 22.68V20.7946H28.9626C29.2862 20.7946 29.5485 20.5323 29.5485 20.2088V17.8706C29.5485 17.547 29.2861 17.2847 28.9626 17.2847ZM28.3767 19.6229H26.4916C26.1681 19.6229 25.9057 19.8852 25.9057 20.2088V22.0941H24.7393V20.2088C24.7393 19.8852 24.4769 19.6229 24.1534 19.6229H22.2679V18.4564H24.1534C24.4769 18.4564 24.7393 18.1941 24.7393 17.8706V15.9852H25.9057V17.8706C25.9057 18.1941 26.1681 18.4564 26.4916 18.4564H28.3768V19.6229H28.3767Z" fill="#1D4ED8"/>
</g></g>
</g>
<!-- Law - Mazowieckie -->
<g class="mw" data-category="Law" transform="translate(508 295)"><g class="jm" style="animation-delay:9.69s"><g transform="scale(1) translate(-25 -51)">
<path d="M44.4188 19.4998C44.4188 35.0492 26.865 49.45 26.865 49.45C25.8393 50.2915 24.1607 50.2915 23.135 49.45C23.135 49.45 5.58116 35.0492 5.58116 19.4998C5.58136 8.77512 14.2754 0.0810547 25 0.0810547C35.7247 0.0810547 44.4188 8.77512 44.4188 19.4998Z" fill="url(#g_la)"/>
<path d="M25 29.27C19.6129 29.27 15.2304 24.8872 15.2304 19.5003C15.2304 14.1134 19.6131 9.73047 25 9.73047C30.387 9.73047 34.7697 14.1132 34.7697 19.5001C34.7697 24.887 30.3872 29.27 25 29.27Z" fill="#FFE1D6"/>
<circle cx="25" cy="19" r="13.5" fill="white"/>
<path d="M35.1855 21.2455L32.2207 15.3198H33.959C34.2324 15.3198 34.4863 15.1323 34.5332 14.8627C34.5879 14.519 34.3262 14.2182 33.9902 14.2182H29.6816C28.8184 14.2182 27.9863 13.9955 27.2402 13.5776C27.3262 13.351 27.373 13.1088 27.373 12.8549C27.373 11.9135 26.7363 11.1205 25.873 10.8783V9.976C25.873 9.70257 25.6855 9.44866 25.416 9.40178C25.0723 9.3471 24.7715 9.60882 24.7715 9.94475V10.8783C23.9082 11.1205 23.2676 11.9135 23.2676 12.8549C23.2676 13.1088 23.3145 13.351 23.4004 13.5776C22.6543 13.9955 21.8223 14.2182 20.959 14.2182H16.6895C16.416 14.2182 16.1621 14.4057 16.1152 14.6752C16.0605 15.019 16.3223 15.3198 16.6582 15.3198H18.4238L15.459 21.2455C15.416 21.3315 15.3965 21.4252 15.4004 21.5229C15.416 23.6674 17.166 25.4096 19.3145 25.4096C21.4629 25.4096 23.2129 23.6674 23.2285 21.5229C23.2363 21.433 23.2168 21.3393 23.1699 21.2455L20.2051 15.3198H20.959C22.0566 15.3198 23.1191 15.0268 24.0605 14.4721C24.2676 14.6362 24.5098 14.7573 24.7715 14.8315V25.8393C23.3301 26.0541 22.1152 27.101 21.7168 28.5385C21.6191 28.8901 21.8848 29.2377 22.248 29.2377H28.4004C28.7637 29.2377 29.0293 28.8901 28.9316 28.5385C28.5332 27.1049 27.3184 26.058 25.877 25.8393V14.8276C26.1387 14.7533 26.377 14.6323 26.584 14.4682C27.5215 15.0229 28.584 15.3158 29.6855 15.3158H30.4395L27.4707 21.2455C27.4277 21.3237 27.4082 21.4174 27.4121 21.5229C27.4277 23.6674 29.1777 25.4096 31.3262 25.4096C33.4746 25.4096 35.2246 23.6674 35.2402 21.5229C35.248 21.4213 35.2285 21.3276 35.1855 21.2455ZM19.3184 24.3041C17.9551 24.3041 16.8145 23.3315 16.5566 22.0424H22.0762C21.8184 23.3315 20.6816 24.3041 19.3184 24.3041ZM21.791 20.9408H16.8457L19.3184 15.9994L21.791 20.9408ZM27.5566 28.1362H23.0879C23.5645 27.3823 24.4004 26.9018 25.3223 26.9018C26.2441 26.9018 27.0801 27.3823 27.5566 28.1362ZM25.3223 13.8041C24.7988 13.8041 24.373 13.3783 24.373 12.8549C24.373 12.3315 24.7988 11.9057 25.3223 11.9057H25.3262H25.3301C25.8535 11.9057 26.2754 12.3315 26.2754 12.8549C26.2715 13.3783 25.8457 13.8041 25.3223 13.8041ZM31.3262 15.9994L33.7988 20.9408H28.8535L31.3262 15.9994ZM31.3262 24.3041C29.9629 24.3041 28.8223 23.3315 28.5684 22.0424H34.0879C33.8301 23.3315 32.6895 24.3041 31.3262 24.3041Z" fill="#E1B330"/>
</g></g>
</g>
<!-- Mechanics - Lodzkie -->
<g class="mw" data-category="Mechanics" transform="translate(415 358)"><g class="jm" style="animation-delay:11.08s"><g transform="scale(1) translate(-25 -51)">
<path d="M44.4188 19.4998C44.4188 35.0492 26.865 49.45 26.865 49.45C25.8393 50.2915 24.1607 50.2915 23.135 49.45C23.135 49.45 5.58116 35.0492 5.58116 19.4998C5.58136 8.77512 14.2754 0.0810547 25 0.0810547C35.7247 0.0810547 44.4188 8.77512 44.4188 19.4998Z" fill="url(#g_me)"/>
<path d="M25 29.27C19.6129 29.27 15.2304 24.8872 15.2304 19.5003C15.2304 14.1134 19.6131 9.73047 25 9.73047C30.387 9.73047 34.7697 14.1132 34.7697 19.5001C34.7697 24.887 30.3872 29.27 25 29.27Z" fill="#FFE1D6"/>
<circle cx="25" cy="19" r="13.5" fill="white"/>
<path d="M30.1293 26.4881C30.0484 26.4881 29.9711 26.467 29.8973 26.4213L28.3047 25.4229C28.1008 25.2963 28.0375 25.0256 28.1676 24.8217C28.2941 24.6178 28.5648 24.5545 28.7688 24.6846L30.0695 25.5002L31.4301 24.1396L30.625 22.86C30.5371 22.7193 30.5371 22.5436 30.6215 22.4029C30.9449 21.865 31.1875 21.2885 31.3422 20.6873C31.3844 20.5291 31.5074 20.4061 31.6656 20.3709L33.1316 20.0334V18.1104L31.6656 17.7729C31.5074 17.7377 31.3809 17.6146 31.3422 17.4564C31.1875 16.8553 30.9449 16.2752 30.6215 15.7408C30.5371 15.6002 30.5371 15.4244 30.625 15.2838L31.4266 14.0006L30.066 12.64L28.7652 13.4557C28.6281 13.54 28.4559 13.5436 28.3152 13.4627C27.7844 13.1533 27.2148 12.9213 26.6242 12.7736C26.466 12.735 26.343 12.6084 26.3043 12.4502L25.9563 10.942H24.0332L23.6781 12.4818C23.643 12.64 23.5234 12.7631 23.3652 12.8053C22.7922 12.96 22.2438 13.192 21.7305 13.4979C21.5898 13.5822 21.4141 13.5787 21.277 13.4943L19.9234 12.6471L18.5629 14.0076L19.4348 15.3787C19.5191 15.5158 19.5227 15.6881 19.4418 15.8287C19.1465 16.335 18.925 16.8764 18.7773 17.4354C18.7352 17.5936 18.6121 17.7131 18.4539 17.7482L16.8719 18.1104V20.0334L18.4539 20.3955C18.6121 20.4307 18.7387 20.5537 18.7773 20.7084C18.9215 21.2674 19.1465 21.8053 19.4418 22.315C19.5227 22.4557 19.5191 22.6279 19.4348 22.765L18.5734 24.1396L19.934 25.5002L21.2875 24.6529C21.4914 24.5264 21.7586 24.5861 21.8887 24.79C22.0152 24.9939 21.9555 25.2611 21.7516 25.3912L20.1027 26.4248C19.9305 26.5338 19.7055 26.5057 19.5648 26.365L17.7156 24.5158C17.5715 24.3717 17.5469 24.1502 17.6559 23.9779L18.5629 22.5295C18.3344 22.1006 18.148 21.6541 18.0109 21.1936L16.3375 20.8068C16.1406 20.7611 16 20.5854 16 20.3814V17.7658C16 17.5619 16.1406 17.3861 16.3375 17.3404L18.0074 16.9572C18.1445 16.4967 18.3309 16.0502 18.5594 15.6213L17.6523 14.1729C17.5434 14.0006 17.5715 13.7756 17.7121 13.635L19.5613 11.7857C19.7055 11.6416 19.927 11.617 20.0992 11.726L21.5266 12.6189C21.9625 12.3799 22.4195 12.1865 22.8941 12.0424L23.2668 10.4146C23.3125 10.2178 23.4883 10.0771 23.6922 10.0771H26.3078C26.5117 10.0771 26.6875 10.2178 26.7332 10.4146L27.0988 12.0037C27.591 12.1479 28.0691 12.3412 28.5227 12.5873L29.9008 11.7225C30.073 11.6135 30.298 11.6416 30.4387 11.7822L32.2879 13.6314C32.432 13.7756 32.4566 13.9971 32.3477 14.1693L31.5004 15.5229C31.757 15.9869 31.9609 16.4756 32.1121 16.9818L33.6625 17.3369C33.8594 17.3826 34 17.5584 34 17.7623V20.3779C34 20.5818 33.8594 20.7576 33.6625 20.8033L32.1121 21.1584C31.9609 21.6646 31.757 22.1533 31.5004 22.6174L32.3477 23.9709C32.4566 24.1432 32.4285 24.3682 32.2879 24.5088L30.4387 26.358C30.3543 26.4459 30.2418 26.4881 30.1293 26.4881Z" fill="#7E50D3"/>
<path d="M26.3324 27.9261C26.0934 27.9261 25.8965 27.7328 25.8965 27.4902V22.7757C25.8965 22.3433 26.1285 21.9425 26.5047 21.7351C27.4785 21.1937 28.0867 20.1671 28.0867 19.0527C28.0867 18.0296 27.5875 17.098 26.7684 16.532V18.5464C26.7684 19.0667 26.3465 19.4886 25.8262 19.4886H24.209C23.6887 19.4886 23.2668 19.0667 23.2668 18.5464V16.532C22.4512 17.098 21.9484 18.0296 21.9484 19.0527C21.9484 20.1671 22.5531 21.1937 23.5305 21.7351C23.9066 21.9425 24.1387 22.3398 24.1387 22.7757V27.4902C24.1387 27.7292 23.9453 27.9261 23.7027 27.9261C23.4602 27.9261 23.2668 27.7328 23.2668 27.4902V22.7757C23.2668 22.6597 23.207 22.5507 23.1086 22.498C21.857 21.8019 21.0801 20.4835 21.0801 19.0527C21.0801 17.439 22.0469 16.0081 23.541 15.3999C23.6746 15.3437 23.8293 15.3613 23.9488 15.4421C24.0684 15.523 24.1422 15.6601 24.1422 15.8042V18.5464C24.1422 18.5851 24.1738 18.6167 24.2125 18.6167H25.8297C25.8684 18.6167 25.9 18.5851 25.9 18.5464V15.8042C25.9 15.6601 25.9703 15.523 26.0934 15.4421C26.2129 15.3613 26.3676 15.3437 26.5012 15.3999C27.9953 16.0046 28.9621 17.439 28.9621 19.0527C28.9621 20.4835 28.1852 21.8019 26.9336 22.498C26.8352 22.5507 26.7754 22.6597 26.7754 22.7757V27.4902C26.7684 27.7328 26.575 27.9261 26.3324 27.9261Z" fill="#7E50D3"/>
</g></g>
</g>
<!-- Others - Dolnoslaskie -->
<g class="mw" data-category="Others" transform="translate(238 410)"><g class="jm" style="animation-delay:12.46s"><g transform="scale(1) translate(-25 -51)">
<path d="M44.4188 19.4998C44.4188 35.0492 26.865 49.45 26.865 49.45C25.8393 50.2915 24.1607 50.2915 23.135 49.45C23.135 49.45 5.58116 35.0492 5.58116 19.4998C5.58136 8.77512 14.2754 0.0810547 25 0.0810547C35.7247 0.0810547 44.4188 8.77512 44.4188 19.4998Z" fill="url(#g_ot)"/>
<path d="M25 29.27C19.6129 29.27 15.2304 24.8872 15.2304 19.5003C15.2304 14.1134 19.6131 9.73047 25 9.73047C30.387 9.73047 34.7697 14.1132 34.7697 19.5001C34.7697 24.887 30.3872 29.27 25 29.27Z" fill="#FFE1D6"/>
<circle cx="25" cy="19" r="13.5" fill="white"/>
<path d="M19.75 16C20.9926 16 22 14.9926 22 13.75C22 12.5074 20.9926 11.5 19.75 11.5C18.5074 11.5 17.5 12.5074 17.5 13.75C17.5 14.9926 18.5074 16 19.75 16Z" fill="#E83828"/>
<path d="M30.25 21.25C31.4926 21.25 32.5 20.2426 32.5 19C32.5 17.7574 31.4926 16.75 30.25 16.75C29.0074 16.75 28 17.7574 28 19C28 20.2426 29.0074 21.25 30.25 21.25Z" fill="#E83828"/>
<path d="M19.75 26.5C20.9926 26.5 22 25.4926 22 24.25C22 23.0074 20.9926 22 19.75 22C18.5074 22 17.5 23.0074 17.5 24.25C17.5 25.4926 18.5074 26.5 19.75 26.5Z" fill="#E83828"/>
<path d="M19.75 22.5625C19.4425 22.5625 19.1875 22.3075 19.1875 22V16C19.1875 15.6925 19.4425 15.4375 19.75 15.4375C20.0575 15.4375 20.3125 15.6925 20.3125 16C20.3125 17.6425 21.1075 18.4375 22.75 18.4375H28C28.3075 18.4375 28.5625 18.6925 28.5625 19C28.5625 19.3075 28.3075 19.5625 28 19.5625H22.75C21.73 19.5625 20.9125 19.3 20.3125 18.805V22C20.3125 22.3075 20.0575 22.5625 19.75 22.5625Z" fill="#E83828"/>
</g></g>
</g><!-- Renovation - Malopolskie -->
<g class="mw" data-category="Renovation" transform="translate(460 530)"><g class="jm" style="animation-delay:13.85s"><g transform="scale(1) translate(-25 -51)">
<path d="M44.4188 19.4998C44.4188 35.0492 26.865 49.45 26.865 49.45C25.8393 50.2915 24.1607 50.2915 23.135 49.45C23.135 49.45 5.58116 35.0492 5.58116 19.4998C5.58136 8.77512 14.2754 0.0810547 25 0.0810547C35.7247 0.0810547 44.4188 8.77512 44.4188 19.4998Z" fill="url(#g_re)"/>
<path d="M25 29.27C19.6129 29.27 15.2304 24.8872 15.2304 19.5003C15.2304 14.1134 19.6131 9.73047 25 9.73047C30.387 9.73047 34.7697 14.1132 34.7697 19.5001C34.7697 24.887 30.3872 29.27 25 29.27Z" fill="#FFE1D6"/>
<circle cx="25" cy="19" r="13.5" fill="white"/>
<path d="M25.4473 16.1158C25.2305 15.9544 24.9675 15.8672 24.6973 15.8672C24.427 15.8672 24.164 15.9544 23.9473 16.1158L22.0723 17.5214C21.9174 17.6382 21.7916 17.7892 21.7049 17.9627C21.6181 18.1362 21.5727 18.3274 21.5723 18.5214V21.9589C21.5723 22.2904 21.704 22.6084 21.9384 22.8428C22.1728 23.0772 22.4907 23.2089 22.8223 23.2089H26.5723C26.9038 23.2089 27.2217 23.0772 27.4561 22.8428C27.6906 22.6084 27.8223 22.2904 27.8223 21.9589V18.5214C27.8219 18.3274 27.7765 18.1362 27.6898 17.9627C27.603 17.7892 27.4772 17.6381 27.3223 17.5214L25.4473 16.1158ZM25.3223 21.9589V20.7089C25.3223 20.5432 25.2564 20.3842 25.1392 20.267C25.022 20.1498 24.863 20.0839 24.6973 20.0839C24.5315 20.0839 24.3725 20.1498 24.2553 20.267C24.1381 20.3842 24.0723 20.5432 24.0723 20.7089V21.9589H22.8223V18.5214L24.6973 17.1152L26.5723 18.5214V21.9589H25.3223Z" fill="#2D90EE"/>
<path d="M33.8989 17.7775C33.8422 17.7182 33.7744 17.6706 33.6993 17.6374C33.6241 17.6043 33.5433 17.5863 33.4612 17.5845C33.3791 17.5826 33.2975 17.5969 33.221 17.6266C33.1444 17.6563 33.0745 17.7008 33.0152 17.7575L32.6939 18.065C32.3666 16.2044 31.4003 14.5163 29.9615 13.2919C28.5227 12.0675 26.7018 11.3836 24.8128 11.3582C22.9237 11.3327 21.085 11.9673 19.6138 13.1525C18.1426 14.3376 17.1311 15.9991 16.7538 17.8503C16.3765 19.7014 16.657 21.6262 17.547 23.2926C18.4371 24.9591 19.8807 26.2627 21.629 26.9786C23.3773 27.6945 25.3207 27.7778 27.1239 27.2142C28.9271 26.6506 30.477 25.4754 31.5064 23.8913C31.5555 23.8226 31.5901 23.7448 31.6083 23.6625C31.6265 23.5801 31.6278 23.4949 31.6122 23.412C31.5966 23.3291 31.5644 23.2503 31.5174 23.1802C31.4705 23.1101 31.4099 23.0502 31.3393 23.0041C31.2686 22.9581 31.1894 22.9268 31.1063 22.9122C31.0232 22.8976 30.938 22.8999 30.8559 22.9191C30.7738 22.9383 30.6964 22.9739 30.6284 23.0238C30.5603 23.0737 30.5031 23.1368 30.4602 23.2094C29.6016 24.5358 28.3129 25.5265 26.8103 26.0153C25.3078 26.504 23.6828 26.461 22.2082 25.8935C20.7336 25.326 19.4991 24.2685 18.7118 22.8986C17.9246 21.5286 17.6325 19.9295 17.8847 18.3697C18.1369 16.8099 18.918 15.3844 20.0968 14.3323C21.2756 13.2802 22.7805 12.6656 24.3588 12.5917C25.9371 12.5178 27.4928 12.989 28.7648 13.9263C30.0368 14.8636 30.9477 16.21 31.3445 17.7394C31.2286 17.6393 31.0798 17.5858 30.9267 17.5892C30.7736 17.5925 30.6272 17.6525 30.5158 17.7575C30.3959 17.8719 30.3264 18.0291 30.3224 18.1947C30.3184 18.3603 30.3803 18.5207 30.4945 18.6406L31.6883 19.8906C31.7449 19.9501 31.8127 19.9978 31.8878 20.031C31.9628 20.0643 32.0437 20.0824 32.1258 20.0844H32.1395C32.3006 20.0846 32.4556 20.0225 32.572 19.9113L33.8783 18.6613C33.9377 18.6046 33.9853 18.5368 34.0185 18.4617C34.0517 18.3866 34.0697 18.3057 34.0717 18.2237C34.0736 18.1416 34.0593 18.06 34.0297 17.9834C34 17.9068 33.9556 17.8369 33.8989 17.7775Z" fill="#2D90EE"/>
</g></g>
</g>
<!-- Transport - Lubelskie -->
<g class="mw" data-category="Transport" transform="translate(612 392)"><g class="jm" style="animation-delay:15.23s"><g transform="scale(1) translate(-25 -51)">
<path d="M44.4188 19.4998C44.4188 35.0492 26.865 49.45 26.865 49.45C25.8393 50.2915 24.1607 50.2915 23.135 49.45C23.135 49.45 5.58116 35.0492 5.58116 19.4998C5.58136 8.77512 14.2754 0.0810547 25 0.0810547C35.7247 0.0810547 44.4188 8.77512 44.4188 19.4998Z" fill="url(#g_tr)"/>
<path d="M25 29.27C19.6129 29.27 15.2304 24.8872 15.2304 19.5003C15.2304 14.1134 19.6131 9.73047 25 9.73047C30.387 9.73047 34.7697 14.1132 34.7697 19.5001C34.7697 24.887 30.3872 29.27 25 29.27Z" fill="#FFE1D6"/>
<circle cx="25" cy="19" r="13.5" fill="white"/>
<path d="M16.4739 17.9469H15.9325C15.6846 17.9469 15.4825 17.7448 15.4825 17.4969V15.6969C15.4825 15.4485 15.2809 15.2469 15.0325 15.2469C14.7841 15.2469 14.5825 15.4485 14.5825 15.6969V17.4969C14.5825 18.2412 15.1882 18.8469 15.9325 18.8469H16.4739C16.6692 19.4949 17.2645 19.9719 17.9755 19.9719C18.6865 19.9719 19.2819 19.4949 19.4772 18.8469H21.3505H22.3239C22.5192 19.4949 23.1145 19.9719 23.8255 19.9719C24.5365 19.9719 25.1319 19.4949 25.3272 18.8469H26.3005C26.5489 18.8469 26.7505 18.6453 26.7505 18.3969V16.1469C26.7505 15.8125 26.6106 15.3508 26.4252 15.0727L25.1242 13.1215C24.9019 12.7885 24.4501 12.5469 24.0501 12.5469H22.7883V11.6469C22.7883 10.9026 22.1826 10.2969 21.4383 10.2969H20.0005C19.7521 10.2969 19.5505 10.4985 19.5505 10.7469C19.5505 10.9953 19.7521 11.1969 20.0005 11.1969H21.4387C21.6867 11.1969 21.8887 11.3989 21.8887 11.6469V17.9469H21.3505H19.4772C19.2819 17.2989 18.6865 16.8219 17.9755 16.8219C17.2645 16.8219 16.6692 17.2989 16.4739 17.9469ZM23.8255 19.0719C23.4534 19.0719 23.1505 18.769 23.1505 18.3969C23.1505 18.0247 23.4534 17.7219 23.8255 17.7219C24.1977 17.7219 24.5005 18.0247 24.5005 18.3969C24.5005 18.769 24.1977 19.0719 23.8255 19.0719ZM22.7887 13.4469H24.0505C24.1482 13.4469 24.3214 13.5396 24.3759 13.621L25.1598 14.7969H22.7887V13.4469ZM22.7887 15.6969H25.7412C25.8024 15.8395 25.8505 16.0285 25.8505 16.1469V17.9469H25.3272C25.1319 17.2989 24.5365 16.8219 23.8255 16.8219C23.4268 16.8219 23.0664 16.9753 22.7887 17.2206V15.6969ZM18.6505 18.3969C18.6505 18.769 18.3477 19.0719 17.9755 19.0719C17.6034 19.0719 17.3005 18.769 17.3005 18.3969C17.3005 18.0247 17.6034 17.7219 17.9755 17.7219C18.3477 17.7219 18.6505 18.0247 18.6505 18.3969Z" fill="#49C55E"/>
<path d="M19.1005 10.7469C19.1005 10.4985 18.8989 10.2969 18.6505 10.2969H13.7005C13.4521 10.2969 13.2505 10.4985 13.2505 10.7469C13.2505 10.9953 13.4521 11.1969 13.7005 11.1969H18.6505C18.8989 11.1969 19.1005 10.9953 19.1005 10.7469Z" fill="#49C55E"/>
<path d="M17.7504 12.9967C17.9988 12.9967 18.2004 12.7951 18.2004 12.5467C18.2004 12.2983 17.9988 12.0967 17.7504 12.0967H14.6004C14.352 12.0967 14.1504 12.2983 14.1504 12.5467C14.1504 12.7951 14.352 12.9967 14.6004 12.9967H17.7504Z" fill="#49C55E"/>
<path d="M16.8503 14.7975C17.0987 14.7975 17.3003 14.5959 17.3003 14.3475C17.3003 14.0991 17.0987 13.8975 16.8503 13.8975H15.5003C15.2519 13.8975 15.0503 14.0991 15.0503 14.3475C15.0503 14.5959 15.2519 14.7975 15.5003 14.7975H16.8503Z" fill="#49C55E"/>
</g></g>
</g>
<!-- Glass (Search) - Podkarpackie -->
<g class="mw" data-category="Search" transform="translate(575 518)"><g class="jm" style="animation-delay:16.62s"><g transform="scale(1) translate(-25 -51)">
<path d="M44.4188 19.4998C44.4188 35.0492 26.865 49.45 26.865 49.45C25.8393 50.2915 24.1607 50.2915 23.135 49.45C23.135 49.45 5.58116 35.0492 5.58116 19.4998C5.58136 8.77512 14.2754 0.0810547 25 0.0810547C35.7247 0.0810547 44.4188 8.77512 44.4188 19.4998Z" fill="url(#g_gl)"/>
<path d="M25 29.27C19.6129 29.27 15.2304 24.8872 15.2304 19.5003C15.2304 14.1134 19.6131 9.73047 25 9.73047C30.387 9.73047 34.7697 14.1132 34.7697 19.5001C34.7697 24.887 30.3872 29.27 25 29.27Z" fill="#FFE1D6"/>
<circle cx="25" cy="19" r="13.5" fill="white"/>
<g transform="translate(6 -0.5)">
<path d="M29.75 29.75L24.1202 24.1202M24.1202 24.1202C25.5906 22.6499 26.5 20.6187 26.5 18.375C26.5 13.8877 22.8623 10.25 18.375 10.25C13.8877 10.25 10.25 13.8877 10.25 18.375C10.25 22.8623 13.8877 26.5 18.375 26.5C20.6187 26.5 22.6499 25.5906 24.1202 24.1202Z" stroke="#22C55E" stroke-width="2.5" stroke-linecap="round" stroke-linejoin="round" fill="none"/>
</g>
</g></g>
</g>
</svg>
