<?xml version="1.0" encoding="UTF-8"?>
<svg id="Layer_2" data-name="Layer 2" xmlns="http://www.w3.org/2000/svg" viewBox="0 0 540 206.91">
  <defs>
    <style>
      .cls-1 {
        fill: #1877F2;
      }

      .cls-2 {
        fill: #26364d;
      }
    </style>
  </defs>
  <g id="Layer_1-2" data-name="Layer 1">
    <g>
      <g>
        <path class="cls-2" d="M133.67,94.24c0-29.21,21.42-50.63,51.79-50.63s51.79,21.42,51.79,50.63-21.42,50.63-51.79,50.63-51.79-21.42-51.79-50.63ZM207.66,94.24c0-13.82-8.96-23.37-22.2-23.37s-22.2,9.54-22.2,23.37,8.96,23.37,22.2,23.37,22.2-9.54,22.2-23.37Z"/>
        <path class="cls-2" d="M250.56,4.09h29.21v138.25h-29.21V4.09Z"/>
        <g class="cls-2" transform="translate(294.1 0)">
          <path d="m 81.76,55.6 q 2.08,0.96 3.2,2.72 1.12,1.6 1.12,3.68 0,1.44 -0.8,3.04 l -33.92,71.52 q -2.4,5.28 -7.36,5.28 -2.72,0 -4.48,-1.12 -1.76,-1.28 -3.2,-4.16 L 2.4,65.04 q -0.64,-1.28 -0.64,-2.88 0,-4.32 4.48,-6.56 1.44,-0.8 3.36,-0.8 1.92,0 3.68,1.12 1.76,0.96 2.72,2.88 l 27.84,60 27.52,-60 q 0.96,-1.92 2.72,-2.88 1.92,-1.12 4,-1.12 2.08,0 3.68,0.8 z"/>
          <path d="m 111.84005,142 q -3.52,0 -5.92,-2.24 -2.24,-2.4 -2.24,-5.92 v -71.2 q 0,-3.68 2.24,-5.92 2.4,-2.24 5.92,-2.24 3.68,0 5.92,2.24 2.24,2.24 2.24,5.92 v 71.2 q 0,3.52 -2.24,5.92 -2.24,2.24 -5.92,2.24 z m 0,-101.76 q -4.32,0 -7.52,-3.04 -3.04,-3.2 -3.04,-7.52 0,-4.32 3.04,-7.36 3.2,-3.2 7.52,-3.2 4.32,0 7.36,3.2 3.2,3.04 3.2,7.36 0,4.32 -3.2,7.52 -3.04,3.04 -7.36,3.04 z"/>
          <path d="m 190.08006,53.84 q 12.32,0 22.24,5.92 10.08,5.76 15.84,16 5.92,10.08 5.92,22.56 V 134 q 0,3.52 -2.4,5.92 -2.24,2.24 -5.76,2.24 -3.52,0 -5.92,-2.24 -2.24,-2.4 -2.24,-5.92 v -5.92 q -5.6,6.88 -13.6,10.72 -8,3.84 -17.28,3.84 -11.52,0 -20.96,-5.76 -9.28,-5.76 -14.72,-15.84 -5.28,-10.24 -5.28,-22.72 0,-12.48 5.76,-22.56 5.76,-10.24 15.84,-16 10.24,-5.92 22.56,-5.92 z m 0,74.4 q 8,0 14.4,-3.84 6.56,-4 10.24,-10.72 3.68,-6.88 3.68,-15.36 0,-8.48 -3.68,-15.36 -3.68,-6.88 -10.24,-10.72 -6.4,-4 -14.4,-4 -8,0 -14.56,4 -6.4,3.84 -10.24,10.72 -3.68,6.88 -3.68,15.36 0,8.48 3.68,15.36 3.84,6.72 10.24,10.72 6.56,3.84 14.56,3.84 z"/>
        </g>
</g>
      <path class="cls-1" d="M85.18,206.91L17.92,138.22c-23.92-23.98-23.9-62.95.06-86.91l.08-.08c23.98-23.98,62.99-23.98,86.97,0s23.98,62.99,0,86.97l-22.11,22.11,24.4,24.92-22.15,21.69ZM61.55,64.22c-7.81,0-15.62,2.97-21.57,8.92l-.08.08c-11.89,11.89-11.89,31.24,0,43.13l.12.12,21.22,21.68,21.88-21.88c11.89-11.89,11.89-31.24,0-43.13-5.95-5.95-13.76-8.92-21.57-8.92Z"/>
    </g>
  </g>
</svg>
