<?xml version="1.0" encoding="UTF-8"?>
<svg id="Layer_2" data-name="Layer 2" xmlns="http://www.w3.org/2000/svg" viewBox="0 0 445.6 206.91">
  <defs>
    <style>
      .cls-1 {
        fill: #1877F2;
      }

      .cls-2 {
        fill: #26364d;
      }
    </style>
  </defs>
  <g id="Layer_1-2" data-name="Layer 1">
    <g>
      <g>
        <path class="cls-2" d="M133.67,94.24c0-29.21,21.42-50.63,51.79-50.63s51.79,21.42,51.79,50.63-21.42,50.63-51.79,50.63-51.79-21.42-51.79-50.63ZM207.66,94.24c0-13.82-8.96-23.37-22.2-23.37s-22.2,9.54-22.2,23.37,8.96,23.37,22.2,23.37,22.2-9.54,22.2-23.37Z"/>
        <path class="cls-2" d="M250.56,4.09h29.21v138.25h-29.21V4.09Z"/>
        <path class="cls-2" d="M296,18.69c0-10.71,7.98-18.69,18.69-18.69s18.69,7.98,18.69,18.69-7.98,18.69-18.69,18.69-18.69-7.98-18.69-18.69ZM300.08,46.15h29.21v96.19h-29.21V46.15Z"/>
        <path class="cls-2" d="M342.6,94.24c0-29.21,21.42-50.63,51.79-50.63s51.21,21.42,51.21,50.63v8.18h-72.63c2.34,11.29,10.9,16.36,21.42,16.36,8.37,0,14.6-1.75,18.3-7.01h30.18c-6.23,19.86-24.53,33.1-48.49,33.1-30.38,0-51.79-21.42-51.79-50.63ZM415.62,83.92c-3.31-9.93-11.1-14.21-21.22-14.21s-17.91,4.48-20.83,14.21h42.06Z"/>
      </g>
      <path class="cls-1" d="M85.18,206.91L17.92,138.22c-23.92-23.98-23.9-62.95.06-86.91l.08-.08c23.98-23.98,62.99-23.98,86.97,0s23.98,62.99,0,86.97l-22.11,22.11,24.4,24.92-22.15,21.69ZM61.55,64.22c-7.81,0-15.62,2.97-21.57,8.92l-.08.08c-11.89,11.89-11.89,31.24,0,43.13l.12.12,21.22,21.68,21.88-21.88c11.89-11.89,11.89-31.24,0-43.13-5.95-5.95-13.76-8.92-21.57-8.92Z"/>
    </g>
  </g>
</svg>
