<svg xmlns="http://www.w3.org/2000/svg" width="117" height="57" viewBox="406 781 1188 438">
<style type="text/css">
	.st0{fill:#0865FE;}
	.st1{fill:#ffffff;}
</style>
<g>
	<path class="st0" d="M533.35,894.95c-64.53,0-116.83,52.31-116.83,116.83v44.49c6.89-29.69,22.97-79.56,56.38-102.78
		c25.73-17.88,58.83-16.88,82.21,0.19c3.47,2.41,6.64,5.25,9.46,8.39c0.04,0.04,0.09,0.09,0.12,0.13c2.16,2.31,4.17,4.8,6.02,7.46
		c21.78,31.34,13.28,74.91-18.95,97.3c-42.74,29.71-116.44,17.6-135.24,13.87v127.98h57.1v-97.21h59.73
		c57.54,0,103.75-47.94,103.75-108.11c0-30.3-11.55-57.44-30.3-76.99S562.11,894.95,533.35,894.95z"/>
	<path class="st1" d="M773.98,894.07c-65.4,0-110.73,44.9-110.73,109.42c0,64.09,45.33,108.99,110.73,108.99
		c64.94,0,110.29-44.9,110.29-108.99C884.26,938.97,838.92,894.07,773.98,894.07z M773.98,1060.6c-31.83,0-53.63-23.54-53.63-57.11
		c0-34,21.8-57.54,53.63-57.54c31.38,0,53.17,23.54,53.17,57.54C827.15,1037.06,805.36,1060.6,773.98,1060.6z"/>
	<rect x="918.26" y="797.73" class="st1" width="57.11" height="309.53"/>
	<polygon class="st1" points="1113.99,1034.01 1054.7,899.3 994.11,899.3 1089.14,1107.25 1138.84,1107.25 1233.87,899.3
		1173.28,899.3"/>
	<rect x="1265.68" y="899.3" class="st1" width="57.11" height="207.95"/>
	<path class="st0" d="M1294.02,791.19c-19.62,0-34.88,14.38-34.88,34.01c0,19.17,15.27,33.56,34.88,33.56
		c19.17,0,34.87-14.38,34.87-33.56C1328.89,805.57,1313.2,791.19,1294.02,791.19z"/>
	<path class="st1" d="M1526.37,899.3v11.77c-16.12-10.46-36.62-17-59.71-17c-57.55,0-103.75,48.83-103.75,109.42
		c0,60.17,46.2,108.99,103.75,108.99c23.1,0,43.59-6.55,59.71-17.01v11.78h57.11V899.3H1526.37z M1526.37,1009.55
		c0,27.95-22.48,50.89-50.44,51.05c-0.19,0-0.37,0-0.56,0c-32.69,0-55.36-26.15-55.36-57.11c0-31.38,22.67-57.54,55.36-57.54
		c0.19,0,0.37,0,0.56,0c27.95,0.16,50.44,23.09,50.44,51.05V1009.55z"/>
	<ellipse transform="matrix(0.3798 -0.9251 0.9251 0.3798 -615.5361 1100.0408)" class="st1" cx="512.64" cy="1009.09" rx="28.63" ry="28.63"/>
</g>
</svg>
