<svg xmlns="http://www.w3.org/2000/svg" viewBox="357 879 340 340">
  <path fill="#0865FE" d="M533.35,894.95c-64.53,0-116.83,52.31-116.83,116.83v44.49c6.89-29.69,22.97-79.56,56.38-102.78c25.73-17.88,58.83-16.88,82.21,0.19c3.47,2.41,6.64,5.25,9.46,8.39c0.04,0.04,0.09,0.09,0.12,0.13c2.16,2.31,4.17,4.8,6.02,7.46c21.78,31.34,13.28,74.91-18.95,97.3c-42.74,29.71-116.44,17.6-135.24,13.87v127.98h57.1v-97.21h59.73c57.54,0,103.75-47.94,103.75-108.11c0-30.3-11.55-57.44-30.3-76.99S562.11,894.95,533.35,894.95z"/>
  <ellipse fill="#26364D" transform="matrix(0.3798 -0.9251 0.9251 0.3798 -615.5361 1100.0408)" cx="512.64" cy="1009.09" rx="28.63" ry="28.63"/>
</svg>
