<?xml version="1.0" encoding="UTF-8"?>
<svg id="Layer_2" data-name="Layer 2" xmlns="http://www.w3.org/2000/svg" viewBox="0 0 440.73 440.73">
    <defs>
        <style>
            .cls-1 {
            fill: #67be6d;
            }

            <!--      .cls-2 {-->
            <!--        fill: #26364d;-->
            <!--      }-->
        </style>
    </defs>
    <g id="Layer_1-2" data-name="Layer 1">
        <!--    <path class="cls-2" d="M385.23,440.73H55.5c-30.65,0-55.5-24.85-55.5-55.5V55.5C0,24.85,24.85,0,55.5,0h329.73c30.65,0,55.5,24.85,55.5,55.5v329.73c0,30.65-24.85,55.5-55.5,55.5"/>-->
        <path class="cls-1"
              d="M249.72,328.04l-83.4-85.18c-29.66-29.74-29.63-78.06.08-107.76l.1-.1c29.73-29.73,78.11-29.73,107.84,0,29.73,29.73,29.73,78.11,0,107.84l-27.41,27.41,30.26,30.9-27.46,26.89ZM220.42,151.11c-9.68,0-19.37,3.69-26.74,11.06l-.1.1c-14.74,14.75-14.74,38.74,0,53.48l.14.14,26.32,26.88,27.12-27.12c14.75-14.74,14.75-38.74,0-53.48-7.37-7.37-17.06-11.06-26.74-11.06Z"/>
    </g>
</svg>