<svg xmlns="http://www.w3.org/2000/svg" version="1.1" id="svg10" viewBox="0 0 1333 597"><g id="Background" fill="#fff"><path id="Path 0" fill-rule="evenodd" class="shp0" d="M566.5.68c4.4.24 10.47.88 13.5 1.44 3.02.55 8.42 1.94 12 3.08 3.57 1.15 9.65 3.65 13.5 5.56 3.85 1.91 9.7 5.39 13 7.72 3.3 2.34 9.82 8.29 14.5 13.22 4.72 4.98 10.72 12.7 13.5 17.36 2.75 4.61 6.43 12.22 8.17 16.91 1.75 4.69 3.86 12.13 4.7 16.53.83 4.4 1.77 10.14 2.63 17.5l37.5.06 4.25-4.03c2.77-2.63 6.07-4.55 9.5-5.54 2.89-.83 8.4-1.51 12.25-1.52 3.96-.01 9.39.75 12.5 1.75 3.49 1.11 6.87 3.13 9.25 5.52 2.91 2.92 4.54 3.76 7.25 3.76 2.84 0 3.55-.41 3.75-2.15.14-1.18 1.5-3.09 3.02-4.25 2.37-1.8 3.31-1.96 6.5-1.1 2.74.73 4.13 1.86 5.23 4.23.96 2.07 2.21 3.22 3.5 3.21 1.15-.01 2.85-1.37 4-3.2 1.1-1.75 3.12-3.61 4.5-4.13 1.76-.66 3.47-.52 5.78.48 1.81.78 3.83 2.66 5.72 6.99l115.5-.04c111.14-.05 115.63.02 119 1.83 1.92 1.03 4.85 3.55 6.5 5.6 2.79 3.46 3.02 4.37 3.34 13.37.18 5.31.07 11.12-.25 12.91-.33 1.79-2.05 4.9-3.84 6.91s-4.71 4.26-6.5 5c-2.15.88-7.66 1.34-29.25 1.34v21h26v79h-20v-19h-17v-42h-9v-17h-6v-11c0-6.67-.39-11-1-11s-1 4.33-1 22h-7v17h-9v42h-17v19h-19v-79h25v-21h-75c-59.34 0-75 .26-74.98 1.25.01.69-.89 2.26-2 3.5-1.11 1.24-3.26 2.52-4.77 2.85-1.52.33-3.99-.01-5.53-.75-1.53-.74-3.33-2.61-4-4.14-.83-1.89-1.95-2.78-3.47-2.75-1.32.02-2.25.66-2.25 1.54 0 .82-1.1 2.62-2.45 4-1.43 1.45-3.63 2.51-5.25 2.53-1.54.02-4.04-.88-5.55-2-1.51-1.11-2.75-2.93-2.75-4.03 0-1.62-.67-2-3.5-2-2.73 0-4.33.84-7.25 3.81-2.32 2.35-5.85 4.51-9.25 5.67-3.55 1.21-8.15 1.84-13 1.8-4.94-.04-9.38-.76-13-2.1-3.29-1.22-6.81-3.48-12-9.18h-38l-.5 4.75c-.28 2.61-1.36 8.8-2.4 13.75-1.03 4.95-3.27 12.6-4.97 17-1.69 4.4-5.31 11.6-8.03 16-2.73 4.4-7.12 10.56-9.78 13.69-2.65 3.13-7.75 8.17-11.32 11.2-3.58 3.04-9.43 7.26-13 9.39-3.58 2.12-9.88 5.25-14 6.96-4.13 1.7-10.88 3.77-15 4.6-4.13.83-10.88 1.8-15 2.16-4.13.36-11.55.15-16.5-.46-4.95-.62-11.7-1.84-15-2.71-3.3-.88-10.28-3.59-15.5-6.03-5.23-2.44-12.2-6.38-15.5-8.76-3.3-2.37-8.86-7.18-12.36-10.68s-8.29-9.06-10.65-12.36c-2.35-3.3-5.88-8.93-7.83-12.5-1.95-3.58-4.91-10.55-6.57-15.5-1.67-4.95-3.72-13.5-4.55-19-1.06-6.94-1.53-17.64-1.53-35 0-16.7.48-28.15 1.44-34.5.79-5.23 2.34-12.43 3.44-16 1.1-3.58 3.42-9.65 5.15-13.5 1.73-3.85 5.19-10.15 7.69-14 2.5-3.85 7.97-10.54 12.16-14.86 4.18-4.32 10.31-9.78 13.61-12.13 3.3-2.35 9.15-5.84 13-7.75 3.85-1.91 9.92-4.42 13.5-5.57 3.57-1.15 9.2-2.56 12.5-3.14 3.3-.58 7.8-1.22 10-1.42 2.2-.21 7.6-.18 12 .05zm-30 34.59c-2.2.8-5.8 2.36-8 3.47-2.2 1.12-6.36 3.88-9.25 6.14-2.89 2.27-7.25 6.93-9.7 10.37-2.45 3.44-5.78 9.85-7.41 14.25S498.65 81.32 498 86c-.65 4.67-.88 10.75-.52 13.5s1.44 6.8 2.4 9 3.3 5.8 5.21 8c1.9 2.2 4.01 4.79 4.69 5.75 1.04 1.5.55 2.5-3.46 7-2.57 2.89-5.6 7.27-6.73 9.75-1.64 3.6-2.04 6.41-1.97 14 .05 5.38.84 12.54 1.83 16.5.96 3.85 3.38 10.37 5.38 14.5 2.53 5.22 5.62 9.48 10.15 14 3.59 3.57 9.22 7.92 12.52 9.66 3.3 1.74 9.37 4.2 13.5 5.48 6.2 1.92 9.75 2.33 20.5 2.34 7.61.01 15.28-.54 18.5-1.33 3.02-.75 9.32-3.17 14-5.39 6.47-3.08 10.05-5.61 15.01-10.65 4.34-4.41 7.74-9.1 10.21-14.11 2.03-4.13 4.46-10.65 5.39-14.5.93-3.85 1.73-11.28 1.79-16.5.08-7.69-.3-10.36-1.99-14-1.15-2.48-4.18-6.98-6.72-10l-4.62-5.5c4.98-5.95 7.46-9.1 8.71-10.84 1.26-1.74 3.01-5.64 3.89-8.66 1.17-4.05 1.42-7.48.95-13-.36-4.13-1.34-10.43-2.18-14-.84-3.58-3.18-9.88-5.21-14-2.51-5.09-5.79-9.61-10.21-14.06-4.51-4.54-8.83-7.69-14.02-10.23-4.13-2.03-10.2-4.38-13.5-5.24-3.3-.86-10.73-1.76-16.5-2-6.65-.27-13.07.08-17.5.96-3.85.76-8.8 2.04-11 2.84zm191 229.56L728 304h16v17h-16l.04 30.25c.03 16.64.44 32.27.92 34.75.59 3.02 1.81 5.28 3.71 6.88 2.37 1.99 3.52 2.27 11.33 1.12v17l-4.5 1c-2.48.55-5.96 1-7.75 1.01-1.79.01-5.5-.66-8.25-1.47-2.75-.81-6.39-2.73-8.08-4.26-1.69-1.53-4.17-4.81-7.92-11.78L707 321h-10v-17h10l.1-24.5 20.4-14.67zm-215 37.48c9.66.28 11.78.68 17.38 3.26 3.84 1.76 8.06 4.73 10.59 7.43 2.31 2.47 5.36 6.75 6.77 9.5 1.41 2.75 3.38 7.92 4.38 11.5 1.4 5.03 1.82 10.12 1.83 22.5.01 12.12-.41 17.58-1.74 22.5-.96 3.57-3.17 9.42-4.91 13-1.76 3.63-5.39 8.72-8.23 11.54-3.4 3.38-7.04 5.8-11.07 7.34-5.06 1.95-7.45 2.26-24.5 1.62l-.11 24-10.7 7.65c-5.88 4.21-11.02 7.36-11.43 7-.4-.36-.63-32.35-.26-141.54l3-1.77c1.65-.97 6.37-2.69 10.5-3.81 5.93-1.61 9.8-1.97 18.5-1.72zM503 319c0 71.83.2 77.07 1.5 77.5.82.27 3.41.49 5.75.48 2.54-.01 5.86-.92 8.25-2.27 2.42-1.37 5.2-4.23 7.02-7.24 1.67-2.73 3.69-7.9 4.5-11.47.92-4.05 1.47-11.59 1.45-20-.03-11.01-.43-14.79-2.21-20.5-1.26-4.03-3.58-8.66-5.47-10.92-1.81-2.16-4.75-4.53-6.54-5.25-1.79-.73-4.71-1.27-6.5-1.19-1.79.07-4.26.3-5.5.5L503 319zm97.5-16.63c8.09.2 11.03.72 15.4 2.69 2.97 1.34 6.99 4.24 8.94 6.44 1.95 2.2 4.41 6.02 5.47 8.5 1.06 2.47 2.32 8.32 2.79 13 .48 4.67.87 23.01.9 73l-5.25 2.39c-2.89 1.32-7.73 2.87-10.75 3.45-3.03.58-8.2 1.33-11.5 1.68-3.3.35-9.6.14-14-.46-4.4-.6-10.25-2.16-13-3.47-2.75-1.32-6.7-4.35-8.78-6.74-2.07-2.39-4.4-6.38-5.18-8.85-.77-2.48-1.69-6.75-2.05-9.5-.35-2.75-.12-7.93.52-11.5.63-3.58 2.36-8.7 3.82-11.39 1.47-2.7 4.47-6.43 6.67-8.31 2.2-1.87 6.47-4.56 9.5-5.98 3.02-1.42 8.87-3.38 13-4.37 4.12-.99 9.19-2.06 11.25-2.37 3.73-.58 3.75-.61 3.75-5.33 0-2.61-.79-6.32-1.75-8.23-.96-1.91-3.33-4.55-5.25-5.85-3.14-2.13-4.32-2.33-11.5-1.93-5.85.33-9.55 1.17-19.5 5.76l-1.4-3.25c-.76-1.79-2-5.19-2.75-7.56-1.17-3.75-1.15-4.44.15-5.25.82-.51 3.97-1.87 7-3.02 3.02-1.15 7.3-2.48 9.5-2.95 2.2-.47 8.5-.74 14-.6zm-4.25 56.5c-2.06 1.03-5.13 3.39-6.83 5.25-2.07 2.28-3.45 5.21-4.23 9.01-.64 3.09-.95 7.59-.69 10 .26 2.4 1.5 5.94 2.76 7.87 1.25 1.92 3.85 4.32 5.76 5.31 2.62 1.37 5.08 1.72 9.98 1.43 3.57-.21 7.06-.69 7.75-1.06.94-.51 1.25-5.91 1.25-21.68 0-11.55-.34-20.97-.75-20.93-.41.03-3.11.71-6 1.5-2.89.78-6.94 2.27-9 3.3zM695 302l-.64 3.25c-.35 1.79-1.38 5.95-2.29 9.25-1.37 4.96-1.99 5.95-3.61 5.7-1.08-.17-3.99-.54-6.46-.84-2.48-.29-5.74-.05-10 1.64v91h-23V310l3.75-1.9c2.06-1.04 6.22-2.59 9.25-3.45 3.02-.85 6.85-1.73 8.5-1.95 1.65-.22 7.84-.47 24.5-.7zm92.25.08c5.36-.04 12.11.43 15 1.04 2.89.62 6.82 1.92 8.75 2.88 1.92.97 5.19 3.61 7.25 5.88 2.28 2.51 4.34 6.17 5.26 9.37 1.24 4.32 1.51 12.84 1.49 90.75h-22v-41c0-32.34-.29-41.69-1.36-44.25-.75-1.79-2.37-4.15-3.61-5.25-1.7-1.51-3.99-2.08-9.39-2.33-3.93-.19-8.38.15-12.64 1.83v91h-22l-.08-102.5 4.79-2.17c2.63-1.19 7.94-2.84 11.79-3.67 3.85-.82 11.39-1.53 16.75-1.58zm89.75-.05c3.57-.03 8.75.6 11.5 1.39 2.75.79 7.02 2.95 9.5 4.8 2.47 1.85 5.98 5.82 7.78 8.82 1.81 3 4.2 8.38 5.31 11.96 1.11 3.57 2.48 11.9 3.04 18.5s.65 12.3.19 12.67c-.45.37-12.75 2.11-27.32 3.87-14.58 1.76-26.62 3.26-26.77 3.33-.14.07.42 3.28 1.25 7.13.84 3.94 2.79 8.97 4.44 11.5 1.62 2.47 4.44 5.37 6.26 6.44 1.83 1.07 5.12 2.28 7.32 2.7 2.2.41 6.92.3 10.5-.26 3.57-.55 8.41-1.88 10.75-2.94 2.34-1.07 4.59-1.83 5-1.7.41.14 1.76 3.4 2.99 7.25 1.23 3.86 2.24 7.35 2.25 7.76 0 .41-2.13 1.81-4.74 3.11-2.61 1.3-7.23 2.97-10.25 3.71-3.03.73-9.78 1.31-15 1.27-7.14-.05-10.87-.59-15-2.17-3.03-1.16-7.5-3.59-9.95-5.39-2.44-1.8-6.18-5.98-8.29-9.28-2.12-3.3-4.75-8.93-5.85-12.5-1.1-3.58-2.46-11-3.02-16.5-.71-6.94-.7-12.99.04-19.75.59-5.36 2.1-13.01 3.37-17 1.26-3.99 4.08-9.93 6.25-13.21 2.17-3.27 5.88-7.32 8.25-9 2.36-1.67 6.41-3.81 9-4.75 2.58-.94 7.62-1.73 11.2-1.76zm-11.66 24.02c-1.19 1.9-2.85 5.92-3.7 8.95-.84 3.02-1.78 8.09-2.09 11.25-.4 4.23-.22 5.75.7 5.75.69 0 6.65-.67 13.25-1.5s13.46-1.73 15.25-2c3.19-.49 3.25-.59 3.24-5.75 0-2.89-.78-7.95-1.73-11.25-1.13-3.94-2.84-7.12-4.99-9.25-2.66-2.65-4.06-3.25-7.52-3.25-2.34.01-5.6.82-7.25 1.81-1.65.99-3.97 3.35-5.16 5.24zm96.16-23.96c5.5-.08 10.22.08 10.5.37.27.28-.44 4.45-1.59 9.27-1.78 7.5-2.36 8.73-4 8.48-1.05-.16-3.71-.56-5.91-.88-2.2-.32-5.69-.08-11.5 1.67v91h-22V310l2.25-1.42c1.24-.78 4.5-2.15 7.25-3.04 2.75-.89 7.25-2 10-2.46 2.75-.47 9.5-.91 15-.99zm46 .29c6.34.23 10.48.96 14 2.45 2.75 1.16 5.78 2.92 6.74 3.89 1.66 1.69 1.62 2.1-.85 8.28-1.42 3.57-2.77 6.61-2.99 6.75-.22.14-2.99-.95-6.15-2.41-4.58-2.13-6.67-2.55-10.25-2.09-3.34.43-5.21 1.38-7.25 3.67-2.03 2.27-2.75 4.13-2.75 7.08 0 2.2.64 5.24 1.42 6.75.78 1.51 3.14 4.37 5.25 6.34 2.11 1.98 6.53 5.62 9.83 8.1 3.3 2.47 7.93 6.71 10.29 9.4 2.36 2.7 5.05 7.16 5.98 9.91.98 2.9 1.7 8.15 1.71 12.5.02 6.1-.48 8.53-2.64 13-1.46 3.02-4.39 7.04-6.5 8.93-2.11 1.88-6.32 4.56-9.34 5.96-4.61 2.12-6.95 2.53-14.5 2.51-5.47-.02-11.16-.68-14.5-1.69-3.03-.92-6.85-2.75-11.5-6.49l2.81-7.86c1.55-4.32 3.01-8.09 3.24-8.36.24-.28 1.23.26 2.19 1.19.97.93 3.45 2.39 5.51 3.25 2.06.86 6.22 1.56 9.25 1.56 4.4 0 6.1-.5 8.5-2.5 1.65-1.38 3.41-3.96 3.9-5.75.5-1.79.57-4.83.17-6.75-.4-1.93-1.59-4.81-2.65-6.41-1.05-1.6-5.52-5.71-9.92-9.12-4.4-3.42-9.77-8.19-11.94-10.59-2.16-2.41-4.97-6.63-6.24-9.38-1.81-3.93-2.3-6.77-2.31-13.25-.01-7.39.33-8.9 3.26-14.5 2.45-4.68 4.53-7.08 8.25-9.56 2.74-1.82 6.33-3.72 7.98-4.22 1.65-.51 7.05-.77 12-.59zm-823.13 3.83c.62.19 6.53 11.03 13.13 24.07C204.1 343.32 209.72 354 210 354c.27 0 5.67-10.63 12-23.62 6.32-12.99 11.95-23.85 12.49-24.13.54-.28 1.22-.04 1.5.52.28.57 1.86 12.86 3.51 27.33 2.3 20.12 3.41 26.84 4.75 28.6.96 1.27 2.65 2.3 3.75 2.3s2 .45 2 1c0 .61-3.24.9-16.47.5l.23-4c.13-2.2-.56-11.57-3.26-37.66L220 345.96c-7.39 14.86-10.94 21.04-12 20.83-.83-.16-6.07-9.29-11.66-20.29-9.6-18.89-10.19-19.81-10.72-16.5-.3 1.92-1.02 8.67-1.58 15-.57 6.32-1.04 13.19-1.04 15.25 0 2.92.44 3.86 2 4.25 1.1.27 2 .95 2 1.5 0 .58-3.17 1-7.5 1s-7.5-.42-7.5-1c0-.55.83-1.11 1.84-1.25 1.31-.18 2.03-1.41 2.49-4.25.36-2.2 1.8-14.35 3.19-27s2.79-24.04 3.12-25.32c.32-1.28 1.1-2.16 1.73-1.97zm196 0c.62.19 6.53 11.03 13.13 24.07 6.6 13.04 12.22 23.71 12.5 23.7.27-.01 5.42-10.25 11.44-22.75 6.01-12.5 11.6-23.38 12.41-24.17.82-.79 1.65-1.24 1.85-1 .19.24 1.81 12.65 3.58 27.58 2.73 23.01 3.52 27.47 5.22 29.28 1.1 1.18 2.79 2.13 3.75 2.11.96-.02 1.75.42 1.75.97 0 .61-3.25.9-16.5.5l.24-3.5c.12-1.93-.55-11.28-3.24-38.07L416 345.99c-7.35 14.74-10.95 20.98-12 20.79-.83-.16-6.08-9.28-11.67-20.28-8.26-16.25-10.26-19.53-10.7-17.5-.29 1.37-1.01 8.24-1.58 15.25-.58 7.01-1.05 14.32-1.05 16.25 0 2.67.48 3.62 2 4 1.1.27 2 .95 2 1.5 0 .58-3.17 1-7.5 1-4.13 0-7.5-.23-7.5-.5 0-.28.92-1.29 2.05-2.25 1.8-1.54 2.41-4.91 5.02-27.75 1.64-14.3 3.24-27.04 3.57-28.32.32-1.28 1.1-2.16 1.73-1.97zm-364.96 1.1c13.9.26 15.43.48 19.37 2.74 2.54 1.45 4.88 3.77 5.75 5.7.81 1.79 1.47 4.6 1.47 6.25 0 1.65-.7 4.69-1.55 6.75-.86 2.06-2.77 5.01-4.25 6.55-1.49 1.53-4.95 3.45-7.7 4.26-2.75.8-6.24 1.46-7.75 1.45-1.77-.01-2.75-.54-2.75-1.51 0-.93.94-1.5 2.5-1.5 1.37 0 4.16-.79 6.19-1.75 2.03-.96 4.5-3.1 5.5-4.75.99-1.65 1.8-4.35 1.8-6 .01-1.65-.78-4.57-1.74-6.48-.96-1.91-3.33-4.53-5.25-5.8-2.64-1.76-4.61-2.25-12.5-1.72l-.3 21c-.17 11.55-.06 23.36.25 26.25.51 4.9.75 5.28 3.55 5.75 1.65.27 2.77.95 2.5 1.5-.28.56-4.5 1-9.5 1-4.95 0-9-.23-9-.5 0-.28.9-1.4 2-2.5 1.89-1.89 2-3.33 2-26.5 0-13.48-.23-25.18-.5-26-.28-.83-1.51-1.5-2.75-1.5-1.28 0-2.29-.64-2.34-1.49-.08-1.27 2.14-1.44 15-1.2zm54.5 0c12.03.25 15.28.64 18.53 2.25 2.16 1.07 4.75 3.06 5.76 4.44 1.01 1.37 2.1 4.3 2.43 6.5.4 2.72.01 5.44-1.23 8.5-1 2.47-3.07 5.96-7.4 11l2.74 3.75c1.51 2.06 5.44 6.87 8.75 10.69 3.31 3.82 7.36 7.76 9.01 8.75 1.65.99 4.01 1.8 5.25 1.81 1.24 0 2.02.45 1.75 1-.28.55-3.65 1-7.5 1-6.69 0-7.19-.17-11.15-3.75-2.28-2.06-6.78-7.24-10-11.5-3.31-4.39-7.04-8.21-8.6-8.81-1.51-.58-4.1-.92-8.75-.44l-.31 7.5c-.17 4.12-.05 8.96.25 10.75.42 2.45 1.17 3.37 3.06 3.75 1.37.27 2.5.95 2.5 1.5 0 .59-3.67 1-9 1-4.95 0-9-.23-9-.5 0-.28.9-1.4 2-2.5 1.89-1.89 2-3.33 2-26.5 0-13.48-.23-25.18-.5-26-.28-.83-1.51-1.5-2.75-1.5-1.29 0-2.29-.64-2.34-1.49-.07-1.27 2.07-1.45 14.5-1.2zm-.63 18.25l.22 11.94c7.85 1.6 9.86 1.48 12.39.42 1.86-.78 4-2.66 4.75-4.17.75-1.51 1.36-5.11 1.36-8-.01-3.49-.68-6.34-2-8.5-1.1-1.79-3.58-3.93-5.5-4.75-1.93-.83-5.09-1.5-7.02-1.5-2.02 0-3.72.56-3.97 1.31-.24.72-.35 6.68-.23 13.25zm69.98-18.07c13.81.01 17.65.29 17.25 1.26-.28.69-.51 2.82-.51 4.75 0 2.44-.45 3.5-1.5 3.5-.83 0-1.5-.68-1.5-1.5 0-.83-.9-1.95-2-2.5s-4.93-1-15-1l-.02 22.5 7.26-.81c3.99-.45 8.35-1.13 9.69-1.51 2.4-.67 2.42-.61 1.79 4.32-.36 2.75-.9 5.22-1.21 5.5-.31.27-1.22-.51-2.03-1.75-1.3-1.98-2.32-2.25-15.48-2.25l-.02 11.25c-.01 7.77.38 11.64 1.25 12.52.77.76 3.85 1.26 7.77 1.25 4.12 0 7.32-.56 8.75-1.51 1.24-.83 2.25-2.19 2.25-3.01 0-.83.56-1.49 1.25-1.49.89.01 1.11 1.32.75 4.52-.28 2.48-1.18 4.97-2 5.55-.91.63-4.65.82-9.5.49-4.4-.31-11.49-.56-15.75-.56-4.5-.01-7.75-.43-7.75-1.01 0-.55.67-1 1.5-1 .82 0 1.74-1.01 2.03-2.25.29-1.24.41-13.5-.03-52.25l-2.25-.25c-1.24-.14-2.36-.81-2.5-1.51-.19-.96 3.8-1.25 17.51-1.25zm132.62-.37c6.71-.09 9.05.2 8.87 1.1-.14.68-1.15 1.7-2.25 2.28-1.9 1.01-2.01 2.21-2.25 24.28-.14 12.77.11 24.68.56 26.47.57 2.3 1.45 3.32 3 3.5 1.2.14 2.19.7 2.19 1.25 0 .59-3.67 1-9 1-4.95 0-8.98-.34-8.96-.75.02-.41.81-1.28 1.75-1.92 1.52-1.03 1.75-3.91 2.08-25.5.25-16.6.01-25.04-.75-26.58-.62-1.24-1.8-2.25-2.62-2.25-.83 0-1.55-.62-1.62-1.38-.09-1.08 1.91-1.41 9-1.5zm35.42.11c7.32.02 9.53.34 9.6 1.4.06.75-.8 1.59-1.9 1.87-1.92.48-2 1.34-2.01 20.25-.01 18.52.13 20.03 2.25 24.24 1.24 2.47 3.83 5.55 5.76 6.84 2.87 1.92 4.53 2.29 9.17 2.01 3.66-.22 6.62-1.05 8.37-2.34 1.5-1.1 3.54-3.13 4.55-4.5 1.02-1.38 2.3-5.43 2.87-9 .56-3.58 1-11.68.97-18-.02-6.33-.36-13.3-.75-15.5-.56-3.15-1.18-4.05-2.94-4.25-1.23-.14-2.2-.89-2.15-1.68.07-1.13 1.89-1.42 8.59-1.37 6.55.05 8.48.38 8.41 1.43-.05.75-.77 1.37-1.59 1.37-.83 0-1.84.56-2.25 1.25-.41.69-.98 10.25-1.25 21.25-.48 18.99-.64 20.23-3 24.46-1.38 2.45-4.45 5.82-6.84 7.5-3.81 2.67-5.32 3.08-12.5 3.39-4.49.19-9.85-.14-11.91-.75-2.06-.6-5.58-2.79-7.82-4.85-2.85-2.62-4.51-5.26-5.51-8.75-1.02-3.54-1.43-10.26-1.41-23 .02-13.22-.31-18.34-1.24-19.27-.7-.69-2.06-1.26-3.02-1.25-.96.01-1.79-.61-1.85-1.38-.08-1.12 1.86-1.4 9.4-1.37zM366.98 378c.56 0 1.43.79 1.93 1.75.51.96 5.46 12.89 11 26.5 5.55 13.61 10.88 25.91 11.84 27.33.96 1.42 2.76 2.77 4 3 1.24.23 2.25.87 2.25 1.42 0 .58-3.33 1-8 1-7.05 0-7.97-.21-7.75-1.75.14-.96-1.33-5.7-6.75-19.31l-19 .05-2.76 7.76c-1.52 4.26-2.76 8.54-2.75 9.5.01.96.68 1.75 1.51 1.75.82 0 1.27.45 1 1-.28.55-4.1 1-8.5 1-4.67 0-8-.42-8-1 0-.55.97-1.11 2.15-1.25 1.18-.14 2.98-1.38 4-2.75 1.02-1.38 6.14-13.53 11.36-27 5.23-13.48 9.94-25.51 10.48-26.75.54-1.24 1.43-2.25 1.99-2.25zM358 414h16c-4.5-12.01-6.3-16.74-6.91-18.25-.6-1.51-1.26-2.75-1.46-2.75-.2 0-2 4.72-4 10.5L358 414zm-116.24-34.47c10.12.15 15.84.68 18.24 1.67 1.92.8 4.53 2.76 5.79 4.37 1.25 1.61 2.53 4.28 2.83 5.93.3 1.65.06 4.91-.54 7.25-.59 2.34-2.66 6.27-4.58 8.75-1.98 2.54-3.2 5.04-2.82 5.75.37.69 3.23 4.4 6.36 8.25 3.12 3.85 7.54 8.69 9.82 10.75 2.28 2.06 5.5 4.09 7.16 4.5 1.67.41 3.02 1.09 3 1.5-.01.41-3.06.74-6.77.72-4.87-.02-7.58-.56-9.75-1.93-1.65-1.05-5.7-5.39-9-9.64-3.3-4.26-6.9-8.76-8-10-1.41-1.59-3.54-2.43-12.5-3.4v9.5c0 5.22.45 10.4 1 11.5.55 1.1 1.9 2 3 2s2 .45 2 1c0 .59-3.67 1-9 1-4.95 0-8.98-.34-8.96-.75.02-.41.81-1.28 1.75-1.92 1.53-1.04 1.74-3.89 1.96-26.5.19-19.19-.05-25.64-1-26.62-.69-.72-1.93-1.28-2.75-1.25-.83.02-1.61-.57-1.74-1.31-.19-1.08 2.61-1.3 14.5-1.12zm-.98 17.3l.17 12.67c5.08 1.18 7.56 1.52 8.8 1.51 1.24 0 3.49-.63 5-1.39 1.51-.76 3.31-2.56 4-4s1.25-4.98 1.25-7.87c-.01-3.49-.68-6.34-2-8.5-1.1-1.79-3.58-3.93-5.5-4.75-1.93-.83-4.74-1.46-6.25-1.42-1.51.04-3.4.3-4.2.58-1.18.41-1.42 2.89-1.27 13.17zm87.31-17.33l-.3 4.42c-.16 2.48-.84 4.57-1.54 4.75-.69.18-1.25-.35-1.25-1.17 0-.83-.9-1.95-2-2.5s-4.93-1-15-1l-.02 22.5 7.26-.71c3.99-.4 8.36-1.07 9.7-1.5 2.43-.79 2.44-.76 1.71 4.21-.4 2.75-.93 5.11-1.19 5.25-.25.14-1.36-.65-2.46-1.75-1.59-1.59-3.33-2-15-2l-.02 11.25c-.01 7.77.38 11.64 1.25 12.52.78.77 3.89 1.26 8.02 1.25 5.4-.02 7.15-.42 8.75-2.02 1.1-1.1 2-2.45 2-3 0-.55.45-.78 1-.5.55.27 1 1.85 1 3.5s-.45 3.9-1 5c-.96 1.92-1.67 1.97-17.25 1.37-8.94-.34-16.48-.78-16.75-.97-.28-.2.52-1.15 4.05-3.9l-.55-52-2.25-.25c-1.24-.14-2.25-.81-2.25-1.5 0-.95 4.07-1.25 34.09-1.25zm87.8-.06c6.04.04 9.88.45 9.78 1.06-.1.55-1.07 1.24-2.17 1.54-1.62.44-2.15 1.78-2.81 7-.44 3.55-.56 14.78-.26 24.96.48 16.12.78 18.66 2.31 19.77 1.02.73 4.69 1.26 8.76 1.25 4.56 0 7.78-.53 9.25-1.51 1.24-.83 2.25-2.19 2.25-3.01 0-.83.79-1.51 1.75-1.52 1.52-.01 1.64.54.94 4.25-.45 2.35-1.35 4.88-2 5.63-.96 1.1-4.43 1.22-18.19.63-9.35-.4-17.11-.9-17.25-1.11-.14-.21.65-1.28 1.75-2.38 1.89-1.89 2-3.33 2-26.5 0-13.48-.23-25.18-.5-26-.28-.83-1.51-1.5-2.75-1.5s-2.37-.59-2.52-1.31c-.21-1.01 1.97-1.3 9.66-1.25z" fill="#fff"/><path id="Path 1" class="shp1" d="M1322.2 429.84l-10.29 7.66.09 143.5c8.14-5.75 12.86-9.13 15.75-11.21L1333 566c0-111.6-.11-143.96-.25-143.91-.14.05-4.88 3.54-10.55 7.75zm-301.41 2.94c-1.49.94-3.4 2.96-4.25 4.47-.85 1.51-1.54 4.1-1.54 5.75 0 1.65.67 4.35 1.5 6 .82 1.65 2.85 3.67 4.5 4.5 1.65.82 4.35 1.5 6 1.5 1.65 0 4.35-.68 6-1.5 1.65-.83 3.68-2.51 4.51-3.75.83-1.24 1.51-4.28 1.51-6.75 0-2.48-.68-5.51-1.51-6.75-.83-1.24-2.86-2.93-4.51-3.75-1.65-.83-4.46-1.49-6.25-1.47-1.79.01-4.47.8-5.96 1.75zm-398.63 9.82L612 450v24h-9v16h9c.55 64.74.93 73.33 2.06 76.39.79 2.14 3.01 5.7 4.94 7.92 1.92 2.22 5.3 4.85 7.5 5.84 2.56 1.16 6.43 1.81 10.75 1.83 3.71.01 7.87-.43 9.25-.98 2.37-.95 2.5-1.4 2.5-9v-8c-7.87 1.16-8.95.87-11.5-1.29l-3-2.53L634 490h15v-16h-15c.16-29.93-.19-38.07-.74-38.34-.52-.25-5.51 2.87-11.1 6.94zm356.14.22l-9.2 6.68-.1 24.5h-10v16h10c-.02 63.49.28 71.49 1.46 75.5.82 2.75 2.76 6.57 4.33 8.5 1.57 1.92 4.84 4.51 7.28 5.74 3.27 1.64 6.2 2.24 11.18 2.25 3.71 0 7.87-.44 9.25-.99 2.37-.95 2.5-1.4 2.5-9v-8c-6.44 1.16-8.28.87-10.25-.33-1.72-1.05-3.12-3.07-3.74-5.42-.56-2.11-1-17.82-1-36L990 490h15v-16h-15c0-33.57-.29-37.98-1.25-37.93-.69.04-5.39 3.08-10.45 6.75z" fill="#fff"/><path id="Path 2" fill-rule="evenodd" class="shp0" d="M205.75 450.55c3.44.25 6.92.67 7.75.95 1.07.36 1.5 1.94 1.5 5.5 0 3.78-.37 5-1.5 5-.83 0-1.73-1.13-2-2.5-.28-1.38-1.51-3.01-2.75-3.62-1.24-.62-4.09-1.18-6.35-1.25-2.25-.07-5.29.54-6.74 1.37-1.46.82-3.1 2.51-3.66 3.75-.55 1.24-1 2.92-1 3.75 0 .82 1.46 3.14 3.25 5.15 1.79 2 5.72 5.33 8.75 7.4 3.02 2.06 6.93 5.26 8.69 7.1 1.75 1.84 3.66 4.59 4.25 6.1.58 1.51 1.06 4.55 1.06 6.75s-.79 5.64-1.75 7.64c-1.12 2.32-3.38 4.56-6.25 6.19-3.83 2.17-5.69 2.54-12.5 2.47-4.4-.04-9.24-.58-10.75-1.19-2.57-1.04-2.75-1.5-2.75-7.11 0-4.67.33-6 1.5-6 .83 0 1.5.89 1.5 2 0 1.1 1.01 3.17 2.25 4.6 1.67 1.94 3.53 2.75 7.25 3.16 3.22.36 6.21.06 8.39-.85 1.86-.78 4-2.65 4.75-4.16.75-1.51 1.36-3.43 1.36-4.25 0-.83-.68-2.85-1.5-4.5-.83-1.65-4.99-5.65-9.25-8.88-4.26-3.24-8.74-6.95-9.94-8.25-1.21-1.3-2.93-4.17-3.83-6.37-1.02-2.48-1.42-5.33-1.07-7.5.32-1.93 1.59-4.8 2.83-6.39 1.24-1.59 3.16-3.36 4.26-3.92 1.1-.57 3.35-1.39 5-1.82 1.65-.43 5.81-.57 9.25-.32zm27.86.56c2.14.51 13.34.83 45.89.46v2.21c0 1.22-.11 3.57-.25 5.22s-.59 3-1 3c-.41.01-1.2-.99-1.75-2.21-.55-1.23-2.13-2.53-3.5-2.91-1.38-.37-5.31-.73-15-.88v24.5c0 14.33.41 25.33 1 26.5.56 1.11 2 2 3.25 2 1.24 0 2.29.56 2.33 1.25.06.92-2.5 1.25-9.75 1.25-7.19 0-9.83-.33-9.83-1.25 0-.69.79-1.4 1.75-1.58 1.25-.23 1.97-1.73 2.51-5.25.41-2.71.75-14.48.74-47.42l-8.59.25c-7.5.22-8.83.53-10.5 2.5-1.05 1.24-2.36 2.25-2.91 2.25-.59 0-.74-1.32-.35-3.25.36-1.79.97-4.22 1.36-5.41.65-1.95 1.09-2.07 4.6-1.23zm77.77-.82c.61.22 5.97 12.28 11.9 26.8 5.94 14.53 11.45 27.42 12.25 28.66.81 1.24 2.59 2.47 3.97 2.75 1.52.3 2.51 1.19 2.51 2.25.01 1.54-.62 1.66-5.25 1.01-2.89-.41-6.5-.75-8.01-.75-2.02-.01-2.7-.47-2.56-1.76.11-.96-1.36-5.69-6.69-19.24L300 490l-2.08 6.25c-1.15 3.44-2.5 7.49-3 9-.74 2.22-.58 2.89.83 3.5.96.41 1.82 1.2 1.92 1.75.1.6-3.37 1-8.75 1-6.47 0-8.92-.34-8.92-1.25 0-.69 1.01-1.24 2.25-1.22 1.24.02 3.03-.77 3.98-1.75.96-.98 6.51-13.93 12.33-28.78 5.83-14.85 10.84-27.36 11.14-27.8.31-.44 1.06-.63 1.68-.41zm-9.13 34.87c-.14.46 3.35.84 7.75.84h8c-6.2-15.89-8.11-20.84-8.25-21.26-.14-.42-1.83 3.81-3.75 9.41-1.93 5.59-3.61 10.55-3.75 11.01zm43.03-34.37c1.77.39 13.01.71 46.72.71v4.75c0 2.61-.45 4.75-1 4.75s-1.23-.68-1.5-1.5c-.28-.83-2.19-1.95-4.25-2.49-2.06-.55-6.11-1-14.25-1.01l-.02 25.25c-.01 19.06.3 25.56 1.25 26.52.7.69 2.06 1.26 3.02 1.25.96-.01 1.75.54 1.75 1.23 0 .91-2.57 1.25-9.5 1.25s-9.5-.34-9.5-1.25c0-.69.67-1.25 1.5-1.25.82 0 1.72-.68 2-1.5.27-.83.5-12.75.5-51.5l-8.09.25c-6.98.22-8.35.56-10 2.5-1.05 1.24-2.36 2.25-2.91 2.25-.55 0-1-.23-1-.5 0-.28.47-2.73 1.03-5.46 1.03-4.93 1.06-4.96 4.25-4.25zm-182.03.43c1.33-.17 1.63.32 1.26 2.03-.26 1.24-.49 3.49-.5 5-.01 1.77-.54 2.75-1.51 2.75-.83 0-1.5-.68-1.5-1.5 0-.83-.9-1.95-2-2.5s-4.93-1-15-1l-.01 22.5 7.84-.5c4.31-.28 8.59-1.06 9.51-1.75.91-.69 1.82-.91 2-.5.19.41.08 3.13-.25 6.03-.32 2.9-1.04 5.18-1.59 5.06-.55-.11-1.46-1.14-2.03-2.27-.87-1.77-2.08-2.11-15.47-2.57v10.5c0 5.77.45 11.4 1 12.5.87 1.73 2 2 8.43 2 5.24 0 7.89-.44 9-1.5.86-.83 1.57-2.18 1.57-3 0-.83.67-1.5 1.5-1.5 1.19 0 1.37.87.89 4.25-.34 2.34-1.13 4.84-1.75 5.55-.87 1-4.99 1.23-17.39 1-12.16-.22-16.24-.61-16.25-1.55 0-.69.79-1.4 1.75-1.58 1.25-.23 1.97-1.73 2.51-5.25.41-2.71.75-13.81.75-24.67-.01-10.86-.46-20.88-1.01-22.25-.6-1.5-1.8-2.5-3-2.5-1.1 0-2-.45-2-1 0-.61 6.1-1.11 15.75-1.28 8.66-.15 16.54-.37 17.5-.5zm275 0c1.33-.17 1.63.32 1.26 2.03-.26 1.24-.49 3.49-.5 5-.01 1.77-.54 2.75-1.51 2.75-.83 0-1.5-.68-1.5-1.5 0-.83-.9-1.95-2-2.5s-4.93-1-15-1l-.01 22.5 7.84-.5c4.31-.28 8.59-1.06 9.51-1.75.91-.69 1.82-.91 2-.5.19.41.08 3.13-.25 6.03-.32 2.9-1.04 5.18-1.59 5.06-.55-.11-1.46-1.14-2.03-2.27-.87-1.77-2.08-2.11-15.47-2.57v10.5c0 5.77.45 11.4 1 12.5.86 1.73 1.99 2 8.25 1.97 5.48-.01 7.68-.44 9.03-1.75.98-.94 1.77-2.28 1.75-2.97-.02-.69.64-1.25 1.47-1.25 1.19 0 1.37.87.89 4.25-.34 2.34-1.13 4.84-1.75 5.55-.87 1-4.99 1.23-17.39 1-12.16-.22-16.24-.61-16.25-1.55 0-.69.79-1.4 1.75-1.58 1.29-.24 1.94-1.75 2.49-5.75.41-2.98.75-14.08.75-24.67.01-10.59-.44-20.38-.99-21.75-.6-1.5-1.8-2.5-3-2.5-1.1 0-2-.45-2-1 0-.61 6.1-1.11 15.75-1.28 8.66-.15 16.54-.37 17.5-.5z" fill="#fff"/><path id="Path 3" fill-rule="evenodd" class="shp1" d="M501.74 460c.14 0 .25 27.34.21 121.5l-6.63 5c-3.64 2.75-8.35 6.24-14.32 10.5l-.26-122.01 10.37-7.49c5.7-4.13 10.48-7.5 10.63-7.5zm53.76 12.28c12.38.22 13.32.39 19.75 3.48 5.41 2.59 7.35 4.19 9.78 7.99 1.66 2.61 3.54 6.32 4.17 8.25.76 2.33 1.25 17.79 1.8 89h-22v-40.75c0-36.82-.17-41.08-1.75-44.18-.96-1.88-3.03-4.36-4.59-5.5-1.75-1.27-4.83-2.21-8-2.42-2.84-.2-7.07.14-13.66 1.85v91h-22V480l4.75-2.41c2.61-1.32 7.9-3.11 11.75-3.97 4.81-1.08 11.07-1.5 20-1.34zm140 .04c7.81.23 9.71.66 14.38 3.22 2.96 1.63 6.67 4.42 8.25 6.21s4.16 5.84 5.74 9c1.59 3.16 3.61 9.01 4.5 13 .9 3.99 1.63 11.52 1.63 16.75 0 8.22-.24 9.56-1.75 9.93-.96.23-12.71 1.69-26.11 3.25-13.4 1.55-24.77 3.04-25.28 3.32-.54.29-.29 3.4.6 7.5.94 4.31 2.77 8.86 4.78 11.84 2.23 3.3 4.69 5.49 7.76 6.9 3.05 1.4 6.44 2.05 10.5 2.01 3.3-.04 8.02-.6 10.5-1.24 2.47-.64 5.96-2.03 7.75-3.09s3.41-1.58 3.61-1.17c.2.41 1.34 4.12 2.54 8.25 1.2 4.12 2.05 7.56 1.89 7.63-.16.07-2.2 1.08-4.54 2.25-2.34 1.16-7.06 2.79-10.5 3.61-3.44.81-9.63 1.49-13.75 1.5-4.13.02-9.98-.69-13-1.57-3.03-.88-7.71-3.02-10.4-4.76-2.7-1.74-6.14-4.74-7.66-6.66-1.52-1.93-4.15-6.43-5.85-10-1.69-3.58-3.81-10.33-4.7-15-1.23-6.38-1.5-11.87-1.11-22 .39-9.91 1.11-15.36 2.71-20.5 1.2-3.85 3.33-9.03 4.72-11.5 1.4-2.48 4.4-6.45 6.67-8.83 2.26-2.39 5.91-5.27 8.09-6.41 2.18-1.14 5.11-2.44 6.5-2.89 1.39-.45 6.58-.69 11.53-.55zm-11.83 20.27c-1.41 1.6-3.47 4.93-4.58 7.41-1.11 2.47-2.6 8.19-3.3 12.69-.71 4.51-1.07 8.47-.79 8.8.27.33 7.92-.33 17-1.47 9.07-1.13 16.72-2.31 17-2.61.27-.3-.07-4.23-.76-8.73-.7-4.5-2.27-10.18-3.5-12.63-1.23-2.45-3.59-5.26-5.24-6.25-1.65-.98-4.35-1.77-6-1.73-1.65.03-3.96.41-5.13.84-1.17.42-3.28 2.08-4.7 3.68zM789 472l-2.33 8.75c-2.17 8.14-2.5 8.73-4.75 8.46-1.33-.15-4.67-.35-7.42-.44-2.75-.09-6.01.38-9.5 2.23v90h-21l-.05-101.5 4.77-2.23c2.63-1.23 6.8-2.68 9.28-3.23 2.47-.54 5.62-1.16 7-1.38 1.37-.21 7.34-.45 24-.66zm41 .11c8-.12 12.11.33 17.25 1.87 5.1 1.53 7.8 3.06 11.05 6.27 2.44 2.4 5.14 6.42 6.22 9.25 1.74 4.59 1.92 8.55 2.48 91.5h-22l-.02-40.75c-.02-37.01-.19-41.12-1.82-44.75-1.23-2.75-2.94-4.55-5.48-5.75-2.02-.96-5.48-1.75-7.68-1.75-2.2 0-6.03.45-13 2v91h-21l-.08-101.5 4.79-2.17c2.63-1.2 6.81-2.65 9.29-3.23 2.47-.58 5.62-1.22 7-1.44 1.37-.21 7.22-.46 13-.55zm86 .18c9.01.2 11.28.6 16 2.87 3.36 1.61 6.85 4.33 8.98 6.99 1.91 2.39 4.38 6.6 5.49 9.35 1.86 4.65 2.03 7.7 2.65 83l-2.31 1.82c-1.27 1.01-5.46 2.81-9.31 4-5.67 1.77-9.46 2.18-20 2.18-9.61 0-14.3-.44-18-1.7-2.75-.93-7.25-3.67-10-6.08-3.16-2.77-5.9-6.38-7.44-9.8-2.03-4.51-2.45-7.01-2.46-14.92-.01-8.44.32-10.22 2.94-15.89 1.83-3.95 4.67-7.94 7.46-10.45 2.47-2.24 7.2-5.27 10.5-6.73 3.3-1.46 9.15-3.36 13-4.23 3.85-.87 8.69-1.84 10.75-2.14 3.73-.56 3.75-.58 3.73-5.31-.01-2.61-.91-6.66-2-9-1.22-2.61-3.23-4.92-5.23-5.98-2.24-1.19-5.42-1.71-10.25-1.66-4.43.05-9.02.83-12.5 2.12a984.11 984.11 0 01-7.25 2.66c-1.45.5-2.1-.55-3.77-6.14-1.11-3.71-2.02-6.98-2.03-7.25 0-.28 2.15-1.54 4.77-2.82 2.63-1.28 7.25-2.95 10.28-3.72 3.37-.85 9.56-1.31 16-1.17zm-6.96 57.2c-1.9 1.04-4.19 3.04-5.08 4.45-.89 1.41-2.15 4.13-2.8 6.06-.66 1.92-1.18 6.2-1.16 9.5.02 3.84.74 7.53 2.01 10.25 1.48 3.16 3.08 4.76 6.24 6.24 2.34 1.09 6.27 2 8.75 2.01 2.47.02 5.96-.42 7.75-.98L928 566v-42c-3.49.08-6.98.9-10 1.86-3.03.96-7.06 2.6-8.96 3.63zm180.71-57.45c5.18-.03 8.89.59 13 2.18 3.55 1.37 7.5 3.95 10.32 6.75 2.52 2.49 5.97 7.45 7.67 11.03 1.7 3.57 3.84 10.1 4.74 14.5 1.03 5.01 1.65 12.86 1.65 21 0 7.96-.61 15.91-1.57 20.5-.86 4.12-3.07 10.65-4.91 14.5-1.86 3.9-5.29 8.91-7.75 11.32-2.42 2.38-6.43 5.3-8.9 6.5-3.66 1.77-6.28 2.18-14 2.18-7.78 0-10.36-.41-14.25-2.25-2.61-1.24-6.78-4.28-9.25-6.75-2.48-2.48-5.63-6.75-7-9.5-1.38-2.75-3.5-8.49-4.72-12.75-1.88-6.56-2.22-10.21-2.22-23.75.01-12.09.43-17.59 1.76-22.5.96-3.58 3-9.2 4.54-12.5 1.53-3.3 4.33-7.74 6.21-9.86 1.89-2.12 5-4.81 6.93-5.97 1.92-1.16 5.07-2.66 7-3.34 1.92-.69 6.76-1.26 10.75-1.29zm-11.89 25.55c-.9 2.15-2.19 7.28-2.87 11.41-.8 4.85-1.04 12.81-.69 22.5.37 10.39 1.1 16.84 2.37 20.97 1.01 3.29 3.18 7.42 4.83 9.21 2.59 2.8 3.68 3.25 8 3.29 2.87.03 5.96-.6 7.25-1.46 1.24-.83 3.09-3.2 4.11-5.26 1.03-2.06 2.48-6.23 3.23-9.25.86-3.51 1.36-11.47 1.36-22 .01-12.85-.41-18.16-1.88-24-1.46-5.82-2.69-8.33-5.48-11.21-3-3.09-4.29-3.71-7.8-3.75-3.23-.03-4.98.62-7.5 2.8-1.81 1.56-4.03 4.6-4.93 6.75zm99.64-25.25c10.55.22 13.85.65 17.5 2.31 2.47 1.12 6.02 3.34 7.89 4.94 1.86 1.6 4.56 5.16 8.61 12.91l.5 88.5h-21l-.25-41.25c-.24-39.42-.34-41.41-2.28-44.75-1.12-1.93-3.6-4.29-5.5-5.25-1.91-.96-5.5-1.75-7.97-1.74-2.48 0-6.19.45-12 1.99v91h-22l-.08-101.5 5.29-2.37c2.91-1.31 8.21-2.98 11.79-3.71 4.01-.83 11.48-1.24 19.5-1.08zm83.5.03c8.65.2 11.45.67 15.92 2.69 3.28 1.48 6.95 4.22 9.31 6.94 2.53 2.93 4.57 6.77 5.85 11 1.8 5.96 1.96 9.65 1.99 82.5l-5.78 2.68c-3.19 1.48-8.94 3.23-12.79 3.89-3.86.66-11.48.99-17 .74-7.91-.35-11.15-.97-15.5-2.97-3.03-1.39-7.02-3.83-8.89-5.43-1.86-1.6-4.56-5.16-6-7.91-2.37-4.55-2.61-6.04-2.61-16.5 0-9.47.36-12.29 2.05-16 1.13-2.48 3.94-6.41 6.25-8.75s7.46-5.84 11.45-7.78c4.47-2.17 11.42-4.37 28.99-7.97l-.62-5.25c-.34-2.89-1.25-6.49-2.02-8-.76-1.51-2.23-3.48-3.25-4.37-1.02-.9-3.65-2.19-5.85-2.89-2.55-.8-5.99-1.01-9.5-.57-3.03.38-8.31 1.79-11.75 3.13-3.44 1.35-6.41 2.34-6.61 2.2-.19-.14-1.32-3.29-4.64-13.75l2.25-1.51c1.24-.83 4.95-2.38 8.25-3.44s6.9-2.15 8-2.42c1.1-.28 6.72-.39 12.5-.26zm-8.75 59.08c-3.36 2.81-4.59 4.75-5.88 9.3-1.11 3.92-1.43 7.5-1 11.25.34 3.02 1.41 6.8 2.38 8.4.96 1.59 2.87 3.74 4.25 4.78s4.96 2.14 8 2.46c3.02.32 7.41.08 9.75-.53L1274 566v-42c-4.26.09-8.2.97-11.5 2.01-3.3 1.04-7.91 3.49-10.25 5.44zM1016 474h22v107h-22V474z" fill="#fff"/><path id="Path 4" fill-rule="evenodd" class="shp0" d="M85.32 521.98c.65-.01 4.08 7.08 7.62 15.75s8.62 20.94 11.28 27.27c2.67 6.32 5.84 12.52 7.06 13.78 1.22 1.25 3.01 2.26 3.97 2.25.96-.02 1.75.64 1.75 1.47 0 1.07-1.09 1.5-3.75 1.51-2.06 0-5.9-.34-8.53-.75-3.24-.52-4.61-1.16-4.25-2.01.29-.69-1.05-5.3-6.47-19.25l-19.36.5-2.77 7.5c-1.52 4.12-2.79 8.29-2.82 9.25-.03.96.62 1.75 1.45 1.75.82 0 1.5.56 1.5 1.25 0 .9-2.37 1.25-8.5 1.25-4.99 0-8.5-.41-8.51-1-.01-.55 1.46-1.45 3.25-2 3.05-.94 3.62-1.9 8.88-15 3.09-7.7 8.19-20.64 11.32-28.75 3.14-8.11 6.24-14.76 6.88-14.77zM79.81 548c-1.56 4.67-2.83 8.84-2.82 9.25.01.41 3.38.75 7.51.75 4.12 0 7.49-.11 7.49-.25-.01-.14-1.74-4.98-3.84-10.75-2.71-7.43-4.07-10.06-4.67-9-.46.82-2.11 5.32-3.67 10zM157 522.13c.27-.08 4.32.32 9 .88 4.67.55 9.51 1.23 10.75 1.5 2.05.45 2.25 1.06 2.25 6.99 0 5.11-.32 6.5-1.5 6.5-.83 0-1.5-.68-1.5-1.5 0-.83-1.06-2.74-2.34-4.25-1.29-1.51-4.33-3.35-6.75-4.09-2.67-.81-7.63-1.21-12.57-1-7.19.3-8.69.7-12.5 3.38-2.39 1.68-5.42 5.05-6.75 7.5-1.36 2.53-2.61 6.85-2.88 9.96-.28 3.35.14 7.65 1.08 11 .85 3.02 3.05 7.48 4.88 9.9s5.8 5.79 8.83 7.5c4.85 2.73 6.42 3.1 13.33 3.1 6.68 0 8.04-.29 9.27-2 .86-1.2 1.4-4.2 1.36-7.5-.04-3.03-.39-7.3-.78-9.5-.56-3.15-1.18-4.05-2.94-4.25-1.23-.14-2.24-.93-2.24-1.75 0-1.23 1.72-1.5 9.5-1.5 7.07 0 9.44.32 9.25 1.25-.14.69-1.15 1.49-2.25 1.79-1.84.5-2.02 1.51-2.5 24.96l-5.25 1.7c-3.38 1.09-8.45 1.69-14.25 1.67-5.63-.01-11.06-.66-14.5-1.73-3.03-.95-7.75-3.41-10.5-5.47-3.52-2.65-5.87-5.52-7.94-9.72-2.52-5.08-2.95-7.12-2.95-13.95-.01-6.37.49-9.1 2.44-13.4 1.35-2.96 4.36-7.13 6.7-9.25s5.94-4.56 8-5.42c2.06-.87 6.45-1.93 9.75-2.38 3.3-.44 6.22-.85 6.5-.92zm103.84.81c.91.48 4.59 3.95 8.17 7.72 3.59 3.76 13.65 14.26 38.21 39.84l-.71-21c-.45-13.48-1.12-21.46-1.86-22.29-.63-.72-1.94-1.28-2.9-1.25-.96.02-1.75-.41-1.75-.96 0-.58 3.33-1 8-1 4.4 0 8 .34 8 .75.01.41-.89 1.31-2 2-1.92 1.2-2 2.32-2 29.25 0 18-.36 28-1 28-.55 0-2.69-1.29-4.75-2.87s-12.55-12.04-42.85-43.63l.38 18.5c.21 10.17.71 19.85 1.11 21.5.56 2.31 1.34 3.06 3.42 3.25 1.48.14 2.69.81 2.69 1.5 0 .91-2.47 1.25-9 1.25-6.53 0-9-.34-9-1.25 0-.69.9-1.25 2-1.25s2.22-.68 2.5-1.5c.27-.83.42-13.8.33-28.83-.09-15.04.18-27.62.6-27.97.41-.35 1.5-.24 2.41.24zm100.16-.81c.27-.06 4.55.33 9.5.88 4.95.54 10.01 1.21 11.25 1.49 2.07.46 2.25 1.06 2.25 7.5 0 5.56-.31 7-1.5 7-.89 0-1.7-1.22-2-3-.28-1.65-1.68-3.9-3.13-5-1.44-1.09-4.48-2.49-6.75-3.11-2.26-.61-7.56-.95-11.77-.75-6.54.31-8.28.79-12 3.37-2.78 1.92-5.24 4.8-6.83 8-2 4.02-2.47 6.45-2.43 12.49.03 4.78.66 8.86 1.73 11.25.92 2.06 3.59 5.8 5.93 8.3 2.34 2.51 6.27 5.51 8.75 6.68 3.28 1.55 6.54 2.15 12.04 2.2 5.58.05 8.25-.39 10.25-1.68 1.49-.96 3.5-3.33 4.46-5.27.96-1.94 2.09-3.51 2.5-3.5.41.01.75 1.26.74 2.77 0 1.51-.45 4.44-1 6.5-.63 2.41-1.8 4.06-3.24 4.62-1.24.47-5.18 1.17-8.75 1.54-3.58.37-9.76.21-13.75-.37-3.99-.57-9.39-2.04-12-3.26-2.61-1.23-6.69-4.27-9.06-6.75-2.55-2.69-4.98-6.56-5.98-9.53-.95-2.85-1.65-8.01-1.63-12 .03-4.75.69-8.44 2.04-11.5 1.1-2.48 3.77-6.45 5.94-8.82 2.17-2.38 5.74-5.19 7.94-6.24 2.2-1.05 6.7-2.32 10-2.81 3.3-.49 6.22-.94 6.5-1zm-126.95 1.09c1.17-.17 1.47.56 1.24 3.03-.17 1.79-.31 4.04-.3 5 0 .96-.67 1.75-1.49 1.75-.83 0-1.5-.68-1.5-1.5 0-.83-.9-1.95-2-2.5s-4.93-1-15-1v22l6.75-.01c4.08 0 7.84-.59 9.5-1.5 1.51-.82 2.91-1.15 3.09-.74.19.41.08 3-.25 5.75-.33 2.79-1.14 5.11-1.84 5.25-.69.14-1.25-.43-1.25-1.25 0-.83-.9-1.95-2-2.5s-4.7-1-14-1v10.5c0 5.77.45 11.4 1 12.5.87 1.73 2 2 8.43 2 5.24 0 7.89-.44 9-1.5.86-.83 1.57-2.06 1.57-2.75s.69-1.25 1.52-1.25c1.24 0 1.4.85.88 4.5-.36 2.47-.82 4.84-1.03 5.25-.2.41-8.02.64-17.37.5-12.8-.19-17-.56-17-1.5 0-.69.79-1.4 1.75-1.58 1.15-.21 2-1.67 2.49-4.25.41-2.15.74-13.26.75-24.67.01-11.53-.43-21.86-.99-23.25-.64-1.61-1.79-2.5-3.2-2.5-1.4 0-1.86-.35-1.25-.96.52-.54 7.7-1.11 15.95-1.28 8.25-.18 15.7-.42 16.55-.54zm167.45.78c7.85 0 8.42.13 7.4 1.75-.9 1.43.23 3.96 6.25 14 4.04 6.74 7.57 12.24 7.85 12.23.27-.01 3.55-5.29 7.28-11.75 3.74-6.45 6.77-12.29 6.75-12.98-.01-.69-.48-1.25-1.03-1.25s-1-.45-1-1c0-.58 3.17-1 7.5-1s7.5.42 7.5 1c0 .55-.68 1-1.5 1-.83 0-3.13 1.91-5.11 4.25-1.99 2.34-6.71 9.2-17.38 26.25l-.02 11c-.02 7.57.37 11.4 1.24 12.27.7.69 2.17 1.26 3.27 1.25 1.1-.01 2 .59 2 1.33 0 1.06-2.17 1.33-9.75 1.25-7.08-.07-9.75-.44-9.75-1.35 0-.69.9-1.48 2-1.75 1.67-.42 2.1-1.62 2.62-7.25.34-3.71.33-8.78-.03-11.25-.36-2.48-1.84-6.53-3.29-9-1.45-2.48-5.48-8.89-8.97-14.25-3.58-5.52-7.63-10.51-9.32-11.5-1.65-.96-3-2.09-3-2.5-.01-.41 3.81-.75 8.49-.75z" fill="#fff"/></g></svg>